<?xml version="1.0" encoding="UTF-8"?><svg id="a" xmlns="http://www.w3.org/2000/svg" viewBox="0 0 200 200"><defs><style>.b{fill:#fff;}</style></defs><rect class="b" x="53.21" y="25.78" width="2.25" height="24.35"/><path class="b" d="M75.18,60.64H33.5v-12.76h41.68v12.76Zm-39.43,0h37.19v-10.51H35.74v10.51Z"/><path class="b" d="M64.21,77.96h-19.75l-10.96-17.32h41.68l-10.96,17.32Zm-18.56-2.25h17.36l8.64-12.83H37.02l8.64,12.83Z"/><path class="b" d="M73.43,131.31H35.24v-55.59h38.19v55.59Zm-35.95-2.25h33.7v-51.1H37.48v51.1Z"/><rect class="b" x="36.94" y="90.8" width="34.79" height="2.25"/><rect class="b" x="36.94" y="102.39" width="34.79" height="2.25"/><path class="b" d="M124.46,174.22H27.12v-45.16H124.46v45.16Zm-95.1-2.24H122.22v-40.67H29.37v40.67Z"/><path class="b" d="M118.66,131.31h-31.24v-12.68h31.24v12.68Zm-28.99-2.25h26.75v-8.19h-26.75v8.19Z"/><path class="b" d="M110.55,174.22h-17.32v-26.6h17.32v26.6Zm-15.08-2.24h12.83v-22.11h-12.83v22.11Z"/><rect class="b" x=".23" y="171.98" width="144.42" height="2.24"/><path class="b" d="M93.24,97.32l-.17-5.47,5.91-3.16-11.36-14.77,9.42-2.39,20.36,11.29c6.18-2.33,60.75-22.81,68.32-22.41,7.27,.39,12.96,4.41,13.86,6.37,.4,.88,.05,1.48-.12,1.69-.05,.06-5.28,6.3-44.49,17.38-11.99,3.39-31.94,8.91-35.24,9.09h0l-26.49,2.37Zm2.12-4.14l.05,1.69,24.31-2.16h.03c.72-.06,5.62-.82,34.6-9.01,32.21-9.1,41.19-14.93,42.97-16.3-1.06-1.24-5.58-4.41-11.72-4.74-.06,0-.12,0-.19,0-6.78,0-51.05,16.16-67.7,22.46l-.49,.18-20.49-11.37-5.25,1.33,10.9,14.17-7.02,3.75Z"/><polygon class="b" points="156.89 90.49 160.79 82.22 162.82 83.18 160.96 87.13 172.05 84.28 173.51 78.54 175.68 79.09 173.9 86.13 156.89 90.49"/></svg>