<?xml version="1.0" encoding="UTF-8"?><svg id="a" xmlns="http://www.w3.org/2000/svg" viewBox="0 0 200 200"><defs><style>.b{fill:none;stroke:#fff;stroke-miterlimit:10;stroke-width:2.5px;}</style></defs><circle class="b" cx="162.89" cy="125.76" r="15.42"/><path class="b" d="M178.09,159.11l-15.2,19.48-25.06-32.11c-.09-.13-.18-.26-.29-.39-4.85-5.87-7.51-13.29-7.51-20.92,0-18.12,14.74-32.87,32.87-32.87s32.87,14.74,32.87,32.87c0,3.16-.45,6.29-1.33,9.29"/><path class="b" d="M.19,81.32H69.16c14.77,0,26.78,12.01,26.78,26.78v60.86c0,6.71,5.46,12.17,12.17,12.17h91.7"/><path class="b" d="M161.27,195.74h-53.15c-14.77,0-26.78-12.01-26.78-26.78v-60.86c0-6.71-5.46-12.17-12.17-12.17H33.13"/><path class="b" d="M18.24,95.92H.19"/><path class="b" d="M29.54,4.26C15.59,4.26,4.24,15.61,4.24,29.56c0,5.87,2.05,11.58,5.78,16.1,.09,.11,.18,.23,.26,.36l19.24,24.66,19.49-24.99c.04-.05,.08-.11,.12-.16,3.66-4.49,5.68-10.16,5.68-15.96,0-13.95-11.35-25.29-25.29-25.29Z"/><circle class="b" cx="29.54" cy="30.02" r="15.42"/></svg>