<?xml version="1.0" encoding="UTF-8"?><svg id="a" xmlns="http://www.w3.org/2000/svg" viewBox="0 0 200 200"><defs><style>.b{fill:none;stroke:#fff;stroke-linecap:round;stroke-linejoin:round;stroke-width:2.5px;}</style></defs><path class="b" d="M47.56,108.06c-10.29,3.1-20.67,8.13-28.81,15.19-4.24,3.68-8,8.18-9.86,13.55-.94,2.71-1.36,5.57-1.23,8.44,.15,3.13,.84,8.26,3,10.6,.6,.65,1.4,1.06,2.2,1.45,8.76,4.23,18.54,6.36,28.25,6.45,4.52,.04,7.49,2.95,11.08,5.49,3.86,2.74,7.71,5.49,11.67,8.09,4.56,3,9.17,6.26,14.36,8.1,9.03,3.21,20,2.03,29.53,1.8,8.38-.21,16.77-.76,25.09-1.78,16.84-2.06,35.02-5.68,49.23-15.49,10.18-7.03,16.59-17.58,16.14-30.16-2.91-6.41-12.08-7.34-18.11-8.53-10.33-2.03-20.61-3.72-31.13-4.4-2.64-.17-5.29-.25-7.93-.21-2.47,.04-5.02,.64-7.3-.56-4.46-2.35-8.48-6.45-11.92-10.07-2.43-2.56-4.28-5.76-7.22-7.81-3.3-2.31-8.38-3.01-12.25-3.82-9.71-2.02-19.89-2.32-29.57,.02"/><path class="b" d="M1.78,164.12c1.31,.63,2.63,1.22,3.97,1.76,8.78,3.58,18.29,5.4,27.75,5.48,5.08,.05,8.42,3.31,12.44,6.16,4.34,3.07,8.66,6.17,13.1,9.09,5.12,3.37,10.3,7.03,16.12,9.1,2.15,.76,4.4,1.31,6.72,1.69"/><ellipse class="b" cx="89.47" cy="142.31" rx="19.77" ry="10.72"/><line class="b" x1="57.35" y1="145.19" x2="57.35" y2="2.61"/><polyline class="b" points="57.35 2.61 122.25 29.17 57.54 51.32"/></svg>