<?xml version="1.0" encoding="UTF-8"?><svg id="a" xmlns="http://www.w3.org/2000/svg" viewBox="0 0 200 200"><defs><style>.b{fill:#fff;}</style></defs><g><rect class="b" x="97.2" y="65.49" width="18.15" height="2.88"/><rect class="b" x="99.53" y="40.84" width="2.88" height="26.69" transform="translate(-11.55 32.49) rotate(-17.3)"/><rect class="b" x="91.9" y="52.74" width="18.15" height="2.88"/><polygon class="b" points="112.98 125.01 86.38 40.74 107.55 40.74 107.86 41.75 133.64 124.15 130.89 125.01 105.43 43.62 90.3 43.62 115.72 124.15 112.98 125.01"/><polygon class="b" points="108.97 110.65 86.74 103.81 93.04 61.47 95.88 61.9 89.94 101.79 109.82 107.9 108.97 110.65"/><polygon class="b" points="174.36 123.13 171.48 123.13 171.48 51.6 109.39 51.6 109.39 48.73 174.36 48.73 174.36 123.13"/><rect class="b" x="75.54" y="112.26" width="22.05" height="2.88" transform="translate(-39.38 181.21) rotate(-80.91)"/><rect class="b" x="81.49" y="112.98" width="20.59" height="2.88" transform="translate(-35.71 186.96) rotate(-80.9)"/><rect class="b" x="112.3" y="60.34" width="60.26" height="2.88"/><rect class="b" x="119.56" y="82.13" width="53" height="2.88"/><rect class="b" x="125.37" y="101.73" width="47.19" height="2.88"/></g><polygon class="b" points="64.33 124.91 22.87 124.91 22.87 122.04 61.45 122.04 61.45 60.02 27.09 60.02 27.09 57.14 64.33 57.14 64.33 124.91"/><polygon class="b" points="182.38 165.66 179.5 165.66 179.5 134.03 55.83 134.03 55.83 165.66 52.96 165.66 52.96 131.15 182.38 131.15 182.38 165.66"/><g><rect class="b" x="28.68" y="167.91" width="68.54" height="2.88" transform="translate(-105.67 104.46) rotate(-48.56)"/><rect class="b" x="173.63" y="135.08" width="2.88" height="68.53" transform="translate(-68.25 158.15) rotate(-41.41)"/><g><rect class="b" x="71.84" y="167.91" width="54.67" height="2.87" transform="translate(-93.81 205) rotate(-70.11)"/><rect class="b" x="129.71" y="142.01" width="2.87" height="54.67" transform="translate(-49.84 54.8) rotate(-19.91)"/></g><g><polygon class="b" points="64.14 196.67 61.75 195.07 75.93 173.84 78.33 175.44 64.14 196.67"/><rect class="b" x="78.91" y="162.01" width="11.4" height="2.88" transform="translate(-98.33 143.2) rotate(-56.32)"/><rect class="b" x="88.56" y="151.18" width="6.58" height="2.88" transform="translate(-86.08 144.38) rotate(-56.31)"/><rect class="b" x="94.64" y="144.62" width="3.19" height="2.88" transform="translate(-78.68 144.8) rotate(-56.21)"/></g><g><rect class="b" x="163.77" y="172.49" width="2.88" height="25.54" transform="translate(-75.08 123.01) rotate(-33.75)"/><rect class="b" x="149.19" y="157.75" width="2.88" height="11.4" transform="translate(-65.43 111.27) rotate(-33.76)"/><rect class="b" x="141.95" y="149.33" width="2.88" height="6.58" transform="translate(-60.63 105.41) rotate(-33.76)"/><rect class="b" x="137.57" y="144.47" width="2.88" height="3.19" transform="translate(-57.72 101.87) rotate(-33.76)"/></g></g><rect class="b" x="1.19" y="79.38" width="60.4" height="2.88"/><rect class="b" x="27.07" y="116.77" width="34.51" height="2.88"/><polygon class="b" points="75.97 125.4 73.09 125.4 73.09 32.65 41.45 9.06 41.45 59.25 38.58 59.25 38.58 3.33 75.97 31.2 75.97 125.4"/><rect class="b" x="15.57" y="7.48" width="23.01" height="2.88"/></svg>