<?xml version="1.0" standalone="no"?>
<!DOCTYPE svg PUBLIC "-//W3C//DTD SVG 1.1//EN" "http://www.w3.org/Graphics/SVG/1.1/DTD/svg11.dtd" >
<svg xmlns="http://www.w3.org/2000/svg" xmlns:xlink="http://www.w3.org/1999/xlink" version="1.1">
<metadata>
Created by FontForge 20201107 at Tue Aug 31 19:48:48 2021
 By Jimmy Wärting
Balinest (c) Penatic Studio 2021. All Rights Reserved
</metadata>
<defs>
<font id="BalinestRegular" horiz-adv-x="647" >
  <font-face 
    font-family="Balinest"
    font-weight="400"
    font-stretch="normal"
    units-per-em="1000"
    panose-1="0 0 0 0 0 0 0 0 0 0"
    ascent="800"
    descent="-200"
    x-height="385.714"
    cap-height="666.668"
    bbox="-288.521 -205.605 996.745 800.01"
    underline-thickness="0"
    underline-position="0"
    unicode-range="U+000A-FB06"
  />
<missing-glyph horiz-adv-x="527" 
d="M50 700h427v-700h-427v700zM78 680l185 -309l186 309h-371zM251 350l-180 300v-601zM264 329l-185 -308h370zM276 350l181 -303v605z" />
    <glyph glyph-name="TT.liga" unicode="TT" horiz-adv-x="667" 
d="M354.028 661.629l-46.7891 0.00195312c-20.333 -3.74316 -36 -21.7715 -36 -43.0957v-570.401c0 -24.1338 19.6758 -43.8096 43.8096 -43.8096h0.847656v-4.32422h-132.705v4.32422h0.828125c24.1338 0 43.8096 19.6758 43.8096 43.8096v570.4
c0 21.4385 -15.6475 39.3721 -35.9619 43.0957h-127.924l-65.8477 -72.5527l13.0664 77.5713h645.02l13.0664 -77.5713l-65.8477 72.5527h-134.01c-20.333 -3.74316 -35.9902 -21.7715 -35.9902 -43.0957v-570.401c0 -24.1338 19.6758 -43.8096 43.7998 -43.8096h0.847656
v-4.32422h-132.705v4.32422h0.837891c24.124 0 43.7998 19.6758 43.7998 43.8096v570.4c0 21.4385 -15.6475 39.3721 -35.9521 43.0957z" />
    <glyph glyph-name="TU.liga" unicode="TU" horiz-adv-x="870" 
d="M806.886 237.6l0.00292969 388.733c0 19.4385 -15.8574 35.2959 -35.2959 35.2959h-3.22852v5.03809h82.0859v-5.02832h-3.24805c-19.4385 0 -35.2959 -15.8574 -35.2959 -35.2861v-388.752c0 -135.048 -69.2861 -237.553 -205.505 -237.601
c-151.609 0 -234.267 115.01 -234.267 260.571v290.828c0 24.1338 -19.7051 43.8096 -43.8008 43.8096h-0.837891v4.32422h132.705v-4.32422h-0.847656c-24.0957 0 -43.8008 -19.6758 -43.8008 -43.8096v-289.914c0 -137.553 32.6572 -256.524 190.848 -256.496
c133.447 0.0380859 200.485 100.438 200.485 232.61zM575.518 661.628c-44.667 0 -223.608 0.000976562 -268.275 0.000976562c-20.333 -3.74316 -36 -21.7715 -36 -43.0957v-570.401c0 -24.1338 19.6758 -43.8096 43.8096 -43.8096h0.847656v-4.32422h-132.705v4.32422
h0.828125c24.1338 0 43.8096 19.6758 43.8096 43.8096v570.4c0 21.4385 -15.6475 39.3721 -35.9619 43.0957h-127.924l-65.8477 -72.5527l13.0664 77.5713h617.134l13.0664 -77.5713z" />
    <glyph glyph-name="EF.liga" unicode="EF" horiz-adv-x="817" 
d="M146.886 661.638c-20.333 -3.74316 -35.9893 -21.7812 -35.9893 -43.1055v-570.4c0 -21.4385 15.5332 -39.3721 35.9238 -43.0957h150.866l99.4189 72.5527l-29.8379 -77.5713h-344.41v4.32422h0.828125c24.1143 0 43.8096 19.6758 43.8096 43.7998v570.391
c0 24.1338 -19.8193 43.8096 -43.8096 43.8096h-0.828125v4.32422h225.98h118.429l29.8379 -77.5811l-99.4189 72.5527h-150.8zM279.41 335.847l372.363 -0.0205078c18.5146 0 33.6104 15.0957 33.6104 33.6104v1.34277h5.02832v-74.9238h-5.02832v1.34277
c0 18.5146 -15.1426 33.6006 -33.6094 33.6006h-151.353v-282.667c0 -24.1338 19.6758 -43.8096 43.7998 -43.8096h0.847656v-4.32422h-132.705v4.32422h0.837891c24.124 0 43.7998 19.6758 43.7998 43.8096v282.686h-182.21
c-18.4766 0 -33.6104 -15.0859 -33.6104 -33.6094v-1.33301h-5.01953v74.9141h5.01855v-1.33301c0 -18.5234 15.0957 -33.6094 33.6104 -33.6094h4.61914zM457.002 340.884l-0.000976562 277.647c0 24.1338 -19.8193 43.8096 -43.7998 43.8096h-0.837891v4.32422h293.114
h84.8574l29.8574 -77.5811l-99.4189 72.5527h-184.362c-20.333 -3.7334 -35.9902 -21.7617 -35.9902 -43.0859v-277.667h-43.4189z" />
    <glyph glyph-name="EH.liga" unicode="EH" horiz-adv-x="991" 
d="M880.276 48.1338v570.4c0 24.1338 -19.8193 43.8096 -43.7998 43.8096h-0.837891v4.32422h132.715v-4.32422h-0.847656c-23.9902 0 -43.8096 -19.8193 -43.8096 -43.8096v-570.4c0 -24.1338 19.6758 -43.8096 43.8096 -43.8096h0.847656v-4.32422h-132.715v4.32422
h0.837891c24.124 0 43.7998 19.6758 43.7998 43.8096zM513.286 343.172h-43.4111v275.362c0 24.1338 -19.8281 43.8096 -43.8086 43.8096h-0.828125v4.32422h132.705v-4.32422h-0.847656c-23.9814 0 -43.8096 -19.8193 -43.8096 -43.8096v-275.362zM146.913 661.639
c-20.3242 -3.74316 -35.9902 -21.7812 -35.9902 -43.1055v-570.4c0 -21.4385 15.5332 -39.3721 35.9238 -43.0957h167.638l99.4287 72.5527l-29.8574 -77.5713h-361.199v4.32422h0.828125c24.1338 0 43.8096 19.6758 43.8096 43.7998v570.391
c0 24.1338 -19.8193 43.8096 -43.8096 43.8096h-0.828125v4.32422h242.771h118.429l29.8574 -77.5811l-99.4287 72.5527h-167.571zM245.724 338.134h618.276v-5.02832h-350.695v-284.972c0 -24.1338 19.6758 -43.8096 43.8096 -43.8096h0.847656v-4.32422h-132.715v4.32422
h0.837891c24.1338 0 43.8008 19.6758 43.8008 43.8096v284.972h-224.162c-18.4854 0 -33.6094 -15.0957 -33.6094 -33.6104v-1.33301h-5.02832v74.9141h5.02832v-1.33301c0 -18.5234 15.0859 -33.6094 33.6094 -33.6094z" />
    <glyph glyph-name="SS.liga" unicode="SS" horiz-adv-x="803" 
d="M339.924 545.477c7.37109 -83.3145 132.401 -117.325 196.811 -142.592c40.8379 -16.0186 90.3047 -33.7041 133.896 -59.0283c65.0381 -37.7715 129.076 -106.2 117.019 -187.038c-19.0283 -127.419 -174.914 -199.952 -338.429 -201.733
c-150.181 -1.62891 -312.942 22.4951 -408.133 39.7617l29.3145 52.7139c90.2666 -47.4473 239.8 -81.4277 377.562 -84.9893c282.581 -7.27637 409.886 210.209 202.457 317.267c-100.515 51.8662 -240.457 89.6279 -309.104 155.219
c-49.6191 47.4092 -49.4854 99.6191 -13.752 144.438c5.33301 6.65723 10.9141 12.5996 17.1426 18.457c25.5332 23.5996 56.3809 40.4277 89.0947 51.7324c36.4473 12.5908 75.9326 18.3721 113.666 16.7725l166.724 -7.11426l-25.3711 -58.9141
c-78.9619 40.0859 -172.515 65.6953 -252.781 43.9053c-44.1523 -11.9814 -99.8857 -46.5146 -96.1143 -98.8574zM396.936 645.295c-13.5146 -6.59082 -27.1084 -14.6367 -39.832 -24.0176c-42.9043 19.8281 -120.876 49.3047 -212.962 21.8662
c-56.7236 -16.9043 -103.628 -58.457 -91.1328 -109.343c17.1338 -69.7812 103.172 -94.9053 194.943 -130.915c99.5615 -39.0576 252.495 -94.2676 254.714 -220.782c0.59082 -33.9814 -14.0469 -85.6006 -48.0947 -118.524
c-55.8096 -53.9902 -124.515 -63.6953 -210.19 -64.4004c70.0098 4.66699 155.01 14.9531 203.601 71.3057c27.7715 32.2002 33.1045 78.9619 24.7803 105.523c-38.5234 122.896 -314.313 157.8 -420.256 259.048c-81.6289 77.9902 -22.9912 160.657 60.0566 201.2
c90.1719 44 207.819 31.3242 290.144 11.7812c-1.92383 -0.904297 -3.86621 -1.7998 -5.77051 -2.74219z" />
    <glyph glyph-name="YT.liga" unicode="YT" horiz-adv-x="766" 
d="M398.647 569.429l-124.352 -225.276v-295.972c0 -24.1338 19.6758 -43.8096 43.8096 -43.8096h0.847656v-4.32422h-133.98v4.32422h0.828125c24.1338 0 43.8096 19.6758 43.8096 43.8096v272.686l-196.447 322.01c-7.56152 12.3906 -20.5137 18.8193 -35.0186 18.8193
h-4.80957v5.01953h114.79v-5.01953h-2.17188c-5.08594 0 -9.43848 -2.61914 -11.8574 -7.10449s-2.00977 -9.45703 0.637695 -13.7998l176.523 -292.058l122.419 222.21c2.11426 3.86621 2.47656 8.12305 0.342773 11.9805
c-2.12402 3.86621 -5.92383 6.09473 -10.333 6.09473h-2.57129v5.02832h54v-5.02832h-0.933594c-14.8281 0 -28.3711 -6.59961 -35.5332 -19.5898zM702.172 661.695c-44.667 0 -89.3428 0.000976562 -134.01 0.000976562
c-20.3242 -3.74316 -35.9912 -21.7715 -35.9912 -43.0957v-570.41c0 -24.124 19.6758 -43.7998 43.8096 -43.7998h0.847656v-4.32422h-132.715v4.32422h0.837891c24.1338 0 43.8008 19.6758 43.8008 43.7998v570.4c0 21.4385 -15.6377 39.3623 -35.9521 43.0859h-127.924
l-65.8477 -72.5527l13.0664 77.5908h482.877l13.0664 -77.5811z" />
    <glyph glyph-name="TI.liga" unicode="TI" horiz-adv-x="583" 
d="M557.457 0.0478516h-132.705v4.32422h0.828125c24.0957 0 43.8096 19.7139 43.8096 43.8096v469.705c0 24.1338 -19.6758 43.8096 -43.8096 43.8096h-0.828125v4.32422h132.705v-4.32422h-0.847656c-24.1338 0 -43.8096 -19.6758 -43.8096 -43.8096v-469.705
c0 -24.1338 19.7139 -43.8096 43.8096 -43.8096h0.847656v-4.32422zM491.609 661.695c-44.6855 0 -139.703 0.000976562 -184.37 0.000976562c-20.333 -3.74316 -36 -21.7715 -36 -43.0957v-570.41c0 -24.124 19.6758 -43.7998 43.8096 -43.7998h0.847656v-4.32422h-132.705
v4.32422h0.828125c24.1338 0 43.8096 19.6758 43.8096 43.7998v570.4c0 21.4385 -15.6475 39.3623 -35.9619 43.0859h-127.924l-65.8477 -72.5527l13.0664 77.5908h533.229l13.0664 -77.5811z" />
    <glyph glyph-name="OO.liga" unicode="OO" horiz-adv-x="858" 
d="M460.989 620.838c255.019 75.2764 476.42 -274.572 326.858 -501.544c-25.7812 -39.124 -56.5146 -67.8379 -98.5146 -89.6475c-79.4854 -41.333 -159.866 -36.333 -228.848 -2.39941c-265.124 -127.714 -535.248 225.896 -402.905 484.495
c36.1523 70.7236 95.0566 121.247 170.171 143.438c82.2383 24.2764 161.124 6.62891 226.581 -36.3994c2.18066 0.705078 4.41895 1.39062 6.65723 2.05762zM698.028 43.7227c34.0381 19.4668 58.4092 43.7412 79.457 78.4082
c31.4092 51.7236 34.6475 100.552 21.3428 167.199c-26.0381 130.371 -184.286 344.323 -332.648 321.295c141.02 -101.838 213.153 -322.876 106.486 -484.742c-19.124 -29.0186 -40.8193 -52.6182 -67.4189 -72.0654c60.6094 -36.2285 128.114 -47.1328 192.781 -10.0947z
M299.742 484.883c23.0098 45.0098 55.7334 81.3887 96.2949 106.798c-58.2568 44.0762 -123.323 67.1523 -185.552 47.3428c-62.4668 -19.8662 -114.695 -70.9326 -140.686 -131.466c-20.0957 -46.79 -18.3818 -92.7041 -6.84863 -150.39
c30.9814 -155.104 213.763 -388.695 386.648 -324.333c-144.857 79 -234.762 286.172 -149.857 452.048zM497.532 58.5859c26.0381 18.3525 46.2559 40.7354 64.1982 70.2881c33.1338 54.5713 36.5625 106.114 22.5146 176.447
c-17.3711 86.9521 -90.4854 209.143 -181.476 281.152c-40.2568 -24.2285 -72.876 -62.3242 -91.4287 -105.496c-19.0381 -44.3428 -17.4189 -87.8379 -6.48535 -142.505c18.7715 -93.9814 96.3525 -218.334 192.677 -279.887z" />
    <glyph glyph-name="LL.liga" unicode="LL" horiz-adv-x="480" 
d="M302.924 156.02h94.1807l80.3047 53.4385l-18.3711 -58.4766h-280.162v4.32422h0.837891c23.9424 0 43.7998 19.6758 43.7998 43.7998v419.371c0 24.124 -19.6758 43.7998 -43.7998 43.7998h-0.837891v4.32422h132.705v-4.32422h-0.847656
c-24.124 0 -43.7998 -19.6758 -43.7998 -43.7998v-419.371c0 -21.3242 15.6572 -39.3428 35.9902 -43.0859zM146.904 4.96191h184.353l99.4287 72.5527l-29.8379 -77.5811h-84.876h-293.114v4.32422h0.828125c23.9902 0 43.8096 19.6758 43.8096 43.8096v570.409
c0 24.124 -19.6758 43.7998 -43.8096 43.7998h-0.828125v4.32422h132.705v-4.34277h-0.847656c-24.1338 0 -43.8008 -19.6758 -43.8008 -43.7998v-570.41c0 -21.3242 15.6572 -39.3525 35.9902 -43.0859z" />
    <glyph glyph-name="LA.liga" unicode="LA" horiz-adv-x="676" 
d="M457.238 666.714l21.2295 0.00292969l30.2002 -72.1426l126.848 -301.19l0.0185547 -0.0380859c122.429 -285.2 -241.952 -293.276 -429.742 -293.276h-183.886v4.32422h0.828125c23.9902 0 43.8096 19.6758 43.8096 43.7998v570.4
c0 24.124 -19.6758 43.7998 -43.8096 43.7998h-0.828125v4.32422h132.705v-4.32422h-0.847656c-24.1338 0 -43.8008 -19.6758 -43.8008 -43.7998v-570.41c0 -21.3242 15.6572 -39.3525 35.9902 -43.0957h48.2383c170.114 0 504.838 31.9805 396.114 281.6l-127.581 305.257
c-2.44727 5.85742 -7.93262 9.41895 -14.2754 9.30469c-6.35254 -0.114258 -11.6855 -3.92383 -13.8857 -9.85742l-95.1143 -255.477h210.98v-5.02832h-212.857l-2.05762 -5.5332l-59.8574 -160.781c-2.78125 -7.45703 -1.81934 -15.1045 2.72363 -21.6475
c4.5332 -6.5332 11.3711 -10.124 19.333 -10.124h3.5332v-5.01953h-82.0762v5.01855h1.95215c22.8955 0 42.3906 13.543 50.3721 35l59.3047 159.305l1.40039 3.78125h-50.248v5.02832h52.124l110.99 298.152z" />
    <glyph glyph-name="LE.liga" unicode="LE" horiz-adv-x="527" 
d="M299.333 661.562c-20.333 -3.7334 -35.9893 -21.8018 -35.9893 -43.0879v-198.79h109.143c18.5234 0 33.6094 15.0957 33.6094 33.6104v1.34277h5.02832v-74.9238h-5.02832v1.34277c0 18.5146 -15.1338 33.6104 -33.6104 33.6104h-109.143v-198.771
c0 -21.4385 15.5332 -39.3525 35.9238 -43.0859h117.286l91.2666 61.8477l-21.6953 -66.876h-310.848v4.32422h0.828125c24.1338 0 43.8096 19.6758 43.8096 43.8096v402.562c0 24.124 -19.8379 43.7998 -43.8096 43.7998h-0.828125v4.32422h310.848l21.1807 -63.8193
l-90.7617 58.7812h-117.21zM146.905 4.95996h234.705l99.4287 72.5527l-29.8477 -77.5811h-84.8662h-343.467v4.32422h0.828125c23.9902 0 43.8096 19.6758 43.8096 43.8096v570.409c0 24.124 -19.6758 43.7998 -43.8096 43.7998h-0.828125v4.32422h132.705v-4.34277
h-0.847656c-24.1338 0 -43.8008 -19.6758 -43.8008 -43.7998v-570.41c0 -21.3242 15.6572 -39.3525 35.9902 -43.0859z" />
    <glyph glyph-name="LM.liga" unicode="LM" horiz-adv-x="861" 
d="M301.553 661.695l-15.4375 -0.00195312l28.0957 -67.1045l223.914 -535.038l68.7334 184.638l143.324 385l-0.00976562 0.0478516l12.1045 32.457h-30.0859v5.01953h82.0762v-5.01855h-19.333v-613.515c0 -24.1338 19.6758 -43.8096 43.8096 -43.8096h0.828125v-4.32422
h-132.705v4.32422h0.847656c24.1143 0 43.8096 19.6758 43.8096 43.8096v570.238l-139.972 -375.981l-70.5908 -189.638l-19.6289 -52.7334h-5.35254l-274 654.629v-496.962c0 -19.4092 15.8662 -35.2852 35.2949 -35.2852h3.24805v-5.02832h-82.0859v5.02832h3.22852
c19.4385 0 35.2959 15.8574 35.2959 35.2861v503.962h-17.5049v5.01953h82.0957v-5.01953zM146.905 4.95996h170.277l99.4287 72.5527l-29.8574 -77.5811h-84.8574h-279.038v4.32422h0.828125c23.9902 0 43.8096 19.6758 43.8096 43.8096v570.409
c0 24.124 -19.6758 43.7998 -43.8096 43.7998h-0.828125v4.32422h132.705v-4.34277h-0.847656c-24.1338 0 -43.8008 -19.6758 -43.8008 -43.7998v-570.41c0 -21.3242 15.6572 -39.3525 35.9902 -43.0859z" />
    <glyph glyph-name="LN.liga" unicode="LN" horiz-adv-x="752" 
d="M244.934 666.714l51.9521 -0.000976562l91.4951 -139.114l295.028 -448.553v547.333c0 19.4385 -15.8662 35.2959 -35.2949 35.2959h-3.24805v5.03809h82.0859v-5.01953h-3.24805c-19.4287 0 -35.2861 -15.8662 -35.2861 -35.2949v-626.467h-5.02832v0.133789
l-433.429 659v-568.467c0 -19.4189 15.8574 -35.2949 35.2959 -35.2949h3.23828v-5.03809h-82.0762v5.03809h3.22852c19.4287 0 35.2861 15.8574 35.2861 35.2959v576.114zM146.904 4.96094l184.352 -0.0185547l99.4287 72.5527l-29.8379 -77.5811h-84.876h-293.114v4.32422
h0.828125c23.9902 0 43.8096 19.6953 43.8096 43.8096v570.409c0 24.124 -19.6953 43.7998 -43.8096 43.7998h-0.828125v4.32422h132.705v-4.32422h-0.847656c-24.1143 0 -43.7998 -19.6758 -43.7998 -43.7998v-570.41c0 -21.3242 15.6572 -39.3525 35.9902 -43.0859z" />
    <glyph glyph-name="LX.liga" unicode="LX" horiz-adv-x="684" 
d="M145.952 5.08594l184.353 -0.00878906l99.4287 72.5527l-29.8379 -77.5811h-84.876h-293.114v4.32422h0.828125c23.9902 0 43.8096 19.6758 43.8096 43.8096v570.409c0 24.124 -19.6758 43.7998 -43.8096 43.7998h-0.828125v4.32422h132.705v-4.32422h-0.847656
c-24.1338 0 -43.8008 -19.6758 -43.8008 -43.7998v-570.41c0 -21.3242 15.6572 -39.3525 35.9902 -43.0957zM577.856 0.0673828l0.000976562 5.01855h5.87598c4.16211 0 7.74316 2.28613 9.70508 6.21973c1.97168 3.93359 1.78125 8.37207 -0.523438 12.0957
l-169.695 274.267l-130.076 -221.104c-1.87598 -3.19043 -1.99023 -6.96191 -0.276367 -10.2764c1.71387 -3.30469 4.74219 -5.23828 8.26562 -5.23828h1.7334v-5.01953h-46.4287v5.01953h2.98047c12.2002 0 22.7148 6.19043 29.2002 17.248l131.762 223.942
l-210.752 340.638c-7.49512 12.1045 -19.1523 18.8184 -32.7139 18.8184h-4.50488v5.01953h107.275v-5.01953h-2.03809c-4.75195 0 -8.84766 -2.61914 -11.0957 -7.10449c-2.25684 -4.48535 -2.02832 -9.56152 0.581055 -13.7998l82.4473 -133.295l98.1807 -158.762
l173.724 294.866c2.2002 3.7334 2.31445 8.12402 0.324219 11.9717c-1.99023 3.86621 -5.5332 6.10449 -9.65723 6.10449h-2.41895v5.03809h50.4473v-5.01953h-0.875977c-13.8662 0 -25.7998 -7.03809 -33.2002 -19.5996l-175.485 -297.942l167.02 -270.028
l30.5908 -49.4766c7.78125 -12.5908 19.915 -19.5625 34.0293 -19.5625h2.87598v-5.01855h-107.276z" />
    <glyph glyph-name="RS.liga" unicode="RS" horiz-adv-x="998" 
d="M736.353 666.714c84.4385 0 148.219 -37.2471 182.104 -50.5615v-83.5332c-83.7812 75.1621 -159.629 115.819 -235.152 118.857c-77.8193 3.11426 -169.515 -48.5811 -152.61 -117.391c17.1338 -69.79 103.182 -111.676 194.953 -147.694
c99.5713 -39.0576 252.485 -94.2676 254.704 -220.772c0.609375 -33.9902 -14.0479 -68.8184 -48.0957 -101.742c-29.6758 -28.7051 -66.9707 -48.1621 -112.438 -57.6094c-344.429 -71.6289 -396.267 325.99 -690.591 325.99h-18.3135v-284.048
c0.324219 -24.1904 19.3818 -43.7998 43.8008 -43.7998h0.847656v-4.32422h-132.705v4.32422h0.828125c24.1338 0 43.8096 19.6758 43.8096 43.7998v570.381c-0.294922 24.3711 -19.333 43.5049 -43.8096 43.7998h-0.828125v4.32422h132.705h148.4
c160.695 -11.5049 180.924 -279.724 27.0576 -322.495c-19.0098 -4.54297 -28.3047 -5.02832 -58.4951 -5.02832h-114.19c205.104 0 483.285 -342.324 659.381 -323.867c40.5908 4.25684 83.4287 26.1328 107.972 55.4189c27.3145 32.6289 33.1045 62.1904 24.7803 88.752
c-38.5234 122.904 -314.295 157.8 -420.257 259.048c-81.6289 78.0098 -23.0098 177.429 60.0566 217.972c44.2949 21.6377 97.0566 30.1992 146.085 30.1992zM149.18 662.048c-22.1523 -2.84766 -37.9619 -21.6953 -38.2568 -43.457v-274.371h33.0098h116.571
c184.457 0 179.762 317.828 0 317.828h-111.324z" />
    <glyph glyph-name="KS.liga" unicode="KS" horiz-adv-x="964" 
d="M413.02 654.79l-301.848 -310.292c16.7715 -0.0195312 34.543 -0.885742 50.2949 -2.44727c200.79 -19.9521 452.257 -344.581 622.647 -326.743c40.5811 4.25684 83.4385 26.1328 107.981 55.4189c27.3047 32.6191 33.0947 62.1904 24.7803 88.752
c-38.5234 122.904 -314.313 157.8 -420.256 259.057c-81.6289 77.9814 -23.0098 177.429 60.0479 217.972c44.3145 21.6475 97.0664 30.209 146.086 30.209c84.4473 0 148.209 -37.248 182.095 -50.5625v-83.5332c-83.7812 75.1621 -159.639 115.819 -235.153 118.857
c-77.8193 3.11426 -169.515 -48.5811 -152.61 -117.391c17.1338 -69.7715 103.182 -111.686 194.953 -147.695c99.5527 -39.0576 252.486 -94.2676 254.705 -220.772c0.59082 -33.9902 -14.0381 -68.8184 -48.0957 -101.742
c-29.6572 -28.7051 -66.9902 -48.1621 -112.438 -57.6094c-344.429 -71.6094 -379.495 325.99 -673.8 325.99h-1.5332v-284.048c0 -24.124 19.6953 -43.7998 43.8096 -43.7998h0.847656v-4.32422h-132.676v4.32422h0.828125c24.1338 0 43.8096 19.6758 43.8096 43.7998
v570.381c0 24.124 -19.6758 43.7998 -43.8096 43.7998h-0.828125v4.32422h132.705v-4.32422h-0.847656c-24.1338 0 -43.8008 -19.6758 -43.8008 -43.7998v-267.257l296.086 304.533c0.97168 0.990234 1.2666 2.40918 0.733398 3.7041
c-0.542969 1.28613 -1.75293 2.10547 -3.15332 2.10547h-19.1045v5.03809h61.4561l-16.79 -5.01953h-0.485352c-6.45703 0 -12.1426 -2.27637 -16.6377 -6.90527z" />
    <glyph glyph-name="KA.liga" unicode="KA" horiz-adv-x="777" 
d="M109.962 344.134c80.1904 -3.89551 99.9658 -78.4727 144.433 -140.092c23.7236 -32.876 52.4756 -73.9424 80.5518 -106.704c158.553 -184.876 459.419 -40.9141 359.114 189.372l-127.591 305.257c-2.44727 5.85742 -7.92383 9.41016 -14.2764 9.2959
c-6.34277 -0.114258 -11.6758 -3.91406 -13.876 -9.84766l-95.124 -255.485h210.99v-5.01953h-212.866l-2.05762 -5.5332l-59.8574 -160.781c-2.77148 -7.45703 -1.80957 -15.1143 2.72363 -21.6572c4.5332 -6.52344 11.3711 -10.1143 19.333 -10.1143h3.54297v-5.01953
h-82.0859v5.01855h1.98047c22.8857 0 42.3809 13.543 50.3613 35l59.3047 159.295l1.40039 3.79004h-50.248v5.01855h52.124l110.99 298.162l12.1719 32.6289h21.2285l30.2002 -72.1426l126.848 -301.19l0.0195312 -0.0380859
c107.647 -250.781 -235.867 -399.029 -408.353 -196.705c-28.5146 33.457 -54.915 68.8096 -80.6104 104.447c-49.3047 68.3047 -81.3809 90.1709 -140.409 82.9707v-235.896c0.152344 -11.2764 4.37109 -21.5713 11.3047 -29.333l0.104492 -0.0957031
l0.00976562 -0.0380859c7.08594 -7.76172 16.9053 -13 27.915 -14.124l1.06641 -0.104492h0.0283203l1.0957 -0.0576172h0.0283203l1.11426 -0.0576172h0.0185547l1.12402 -0.00976562h0.847656v-4.32422h-132.676v4.32422h0.828125
c24.1143 0 43.8096 19.6758 43.8096 43.7998v570.447c0 24.124 -19.6758 43.7998 -43.8096 43.7998h-0.828125v4.32422h132.705v-4.32422h-0.847656c-24.1338 0 -43.8008 -19.6758 -43.8008 -43.7998v-267.257l279.305 304.533
c0.952148 1.02832 1.27637 2.40918 0.743164 3.7041c-0.542969 1.28613 -1.75293 2.10547 -3.15332 2.10547h-19.1045v5.03809h61.4561v-5.01953h-17.2764c-6.45703 0 -12.2666 -2.14258 -16.6377 -6.9043l-285.333 -310.571v-0.0859375z" />
    <glyph glyph-name="RA.liga" unicode="RA" horiz-adv-x="827" 
d="M611.381 666.714l21.2295 0.00195312l30.2002 -72.1426l126.848 -301.19l0.0185547 -0.0380859c107.647 -250.781 -235.867 -399.029 -408.353 -196.705c-28.5146 33.457 -54.915 68.8096 -80.6104 104.447c-52.6377 72.9141 -99.6191 121.219 -157.753 121.305h-33
v-274.229c0.324219 -24.1904 19.3818 -43.8096 43.8008 -43.8096h0.847656v-4.32422h-132.705v4.32422h0.828125c24.1143 0 43.8096 19.6758 43.8096 43.8096v570.429c-0.294922 24.3711 -19.333 43.5049 -43.8096 43.7998h-0.828125v4.32422h132.705h148.4
c160.695 -11.5049 180.924 -279.724 27.0576 -322.495c-19.0098 -4.54297 -28.3047 -5.02832 -58.4951 -5.02832h-99.9619c47.7236 -16.752 88.4473 -73.1709 133.181 -135.152c23.7236 -32.876 37.8193 -54.0664 65.5713 -87.124
c166.523 -198.343 474.39 -60.4951 374.104 169.771l-127.581 305.257c-2.44727 5.85742 -7.95215 9.41895 -14.2764 9.30469c-6.35254 -0.114258 -11.6855 -3.92383 -13.8857 -9.85742l-95.1045 -255.477h210.99v-5.02832h-212.866l-2.04785 -5.5332l-59.8662 -160.781
c-2.77148 -7.45703 -1.80957 -15.1045 2.72363 -21.6475c4.54297 -6.5332 11.3711 -10.124 19.333 -10.124h3.54297v-5.01953h-82.0762v5.01855h1.95215c22.8955 0 42.3906 13.543 50.3623 35l59.3047 159.305l1.40918 3.78125h-50.2568v5.02832h52.1338l110.99 298.152z
M148.22 662.049c-22.1621 -2.84766 -37.9805 -21.6953 -38.2568 -43.457v-274.371h33h116.571c184.457 0 179.762 317.828 0 317.828h-111.314z" />
    <glyph glyph-name="CH.liga" unicode="CH" horiz-adv-x="893" 
d="M382.437 467.543l-0.000976562 -129.344h400.562v280.391c0 24.124 -19.8193 43.7998 -43.7998 43.7998h-0.837891v4.32422h132.705v-4.32422h-0.847656c-23.9805 0 -43.7998 -19.8193 -43.7998 -43.7998v-570.409c0 -24.1338 19.6758 -43.8096 43.7998 -43.8096
h0.847656v-4.32422h-132.705v4.32422h0.837891c24.124 0 43.7998 19.6758 43.7998 43.8096v284.972h-400.562v-133.934c0 -24.124 19.6758 -43.7998 43.7998 -43.7998h0.847656v-4.32422h-132.705v4.32422h0.828125c24.1338 0 43.8096 19.6953 43.8096 43.7998v268.324
c0 24.124 -19.9043 43.7998 -43.8086 43.7998h-0.828125v4.32422h132.705v-4.32422h-0.847656c-23.9521 0 -43.7998 -19.8477 -43.7998 -43.7998zM494.531 46.2373c35.9141 20.5527 61.6309 46.1709 83.8594 82.7617c19.0098 31.2949 28.248 61.6094 30.0098 95.0186h23.248
c-8.20996 -34.2285 -22.1055 -67.3428 -42.3242 -98.0186c-27.21 -41.3047 -59.6484 -71.5908 -103.973 -94.6289c-83.3906 -43.3428 -184.591 -42.2383 -273.495 6.7041c-160.942 88.6758 -239.076 308.343 -154.419 473.762
c36.1523 70.7236 95.0479 121.247 170.162 143.457c72.1338 21.2764 152.172 13.0381 224.172 -26.6094c55.2764 -30.457 100.781 -76.3711 133.267 -130.229h-77.1719c-24.8857 31.3242 -52.3525 58.2002 -79.8672 78.3809
c-64.7812 47.543 -136.096 88.2764 -217.639 62.3242c-62.4766 -19.876 -114.695 -70.9424 -140.686 -131.466c-20.1045 -46.79 -18.3906 -92.6855 -6.85742 -150.391c21.9424 -109.838 97.3047 -215.934 172.914 -271.391
c79.4385 -58.2764 167.114 -92.1807 258.8 -39.6758z" />
    <glyph glyph-name="jj.liga" unicode="jj" horiz-adv-x="300" 
d="M61.7812 113.743l-0.0205078 216.944c0 12.9717 -10.5811 23.5625 -23.5527 23.543l-21.0859 -0.0185547l88.0576 36.9902v-277.467h-0.0195312v-64.4951c0 -34.9141 -3.40918 -66.2285 -15.0566 -92.4951c-0.990234 -2.24805 -2.03809 -4.44824 -3.13379 -6.62012
c23.5146 -7.27637 48.1338 -8.7998 73.334 0.875977c55.457 21.2949 53.4668 103.752 53.4004 195.199v247.79c0 12.9717 -10.5811 23.5625 -23.5527 23.543l-21.0859 -0.0185547l88.0576 36.9902v-277.457h-0.0185547v-64.4951
c0 -34.9141 -3.40918 -66.2188 -15.0566 -92.4854c-11.0283 -24.8662 -27.9619 -45.209 -50.6572 -59.752c-8.87598 -5.67578 -18.6475 -10.4658 -29.2568 -14.2852c-25.0098 -8.99023 -53.543 -11.1426 -82.5049 -8.7998
c-10.3242 -16.1338 -23.7334 -29.6865 -40.1621 -40.21c-8.87598 -5.69531 -18.6475 -10.4951 -29.2568 -14.3145c-41.0283 -14.7617 -91.543 -11.0947 -137.829 0.638672v34.6855c40.5615 -25.8096 87.1904 -49.0576 136 -30.334
c55.457 21.2949 53.4668 103.752 53.4004 195.199v30.8477zM60.085 480.202l23.4092 44.3428l23.4189 -44.3428l-23.4189 -44.3428zM212.027 543.517l23.4092 44.3428l23.4189 -44.3428l-23.4189 -44.3428z" />
    <glyph glyph-name="fb.liga" unicode="fb" horiz-adv-x="646" 
d="M317.99 311.371c0 -50.6572 0.000976562 -101.325 0.000976562 -151.992c6.82812 -45.6953 42.79 -91.0957 85.5996 -120.467c24.7051 -16.9521 55.3242 -31.7139 85.8477 -28.4375c25.4189 2.72363 46.6953 17.5898 61.0098 43.9521
c19.5234 36.0098 19.5713 75.5908 19.5713 115.038v33.7432c0 74.3145 -18.4668 183.886 -112.8 184.134c-21.457 0.0576172 -45.7812 -7.73242 -70.877 -22.0566c-22.7051 -12.9424 -46 -31.2471 -68.3525 -53.9141zM317.953 461.522l0.0419922 -143.046
c21.5811 21.333 44 38.6953 65.876 51.1904c25.8281 14.7334 51 22.7617 73.333 22.6953c102.657 -0.294922 156.219 -84.7715 156.219 -188.848v-33.4287c0 -45.4668 -1.0957 -91.0195 -29.877 -129.687c-20.5049 -27.5615 -51.7148 -43.1045 -93.9717 -39.6094
c-32.1904 2.65723 -62.4854 15.9814 -88.9619 33.9814c-22.3711 15.1904 -42.8281 34.3906 -58.3809 55.2568c-3.52344 4.7334 -9.42773 6.60938 -15.0371 4.75195c-5.61914 -1.86621 -9.23828 -6.88574 -9.23828 -12.79v-19.0576
c0 -34.5234 -27.6855 -62.6572 -62.2852 -62.6572h-25.7617v4.32422h0.828125c24.1143 0 43.8096 19.6758 43.8096 43.8096v521.657c-35.21 19.6572 -74.1055 32.9238 -114.506 17.4092c-55.457 -21.2949 -53.4668 -103.752 -53.4004 -195.19h119.038l-4.12402 -5.02832
h-114.914v-338.828c0 -24.1338 19.6758 -43.8096 43.8096 -43.8096h0.847656v-4.32422h-132.705v4.32422h0.828125c24.1143 0 43.8096 19.6758 43.8096 43.8096v338.828h-47.0381v5.02832h47.0576v33.6377c0 34.9141 3.40918 66.2188 15.0566 92.4854
c11.0283 24.8857 27.9619 45.21 50.6572 59.7529c8.87598 5.67578 18.6475 10.4854 29.2471 14.2852c47.543 17.1045 108.028 9.21875 159.742 -7.0957v-123.828z" />
    <glyph glyph-name="fh.liga" unicode="fh" horiz-adv-x="671" 
d="M16.1904 392.286l47.041 0.00390625v33.6377c0 34.9141 3.40918 66.2188 15.0566 92.4854c11.0283 24.8857 27.9619 45.21 50.6572 59.7529c8.87598 5.67578 18.6475 10.4854 29.2471 14.2852c47.543 17.1045 108.028 9.21875 159.742 -7.0957v-293.553
c0 -4.66699 3.05762 -8.61914 7.55273 -9.79102c4.52344 -1.17188 9.10449 0.780273 11.3906 4.84668c12.0762 21.5527 27.6377 40.3906 45.1807 55.9434c29.4287 26.0664 67.9336 45.7334 107.477 49.0098c42.2568 3.50488 73.4668 -12.0566 93.9814 -39.6094
c28.7812 -38.6572 29.8672 -84.2188 29.8672 -129.695v-174.076c0 -24.1338 19.6758 -43.8096 43.8096 -43.8096h0.847656v-4.32422h-132.686v4.32422h0.828125c24.1338 0 43.8096 19.6758 43.8096 43.8096v174.686c0 39.4473 -0.0664062 79.0469 -19.5811 115.037
c-14.2285 26.2285 -35.3525 41.0762 -60.5908 43.9141c-37.3525 4.2002 -77.5811 -19.1807 -104.601 -43.1709c-33.6289 -29.8477 -59.7334 -72.0576 -67.2666 -122.477v-167.99c0 -24.1338 19.6758 -43.8096 43.8096 -43.8096h0.847656v-4.32422h-132.715v4.32422h0.837891
c24.1143 0 43.7998 19.6758 43.7998 43.8096v521.638c-35.1904 19.6572 -74.0947 32.9238 -114.495 17.4092c-55.457 -21.2949 -53.4668 -103.752 -53.4004 -195.19h119.038l-4.13379 -5.02832h-114.904v-338.828c0 -24.1338 19.6953 -43.8096 43.8096 -43.8096h0.847656
v-4.32422h-132.705v4.32422h0.828125c24.1143 0 43.8096 19.6758 43.8096 43.8096v338.828h-47.0381v5.02832z" />
    <glyph glyph-name="fk.liga" unicode="fk" horiz-adv-x="579" 
d="M16.1904 387.257l0.00195312 5.03027h47.0381v33.6377c0 34.9141 3.40918 66.2188 15.0566 92.4951c11.0283 24.876 27.9619 45.2002 50.6572 59.7432c8.87598 5.67578 18.6475 10.4854 29.2568 14.2852c47.543 17.1045 108.02 9.21875 159.733 -7.0957v-363.877
l159.962 159.952c0.990234 1 1.2666 2.41895 0.733398 3.70508c-0.542969 1.29492 -1.75293 2.10449 -3.13379 2.10449h-19.1045v5.02832h61.457v-5.02832h-17.2764c-6.47656 0 -12.0762 -2.31445 -16.6475 -6.89551l-137.629 -137.657l171.571 -206.238
c14.6289 -17.5713 31.0762 -31.1426 53.9336 -31.1426h2.42871v-5.02832h-132.686v5.02832h14.1621c17.9238 0 24.7998 14.5049 14.3525 27.1523l-151.238 182.762l-0.866211 -0.866211v-165.942c0 -24.1338 19.6758 -43.8096 43.8096 -43.8096h0.847656v-4.32422h-132.705
v4.32422h0.828125c24.1143 0 43.8096 19.6758 43.8096 43.8096v521.657c-35.1904 19.6572 -74.1045 32.9238 -114.505 17.4092c-55.457 -21.2949 -53.4668 -103.752 -53.4004 -195.19h119.038l-4.12402 -5.02832h-114.914v-338.828
c0 -24.1338 19.6758 -43.8096 43.8096 -43.8096h0.847656v-4.32422h-132.705v4.32422h0.828125c24.1143 0 43.8096 19.6758 43.8096 43.8096v338.828h-47.0381z" />
    <glyph glyph-name="gi.liga" unicode="gi" horiz-adv-x="561" 
d="M338.425 95.0957c-14.9238 -22.6572 -32.709 -39.2852 -57.0615 -51.9326c-45.7617 -23.7812 -101.285 -23.1816 -150.066 3.69434c-8.23828 4.5332 -26.4004 18.3525 -33.8193 24.0576c-104.048 -167.828 -58.1621 -168.656 64.2764 -93.123
c32.2285 19.876 141.143 89.0283 177.98 57.0186c32.8477 -28.5332 -24.876 -112.686 -85.0762 -133.066c-27.2666 -9.22852 -88.5146 -21.4189 -116.22 5.27637l31.3623 18.124c20.5234 -22.1426 58.3896 -27.6855 83.4941 -19.4287
c40.1426 13.2002 83.1611 66.5332 66.5518 86.5811c-26.7432 32.2764 -184.314 -74.8379 -221.172 -88.5615c-36.3623 -13.5332 -80.1055 -10 -77.6201 30.0859c1.70508 27.79 38.7246 81.9521 72.4199 140.267c-5.23828 5.23828 -1.66699 1.74316 -7.14355 7.45703
c-56.3525 58.5332 -77.4004 151.676 -39.7432 225.237c19.8379 38.8193 52.1523 66.5527 93.3711 78.7246c39.5713 11.6855 83.4951 7.14258 122.99 -14.6006l6.48535 -3.77148c5.3623 9.79004 9.84766 17.085 15.2002 26.875
c24.9141 45.4668 81.5137 118.952 212.323 82.3428l-31.0283 -63.5713c-64.9043 68.9805 -152.104 25.3047 -177.133 -21.8574c-4.89551 -9.23828 -10.0479 -17.1143 -15.1523 -26.4189c86.0283 -55.3906 123.057 -180.962 64.7803 -269.409zM117.087 97.4297
c6.88574 -6.61914 20.3154 -19.1709 27.3252 -24.3232c43.5996 -31.9619 91.7041 -50.5615 142.009 -21.7617c19.7236 11.2666 33.8379 25.333 46.0186 45.3994c18.2002 29.9521 20.0762 58.2285 12.3525 96.8193c-11.2568 56.3047 -48.0947 110.828 -86.7236 142.562z
M432.897 354.23l-21.0752 -0.0292969l88.0479 36.9814v-343.724c0 -24.1338 19.6758 -43.8096 43.8096 -43.8096h0.847656v-4.32422h-132.705v4.32422h0.828125c24.1143 0 43.8096 19.6758 43.8096 43.8096v283.229c0 12.9717 -10.5908 23.543 -23.5625 23.543z
M113.365 101.115l140.781 238.134l-4.21875 3.2002c-35.5332 26.0859 -74.6758 48.4385 -119.409 34.2002c-34.2861 -10.8955 -62.9336 -38.9336 -77.1904 -72.1338c-11.0283 -25.6572 -10.0859 -50.8477 -3.77148 -82.5049
c8.52344 -42.543 31.6191 -84.0664 59.0664 -115.505c3.6377 -4.16211 0.970703 -1.59082 4.74219 -5.39062z" />
    <glyph glyph-name="ri.liga" unicode="ri" horiz-adv-x="444" 
d="M316.876 355.181l-21.085 -0.0283203l88.0576 36.9805v-343.724c0 -24.1338 19.6758 -43.8096 43.8096 -43.8096h0.847656v-4.32422h-132.715v4.32422h0.837891c24.1143 0 43.7998 19.6758 43.7998 43.8096v283.229c0 12.9717 -10.5811 23.543 -23.5527 23.543z
M135.029 302.857c43.6094 63.6191 128.4 159.81 238.248 159.81l-18.9238 -57.7432c-92.8193 53.5996 -195.429 -68.3242 -228.314 -127.22c-11.5527 -20.6953 -19.8857 -44.1523 -19.8857 -75.7334v-153.562c0 -24.1338 19.667 -43.8096 43.8008 -43.8096h0.847656
v-4.32422h-132.705v4.32422h0.828125c24.1143 0 43.8096 19.6758 43.8096 43.8096v283.21c0 12.9717 -10.5908 23.543 -23.5625 23.543l-21.0762 -0.00976562l88.0576 36.9805v-87.6289c0 -6.15234 3.91406 -11.3711 9.81836 -13.085
c9.22852 -2.68555 14.3242 4.50488 19.0576 11.4385z" />
    <glyph glyph-name="rs.liga" unicode="rs" horiz-adv-x="580" 
d="M521.381 362.324l0.000976562 -58.4385c-46.4287 38.0664 -130.066 78.0664 -195.581 79.4756c-51.4287 1.10449 -110.943 -14.0381 -153.448 -48.6572c-19.7432 -16.0664 -34 -34.9805 -46.3145 -57.0186c-11.5527 -20.7051 -19.8857 -44.1523 -19.8857 -75.7334
v-153.562c0 -24.124 19.667 -43.7998 43.8008 -43.7998h0.847656v-4.32422h-132.705v4.32422h0.828125c24.1143 0 43.8096 19.6758 43.8096 43.7998v283.219c0 12.9717 -10.5908 23.543 -23.5625 23.543l-21.0762 -0.0185547l88.0576 36.9902v-87.6289
c0 -6.15234 3.91406 -11.3711 9.81836 -13.085c9.22852 -2.69531 14.3242 4.49512 19.0576 11.4375c44.0664 64.2949 121.2 86.6475 190.457 89.9238c67.7617 3.2002 132.076 -7.01855 195.896 -30.4473zM312.163 378.248
c-46.4668 -11.9902 -76.3604 -50.7314 -39.1797 -93.0078c20.6289 -23.457 52.8857 -35.9238 89.79 -48.5049c64.4766 -21.9717 193.619 -57.6572 194.99 -139.152c0.333008 -20 -8.23828 -40.4287 -28.2568 -59.791c-17.4385 -16.876 -39.334 -27.6191 -66.0771 -33.1904
c-69.6953 -14.5049 -165.819 10.3145 -230.058 33.876v73.124c44.5615 -41.3906 153.333 -107.81 227.19 -100.048c41.4668 4.3623 88.4951 36.2861 74.5908 74.7715c-12.2002 33.7715 -56.6953 56.2764 -105.181 73.1621c-56.9902 19.8379 -203.81 49.5811 -204.676 125.8
c-0.619141 55.4854 43.4854 89.0186 86.8662 92.9609z" />
    <glyph glyph-name="re.liga" unicode="re" horiz-adv-x="587" 
d="M542.515 120.457l33.8486 -18.7158c-28.8574 -68.2764 -71.0859 -101.448 -169.838 -101.429c-28.667 0 -57.8857 7.37109 -85.1426 22.3809c-94.7334 52.1904 -140.724 181.505 -90.8955 278.876c15.5996 30.5049 51.7041 69.3428 90.7422 74.543
c-67.0098 -19.0762 -101.695 -94.8379 -87.5811 -165.505c11.5332 -57.7715 48.2002 -113.79 87.6289 -148.352c-11.0762 22.3906 -16.1143 44.2188 -16.2666 64.2002c-0.19043 26.9238 8.48535 50.5527 23.2373 67.877c18.5615 21.8096 48.8945 35.1621 78.8281 48.3047
c53.0762 23.333 65.248 50.8096 53.0762 75.2188c-22.2188 44.5049 -102.619 61.8477 -146.724 62.4951c-62.7334 0.933594 -131.038 -20.8662 -175.01 -82.0283c-19.79 -27.5234 -32.2666 -60.5811 -32.2666 -96.3242v-153.562c0 -24.124 19.667 -43.7998 43.8008 -43.7998
h0.847656v-4.32422h-132.705v4.32422h0.828125c24.1143 0 43.8096 19.6758 43.8096 43.7998v283.219c0 12.9717 -10.5908 23.543 -23.5625 23.543l-21.0762 -0.0195312l88.0576 36.9902v-87.6289c0 -6.15234 3.91406 -11.3711 9.81836 -13.085
c9.22852 -2.69531 14.3242 4.50488 19.0576 11.4385c13.8955 17.6191 29.124 31.7812 44.6855 43.1523c40.2002 29.3809 94.6094 46.4668 157.295 47.4951c45.1719 0.743164 148.02 -6.02832 167.458 -56.2568c11.6094 -30.0576 -18.8291 -61 -58.0859 -81.79
c-11.7139 -6.2002 -24.457 -11.791 -37.2666 -17.4385h-0.00976562c-29.4189 -12.9424 -59.2383 -26.0381 -77.0381 -46.9717c-13.9902 -16.4287 -22.209 -38.9141 -22.0283 -64.6094c0.162109 -22.3809 6.7334 -47.2285 21.4854 -72.667
c1.30469 -1.00977 2.60938 -1.99023 3.91406 -2.95215c22.4668 -16.4766 46.4854 -31.1904 71.333 -38.6191c88.248 -26.333 142.458 49.6484 135.744 108.22z" />
    <glyph glyph-name="ib.liga" unicode="ib" horiz-adv-x="597" 
d="M269.2 159.381c6.83789 -45.6953 42.7891 -91.0967 85.6084 -120.468c24.6953 -16.9521 55.3242 -31.7139 85.8477 -28.4375c25.4189 2.72363 46.6953 17.5898 61 43.9521c19.5332 36.0098 19.5811 75.5908 19.5811 115.038v33.7432
c0 74.3145 -18.4668 183.886 -112.8 184.134c-21.457 0.0576172 -45.7812 -7.73242 -70.8574 -22.0566c-22.7139 -12.9717 -46.0088 -31.2666 -68.3799 -53.9238v-151.981zM269.151 414.504c0.0283203 -31.9814 0.0478516 -64.0078 0.0478516 -96.0273
c21.5811 21.333 44 38.6953 65.8955 51.1904c25.8281 14.7334 51 22.7617 73.3428 22.6953c102.647 -0.294922 156.209 -84.7715 156.209 -188.848v-33.4287c0 -45.4668 -1.08594 -91.0195 -29.8672 -129.687c-20.5146 -27.5615 -51.7246 -43.1045 -93.9814 -39.6094
c-32.1904 2.65723 -62.4854 15.9814 -88.9619 33.9814c-22.3711 15.1904 -42.8281 34.3906 -58.3809 55.2568c-3.52344 4.7334 -9.42773 6.60938 -15.0371 4.75195c-5.60938 -1.86621 -9.23828 -6.88477 -9.23828 -12.7891v-19.0576
c0 -34.5234 -27.667 -62.6572 -62.2861 -62.6572h-25.7617v4.32422h0.828125c24.1143 0 43.8096 19.6758 43.8096 43.8096v332.466c0.0478516 63.6475 2.75293 122.399 -13.4277 160.609c-10.0664 23.7715 -37.4756 44.5713 -63.9424 34.9424
c-51.4668 -18.7812 -35.0859 -140.991 -75.6006 -167.438l-43.8193 37.6572c21.21 37.8955 63.6387 140.076 127.887 137.81c40.1523 -1.41895 81.4189 -41.8193 97.2285 -77.4668c11.6475 -26.2666 15.0566 -57.5713 15.0566 -92.4854zM39.1699 355.182
l-21.0762 -0.0292969l88.0576 36.9814v-343.724c0 -24.1338 19.667 -43.8096 43.8008 -43.8096h0.847656v-4.32422h-132.705v4.32422h0.828125c24.1143 0 43.8096 19.6758 43.8096 43.8096v283.229c0 12.9717 -10.5908 23.543 -23.5625 23.543z" />
    <glyph glyph-name="ih.liga" unicode="ih" horiz-adv-x="623" 
d="M269.172 414.533l0.0253906 -122.96c0.0957031 -4.57129 3.11426 -8.39941 7.55273 -9.56152c4.52344 -1.17188 9.10449 0.780273 11.3906 4.84668c12.0762 21.5527 27.6377 40.3906 45.1709 55.9434c29.4385 26.0664 67.9434 45.7334 107.486 49.0098
c42.2568 3.50488 73.4668 -12.0566 93.9814 -39.6094c28.7812 -38.6572 29.8672 -84.2188 29.8672 -129.695v-174.076c0 -24.1338 19.6758 -43.8096 43.8096 -43.8096h0.847656v-4.32422h-132.695v4.32422h0.837891c24.1338 0 43.8008 19.6758 43.8008 43.8096v174.686
c0 39.4473 -0.0576172 79.0469 -19.5908 115.037c-14.2285 26.2285 -35.3525 41.0762 -60.5908 43.9141c-37.3525 4.2002 -77.5811 -19.1807 -104.6 -43.1709c-33.6289 -29.8477 -59.7246 -72.0576 -67.2676 -122.477v-167.99c0 -24.1338 19.6758 -43.8096 43.8096 -43.8096
h0.847656v-4.32422h-132.705v4.32422h0.828125c24.1143 0 43.8096 19.6758 43.8096 43.8096v332.485c0.0478516 63.6377 2.75293 122.39 -13.4277 160.6c-10.0664 23.7715 -37.4756 44.5713 -63.9424 34.9521c-51.4854 -18.7812 -35.0947 -141 -75.5996 -167.447
l-43.8281 37.6572c21.21 37.9043 63.6484 140.085 127.896 137.809c40.1523 -1.41895 81.4092 -41.8096 97.2188 -77.457c11.6572 -26.2666 15.0664 -57.5811 15.0664 -92.4951zM39.1689 355.183l-21.0762 -0.0283203l88.0576 36.9805v-343.724
c0 -24.1338 19.667 -43.8096 43.8008 -43.8096h0.847656v-4.32422h-132.705v4.32422h0.828125c24.1143 0 43.8096 19.6758 43.8096 43.8096v283.229c0 12.9717 -10.5908 23.543 -23.5625 23.543z" />
    <glyph glyph-name="ik.liga" unicode="ik" horiz-adv-x="530" 
d="M435.19 380.353l-137.646 -137.628l171.581 -206.238c14.6377 -17.5713 31.085 -31.1523 53.9424 -31.1523h2.42871v-5.01953h-132.695v5.01953h14.1621c17.9336 0 24.7998 14.5049 14.3613 27.1523l-151.238 182.762l-0.866211 -0.866211v-165.942
c0 -24.124 19.6758 -43.7998 43.7998 -43.7998h0.847656v-4.32422h-132.705v4.32422h0.837891c24.1143 0 43.7998 19.6758 43.7998 43.7998v332.476c0.0478516 63.6377 2.76172 122.39 -13.4287 160.6c-10.0664 23.7715 -37.4756 44.5713 -63.9326 34.9521
c-51.4951 -18.7812 -35.0947 -141 -75.6094 -167.447l-43.8193 37.6572c21.21 37.9043 63.6484 140.085 127.896 137.809c40.1523 -1.41895 81.4092 -41.8096 97.2188 -77.457c11.6475 -26.2666 15.0566 -57.5811 15.0566 -92.4951
c0 -64.3428 0.0195312 -128.686 0.0195312 -193.038l159.952 159.952c1 1 1.27637 2.41895 0.733398 3.70508c-0.533203 1.28613 -1.74316 2.10547 -3.13379 2.10547h-19.1045v5.02832h61.457v-5.02832h-17.2764c-6.47656 0 -12.0674 -2.31445 -16.6387 -6.90527z
M39.1729 355.182l-21.0762 -0.0292969l88.0576 36.9814v-343.724c0 -24.1338 19.667 -43.8096 43.8008 -43.8096h0.847656v-4.32422h-132.705v4.32422h0.828125c24.1143 0 43.8096 19.6758 43.8096 43.8096v283.229c0 12.9717 -10.5908 23.543 -23.5625 23.543z" />
    <glyph glyph-name="ip.liga" unicode="ip" horiz-adv-x="595" 
d="M270.152 310.419v-151.991c6.54297 -43.7715 39.8096 -87.2861 80.2188 -116.667c25.4668 -18.5146 58.248 -35.4385 90.4199 -32.334c68.9521 6.65723 83.2383 129.771 81.4004 192.829c-2.17188 74.2764 -18.4668 183.886 -112.8 184.134
c-21.457 0.0576172 -45.7812 -7.73242 -70.877 -22.0566c-22.6953 -12.9424 -46.0098 -31.2471 -68.3623 -53.9141zM270.133 413.581l0.0175781 -84.5439v-11.5146c21.5811 21.333 44 38.6953 65.876 51.1904c25.8281 14.7334 51.0088 22.7617 73.3613 22.6953
c102.647 -0.294922 151.124 -84.9043 156.21 -188.847c4.71387 -96.2188 -38.7334 -202.724 -123.848 -202.724c-34.2383 2.83789 -65.8096 17.5049 -93.4385 37.2383c-20.5049 14.6572 -39.333 32.5996 -53.9043 52.0186
c-3.5332 4.71387 -9.42871 6.60938 -15.0381 4.74316c-5.60938 -1.85742 -9.21875 -6.88574 -9.21875 -12.79v-236.923c0 -24.1338 19.6758 -43.8096 43.8096 -43.8096h0.847656v-4.32422h-132.705v4.32422h0.828125c24.1338 0 43.8096 19.6758 43.8096 43.8096v535.819
c0.0478516 63.6475 2.75293 122.391 -13.4277 160.609c-10.0664 23.7617 -37.4756 44.5713 -63.9424 34.9424c-51.4854 -18.7812 -35.0947 -141 -75.5996 -167.438l-43.8096 37.667c21.21 37.9043 63.6484 140.085 127.896 137.809
c40.1523 -1.41895 81.4092 -41.8096 97.2188 -77.457c11.6475 -26.2666 15.0566 -57.5811 15.0566 -92.4951zM40.1221 354.228l-21.0762 -0.0283203l88.0576 36.9805v-343.724c0 -24.1338 19.667 -43.8096 43.8008 -43.8096h0.847656v-4.32422h-132.705v4.32422h0.828125
c24.1143 0 43.8096 19.6758 43.8096 43.8096v283.229c0 12.9717 -10.5908 23.543 -23.5625 23.543z" />
    <glyph glyph-name="it.liga" unicode="it" horiz-adv-x="444" 
d="M255.657 40.4004c-28.7812 38.6475 -29.8691 84.2207 -29.8691 129.688v217.152h-48.3428l4.12402 5.02832h44.248c0.276367 59.2383 1.76172 113.305 -13.457 149.238c-10.0664 23.7617 -37.4756 44.5713 -63.9424 34.9424
c-51.4854 -18.7812 -35.0947 -141 -75.5996 -167.438l-43.8281 37.6475c21.21 37.9043 63.6484 140.085 127.896 137.818c40.1523 -1.41895 81.4092 -41.8193 97.2188 -77.4668c11.6572 -26.2666 15.0664 -57.5713 15.0664 -92.4854v-22.2764h137.124l-4.12402 -5.01855
h-82.6094c-27.752 0 -50.3809 -22.6289 -50.3809 -50.3809v-167.4c0 -42.3525 0.200195 -83.6768 23.0859 -121.058c35.3047 -56.3623 95.8379 -42.3525 142.333 -9.88574v-6.13379c-25.4854 -17.2002 -54.9141 -29.1045 -85 -31.5996
c-36.8193 -3.01953 -70.4482 8.15234 -93.9434 39.6289zM39.1699 355.184l-21.0762 -0.0292969l88.0576 36.9814v-343.724c0 -24.1338 19.667 -43.8096 43.8008 -43.8096h0.847656v-4.32422h-132.705v4.32422h0.828125c24.1143 0 43.8096 19.6758 43.8096 43.8096v283.229
c0 12.9717 -10.5908 23.543 -23.5625 23.543z" />
    <glyph glyph-name="jh.liga" unicode="jh" horiz-adv-x="622" 
d="M61.3525 113.743l-0.0214844 216.942c0 12.9717 -10.5908 23.5625 -23.5625 23.543l-21.0762 -0.0195312l88.0576 36.9902v-341.952c0 -34.9141 -3.40918 -66.2188 -15.0664 -92.4854c-11.0283 -24.8662 -27.9619 -45.209 -50.6572 -59.7422
c-8.87598 -5.69531 -18.6279 -10.4951 -29.2471 -14.3145c-51.3428 -18.4668 -117.533 -8.08594 -171.686 10.8379v46.7432c47.4004 -30.9336 106.801 -76.7998 169.858 -52.5898c55.457 21.2949 53.4668 103.752 53.4004 195.199v30.8477zM267.778 413.581
l0.0361328 -122.96c0.0957031 -4.57129 3.11426 -8.39941 7.55273 -9.56152c4.52344 -1.17188 9.10449 0.780273 11.3906 4.84668c12.0664 21.5527 27.6377 40.3906 45.1709 55.9434c29.4385 26.0664 67.9434 45.7334 107.486 49.0098
c42.2568 3.50488 73.4668 -12.0566 93.9717 -39.6094c28.7812 -38.6572 29.877 -84.2188 29.877 -129.695v-174.076c0 -24.1338 19.6758 -43.8096 43.8096 -43.8096h0.847656v-4.32422h-132.695v4.32422h0.837891c24.124 0 43.7998 19.6758 43.7998 43.8096v174.686
c0 39.4473 -0.0664062 79.0469 -19.5898 115.037c-14.2285 26.2285 -35.3525 41.0762 -60.5908 43.9141c-37.3525 4.2002 -77.5811 -19.1807 -104.601 -43.1709c-33.6289 -29.8477 -59.7334 -72.0576 -67.2666 -122.477v-167.99
c0 -24.1338 19.6953 -43.8096 43.8096 -43.8096h0.847656v-4.32422h-132.715v4.32422h0.837891c24.1143 0 43.7998 19.6758 43.7998 43.8096v332.485c0.0576172 63.6377 2.7627 122.39 -13.418 160.6c-10.0664 23.7715 -37.4756 44.5713 -63.9424 34.9521
c-51.4766 -18.7812 -35.0957 -141 -75.6006 -167.447l-43.8281 37.6572c21.21 37.9043 63.6484 140.085 127.896 137.809c40.1523 -1.41895 81.4092 -41.8096 97.2188 -77.457c11.6475 -26.2666 15.0566 -57.5811 15.0566 -92.4951z" />
    <glyph glyph-name="tt.liga" unicode="tt" horiz-adv-x="416" 
d="M153.647 391.972l44.2021 0.0283203v90.2568l43.4092 21.4385v-111.705h137.114l-4.12402 -5.02832h-82.6094c-27.752 0 -50.3809 -22.6289 -50.3809 -50.3809v-167.391c0 -42.3525 0.200195 -83.667 23.0859 -121.058
c35.3047 -56.3711 95.8379 -42.3613 142.333 -9.89453v-6.13379c-25.4854 -17.1904 -54.9141 -29.1045 -85 -31.5996c-27.3623 -2.24805 -52.9434 3.31348 -73.9053 19.1992c-20.1523 -10.4189 -41.9805 -17.3711 -64.1523 -19.1992
c-36.876 -3.04785 -70.4951 8.14258 -93.9717 39.6094c-28.7812 38.667 -29.877 84.2197 -29.877 129.696v217.152h-48.3428l4.12402 5.02832h44.2188v22.1807l43.4092 21.4092v-43.6094h50.4668zM243.363 23.2861c-5.59082 4.79004 -10.8281 10.3896 -15.6475 16.8184
c-28.7812 38.667 -29.8672 84.2197 -29.8672 129.687v217.172h-94.6289v-217.771c0 -42.3525 0.19043 -83.667 23.0859 -121.058c29.1904 -46.5811 75.5908 -45.0957 117.058 -24.8477z" />
    <glyph glyph-name="ee.liga" unicode="ee" horiz-adv-x="708" 
d="M109.105 363.79c-24.5527 -15.0762 -44.458 -38.4678 -55.8291 -64.9443c-11.8281 -27.543 -10.8184 -54.5615 -4.02832 -88.5332c11.5527 -57.7715 48.1904 -113.79 87.6289 -148.352c-11.0762 22.3906 -16.124 44.2188 -16.2666 64.2002
c-0.200195 26.9238 8.48535 50.543 23.2188 67.876c18.5615 21.8096 48.8945 35.1523 78.8281 48.3047c144.934 63.6953 -19.79 178.943 -113.552 121.448zM295.209 13.9512c61.1338 25.3711 58.1768 101.725 114.91 154.925c22.1719 20.79 43.6191 35.6855 66.791 48.4854
c24.6377 13.6289 65.0283 27.8193 86.3525 45.5244c77.8281 64.5713 -63.9238 152.629 -148.248 100.905c-24.5615 -15.0762 -44.4658 -38.4668 -55.8369 -64.9434c-11.8281 -27.543 -10.8096 -54.5615 -4.02832 -88.5332
c3.33301 -16.6377 9.03809 -33.6855 16.6953 -50.4756c2.91406 -6.42871 7.96191 -15.9902 11.4385 -22.3145c-13.248 -21.457 -23.6768 -32.7812 -33.4199 -10.0381c-23.6758 55.2285 -25.6562 119.495 2.125 173.79c21.2861 41.6191 55.9434 71.3809 100.162 84.4287
c42.4473 12.5332 98.4375 7.66699 140.809 -15.666c66.3525 -38.3047 29.0098 -86.2383 -25.0947 -114.867c-29.3428 -15.5332 -58.9238 -25.3906 -87.8857 -43.0283c-17.8857 -10.876 -34.4092 -23.752 -50.333 -40.7998
c-15.1904 -16.2666 -25.4951 -34.5908 -34.5527 -52.9912c32.9238 -49.1807 81.2949 -90.9238 133.181 -106.409c88.248 -26.3145 142.458 49.6475 135.744 108.238l33.8477 -18.7334c-28.8574 -68.2764 -71.0859 -101.448 -169.838 -101.43
c-28.667 0 -57.8857 7.37109 -85.1523 22.3809c-26 14.3242 -48.3047 34.458 -65.9902 58.1436c-15.876 -30.9902 -35.5615 -58.1904 -78.6572 -71.1426c-20.876 -6.28613 -45.8379 -9.40039 -76.1045 -9.38184c-28.667 0 -57.8857 7.37109 -85.1523 22.3809
c-94.7432 52.1904 -140.733 181.505 -90.9053 278.876c21.2861 41.6191 55.9434 71.3809 100.153 84.4287c42.457 12.5332 98.4473 7.66699 140.818 -15.666c66.3525 -38.3047 29.0098 -86.2383 -25.0947 -114.867c-11.7139 -6.2002 -24.457 -11.7998 -37.2568 -17.4473
h-0.0185547c-29.4189 -12.9336 -59.2383 -26.0381 -77.0381 -46.9717c-13.9814 -16.4287 -22.21 -38.9053 -22.0293 -64.6006c0.162109 -22.3906 6.74316 -47.2383 21.4863 -72.6572c1.30469 -1.00977 2.60938 -1.99023 3.91406 -2.95215
c22.4668 -16.4766 46.4854 -31.21 71.333 -38.6191c28 -8.35254 52.5811 -6.39062 72.876 2.02832z" />
    <glyph glyph-name="oo.liga" unicode="oo" horiz-adv-x="612" 
d="M141.087 369.295c40.6377 11.9902 85.7715 7.34277 126.324 -15c3.51465 -1.92383 6.93359 -3.98145 10.2959 -6.13379c18.248 17.3145 40.2861 30.124 65.4102 37.543c42.457 12.5332 89.5713 7.66699 131.942 -15.666
c100.371 -55.2861 146.038 -197.162 80.9717 -295.886c-16.0186 -24.3145 -35.1143 -42.1426 -61.2002 -55.7041c-49.0957 -25.5146 -108.639 -24.8574 -160.981 3.95215c-7.0957 3.91406 -13.915 8.25684 -20.4385 12.9902
c-8.11426 -6.65723 -17.0381 -12.5146 -27.0576 -17.7246c-46.9814 -24.4189 -104.02 -23.7998 -154.124 3.79102c-90.7139 49.9521 -134.733 173.771 -87.0283 266.99c20.3428 39.8574 53.5332 68.3428 95.8857 80.8477zM242.944 301.257
c3.98145 7.81934 8.44922 15.209 13.3447 22.123l-2.2666 1.69531c-36.5146 26.79 -76.6953 49.7422 -122.657 35.123c-35.21 -11.2002 -64.6387 -39.9814 -79.2959 -74.0859c-11.3145 -26.3809 -10.3525 -52.2383 -3.86719 -84.7529
c12.3711 -61.9043 54.8379 -121.694 97.457 -152.951c44.7617 -32.8477 94.1807 -51.9521 145.856 -22.3711c6.54297 3.75195 12.4951 7.7998 17.9717 12.2568c-77.8662 59.3145 -111.886 174.372 -66.543 262.963zM351.488 172.122
c-11.6953 58.4385 -50.1904 114.989 -90.3047 147.418c-4.25684 -6.59961 -7.96191 -13.5518 -11.0283 -20.7139c-11.8281 -27.543 -10.8184 -54.5615 -4.02832 -88.5234c11.4189 -57.1719 47.4092 -112.61 86.3516 -147.248
c2.17188 3.04785 4.27637 6.24805 6.31445 9.62891c18.6855 30.7715 20.6094 59.791 12.6953 99.4385zM500.231 27.1963c21.1426 12.1045 36.2871 27.1816 49.373 48.7148c19.5146 32.124 21.5146 62.457 13.248 103.857
c-12.9238 64.6572 -57.2666 127.096 -101.771 159.743c-38.1338 27.9805 -80.1152 51.9609 -128.105 36.6943c-18.9619 -6.03809 -36.3242 -16.9521 -50.791 -30.9805c85.6475 -58.1143 121.752 -184.705 62.7617 -274.238
c-2.65723 -4.03809 -5.41895 -7.9043 -8.27637 -11.5713c3.74316 -3.15234 7.47656 -6.11426 11.2285 -8.85742c46.7617 -34.2949 98.3809 -54.2666 152.333 -23.3623z" />
    <glyph glyph-name="ss.liga" unicode="ss" horiz-adv-x="676" 
d="M94.9473 370.333c-32.4951 -16.2666 -50.9326 -48.7148 -18.6758 -85.3906c20.6191 -23.457 52.876 -35.9238 89.7998 -48.5049c38.3809 -13.0859 99.7334 -31.0479 143.353 -60.6289c43.21 -29.3047 84.8389 -79.7139 128.277 -114.514
c40.4766 -32.4385 79.9238 -54.1523 119.305 -50.0098c41.4766 4.3623 88.4951 36.2861 74.5996 74.7812c-12.21 33.7715 -56.6953 56.2666 -105.19 73.1523c-43.1143 15.0098 -137.629 35.7148 -181.486 77.877c-54.667 52.5811 -60.2383 130.219 -166.724 145.114
c-21.21 2.94238 -58.8955 0.333008 -83.2578 -11.877zM92.377 374.008c26.0381 12.7236 57.0146 17.752 85.8242 17.752c49.6191 0 101.819 -9.30469 161.02 -56.876c12.1621 16.8857 29.2197 30.7998 46.2861 39.1328c26.0381 12.7334 57.0283 17.752 85.8477 17.752
c49.6094 0 100.104 -12.7051 146.457 -29.7051v-58.4473c-49.9424 40.9424 -135.638 76.7041 -180.047 77.7803c-54.876 1.35254 -115.285 -43.0762 -68.3516 -96.4385c20.6289 -23.4668 52.8857 -35.9238 89.79 -48.5049
c64.457 -21.9814 193.619 -57.6572 194.981 -139.152c0.324219 -20 -8.2373 -40.4287 -28.2568 -59.7998c-17.4473 -16.8662 -39.3516 -27.6182 -66.0752 -33.1797c-55.9619 -11.6289 -109.676 5.95215 -168.343 51.8281c-7.32422 5.7334 -15.6768 8.02832 -24.915 6.87598
c-12.7617 -1.61914 -22.4951 -14.5908 -33.7998 -25.5244c-17.4287 -16.8662 -39.3428 -27.6182 -66.0762 -33.1797c-69.7051 -14.5049 -165.829 10.3145 -230.067 33.8672v73.124c44.5615 -41.3906 153.333 -107.81 227.19 -100.038
c41.4766 4.35254 88.4951 36.2861 74.5908 74.7715c-12.2002 33.7715 -56.6953 56.2666 -105.181 73.1523c-56.9902 19.8379 -203.81 49.5811 -204.676 125.81c-0.418945 37.8193 31.6387 73.3047 63.8008 89z" />
    <glyph glyph-name="ll.liga" unicode="ll" horiz-adv-x="314" 
d="M185.686 539.066l-21.0752 -0.0292969l88.0479 36.9814v-527.886c0 -24.1338 19.6758 -43.8096 43.8096 -43.8096h0.847656v-4.32422h-132.705v4.32422h0.828125c24.1143 0 43.8096 19.6758 43.8096 43.8096v467.391c0 12.9717 -10.5908 23.543 -23.5625 23.543z
M37.2676 481.38l-21.0762 -0.0185547l88.0576 36.9805v-470.2c0 -24.124 19.6855 -43.7998 43.7998 -43.7998h0.847656v-4.32422h-132.705v4.32422h0.828125c24.1143 0 43.8096 19.6758 43.8096 43.7998v409.695c0 12.9619 -10.6191 23.543 -23.5615 23.543z" />
    <glyph glyph-name="ci.liga" unicode="ci" horiz-adv-x="540" 
d="M352.725 75.9141c1.21875 2.00977 2.36133 4.00098 3.4375 5.99121h7.81934c-1.5332 -2.60938 -3.15234 -5.20898 -4.82812 -7.77051c-16.0098 -24.3047 -35.1143 -42.1426 -61.2002 -55.6953c-49.0957 -25.5146 -108.657 -24.8672 -160.981 3.94238
c-94.7432 52.2002 -140.733 181.505 -90.9053 278.876c21.2861 41.6191 55.9434 71.3809 100.172 84.4473c30.3145 8.94238 67.1045 9.67578 102.457 -0.162109l0.0478516 -0.0195312c-25.9717 71.1143 1.7998 152.01 62.457 181.639
c86.1621 42.0762 167.505 -38.2949 167.505 -128.904l-67.0195 -34.6855c66.4668 81.5908 -3.36133 204.276 -99.2568 161.372c-18.3242 -8.79004 -34.4482 -23.0664 -46.2383 -40.8184c-18.8281 -28.3242 -19.0381 -64.9053 -2.48535 -100.801
c18.5234 -40.1523 54.4951 -66.7051 74.9521 -93.4004l-36.9336 -17.7812c-39.8379 56.1904 -117.076 79.5146 -165.647 64.0859c-36.7617 -11.7051 -67.5137 -41.7529 -82.8184 -77.3818c-11.8281 -27.543 -10.8096 -54.5625 -4.02832 -88.5342
c12.9043 -64.6572 59.4375 -124.934 103.942 -157.581c46.7617 -34.2949 103 -49.1904 150.162 -25.5234c21.1621 12.0957 36.3047 27.1719 49.3906 48.7051zM411.734 354.887l-21.0752 -0.0185547l88.0479 36.9902v-343.725c0 -24.1338 19.6758 -43.8096 43.8096 -43.8096
h0.847656v-4.32422h-132.705v4.32422h0.828125c24.1143 0 43.8096 19.6758 43.8096 43.8096v283.21c0 12.9717 -10.5908 23.543 -23.5625 23.543z" />
    <glyph glyph-name="si.liga" unicode="si" horiz-adv-x="535" 
d="M474.528 438.276l-76.0781 -39.9277c29.7432 34.5234 39.9053 94.6855 12.9336 134.257c-21.9141 32.1045 -62.7422 50.4287 -103.143 32.3525c-24.5332 -11.7812 -45.1143 -33.3809 -56.667 -59.9805c-24.7812 -57.0381 1.96191 -108.752 57.2568 -142.933v-58.4385
c-41.4473 43.9336 -145.352 100.791 -213.161 66.6289c-32.3525 -16.2949 -50.6191 -48.7041 -18.4473 -85.2949c20.6191 -23.457 52.876 -35.9238 89.7803 -48.5049c63.4951 -21.6475 189.724 -56.5811 194.838 -135.467v-9.42871
c-1.25684 -18.1426 -10.0088 -36.5137 -28.1133 -54.0371c-17.4385 -16.8662 -39.334 -27.6182 -66.0771 -33.1797c-69.6953 -14.5049 -165.829 10.3145 -230.058 33.8672v73.124c44.5527 -41.3906 153.324 -107.81 227.2 -100.038
c41.4766 4.35254 88.4951 36.2861 74.5908 74.7715c-12.2002 33.7715 -56.6953 56.2666 -105.181 73.1523c-56.9902 19.8379 -203.81 49.5811 -204.676 125.81c-0.418945 37.8193 31.6387 73.3047 63.8008 89c26.0381 12.7236 57.0381 17.752 85.8477 17.752
c18.6758 0 41.1143 -1.70508 59.4189 -5.58105c-25.9717 71.1143 7.76172 151.371 68.4287 181c86.1523 42.0576 167.505 -38.2949 167.505 -128.904zM407.326 354.882l-21.085 -0.0185547l88.0576 36.9902v-343.725c0 -24.1338 19.6758 -43.8096 43.7998 -43.8096h0.857422
v-4.32422h-132.715v4.32422h0.837891c24.1143 0 43.7998 19.6758 43.7998 43.8096v283.21c0 12.9717 -10.5908 23.543 -23.5527 23.543z" />
    <glyph glyph-name="in.liga" unicode="in" horiz-adv-x="625" 
d="M40.124 354.886l-21.0762 -0.0185547l88.0576 36.9902v-343.725c0 -24.1338 19.667 -43.8096 43.8008 -43.8096h0.847656v-4.32422h-132.705v4.32422h0.828125c24.1143 0 43.8096 19.6758 43.8096 43.8096v283.21c0 12.9717 -10.5908 23.543 -23.5625 23.543z
M441.771 391.543c29.4473 2.40039 57.4141 -4.02832 80.4326 -24.6475c4.95215 -4.48535 9.44727 -9.49512 13.543 -15c28.7812 -38.6475 29.877 -84.209 29.877 -129.686v-174.076c0 -24.1338 19.6758 -43.8096 43.8096 -43.8096h0.847656v-4.32422h-132.695v4.32422
h0.837891c24.124 0 43.7998 19.6758 43.7998 43.8096v174.695c0 58.8857 -2.59082 147.553 -80.4482 158.924c-34.1621 5 -75.9434 -11.6094 -118.22 -56.6572c-26.79 -28.5332 -53.3809 -81.4092 -53.3809 -124.628v-152.324c0 -24.124 19.6758 -43.7998 43.7998 -43.7998
h0.847656v-4.32422h-132.705v4.32422h0.837891c24.1143 0 43.7998 19.6758 43.7998 43.7998v283.219c0 162.904 -80.5811 161.485 -150.143 72.3711l-43.8096 29.0381c95.9141 45.0186 231.657 81.7617 237.353 -128.524
c0.162109 -6.14258 3.91406 -11.3711 9.81836 -13.085s12.0088 0.572266 15.3037 5.75293c7.2666 11.3906 15.5332 21.9434 24.5234 31.543c31.1807 33.2666 75.8184 59.2568 121.971 63.085z" />
    <glyph glyph-name="im.liga" unicode="im" horiz-adv-x="919" 
d="M522.2 366.896l0.682617 -0.630859l0.180664 -0.162109l0.0478516 -0.0478516l0.914062 -0.847656l0.180664 -0.162109l0.0478516 -0.0576172l0.457031 -0.418945l0.228516 -0.228516l0.228516 -0.209961l0.180664 -0.180664l0.0380859 -0.0478516l0.904297 -0.914062
l0.447266 -0.457031l0.418945 -0.457031l0.657227 -0.685547l0.637695 -0.685547l0.228516 -0.228516l0.847656 -0.914062l0.19043 -0.209961l0.0185547 -0.0380859l0.209961 -0.228516l0.209961 -0.238281l0.21875 -0.228516l0.209961 -0.248047l0.200195 -0.209961
l0.00976562 -0.0195312l0.847656 -0.981445l0.200195 -0.209961l0.0185547 -0.0185547l0.209961 -0.248047l0.390625 -0.485352l0.40918 -0.485352l0.19043 -0.248047l0.21875 -0.248047l0.581055 -0.733398v-0.0195312l0.59082 -0.733398l0.200195 -0.256836
l0.19043 -0.248047l0.980469 -1.30469l1.12402 -1.5332l0.200195 -0.276367l0.0761719 -0.133789l1.12402 -1.59961l0.21875 -0.324219l0.990234 -1.48535l0.162109 -0.228516l0.885742 -1.33301l0.276367 -0.40918l0.294922 -0.457031l0.0478516 -0.0761719
l0.933594 -1.48535l0.961914 -1.59082l0.0664062 -0.114258l0.857422 -1.47656l0.619141 -1.0957l0.294922 -0.504883l0.380859 -0.685547l0.0761719 -0.152344l0.885742 -1.60938l0.0957031 -0.200195l0.933594 -1.76172l0.0283203 -0.0664062l0.180664 -0.342773
l0.819336 -1.62891l0.78125 -1.62891l0.114258 -0.228516l0.647461 -1.40918l0.228516 -0.514648l0.0859375 -0.171875l0.685547 -1.56152l0.0761719 -0.200195l0.362305 -0.828125l0.476562 -1.10449l0.228516 -0.542969l0.571289 -1.40039l0.0957031 -0.248047
l0.647461 -1.66699l0.0185547 -0.0478516l0.609375 -1.60938l0.124023 -0.362305l0.476562 -1.32422l0.228516 -0.647461l0.362305 -1.02832l0.324219 -0.952148l0.248047 -0.733398l0.400391 -1.25684l0.133789 -0.418945l0.476562 -1.57129l0.0478516 -0.124023
l0.504883 -1.70508l0.0478516 -0.171875l0.0478516 -0.171875c0.523438 -1.83789 1.02832 -3.68555 1.48535 -5.52344l0.0859375 -0.333008l0.142578 -0.619141l0.342773 -1.40039l0.0664062 -0.314453l0.390625 -1.70508v-0.0185547l0.380859 -1.7334l0.0576172 -0.294922
l0.294922 -1.42871l0.114258 -0.609375l0.228516 -1.12402l0.180664 -0.914062l0.142578 -0.80957l0.228516 -1.24805l0.0859375 -0.504883l0.256836 -1.54297l0.0380859 -0.200195l0.276367 -1.74316l0.0185547 -0.114258l0.238281 -1.6377l0.0664062 -0.418945
l0.200195 -1.32422l0.0957031 -0.733398l0.142578 -1.00977l0.152344 -1.06641l0.0761719 -0.695312l0.171875 -1.37109l0.0478516 -0.390625l0.19043 -1.69531l0.0185547 -0.0859375l0.180664 -1.78125l0.0283203 -0.238281l0.21875 -2.0957l0.114258 -1.21875
l0.0761719 -0.885742l0.0859375 -0.895508l0.0957031 -1.19043l0.0478516 -0.59082l0.114258 -1.51465l0.0195312 -0.276367l0.133789 -1.78125v-0.0478516l0.124023 -2.10449l0.0859375 -1.41895l0.0283203 -0.685547l0.0664062 -1.10449l0.0478516 -1.01855
l0.0380859 -0.78125l0.0576172 -1.32422l0.0185547 -0.466797l0.0664062 -1.64746v-0.152344l0.0664062 -1.79004v-0.180664l0.0478516 -1.62891l0.0185547 -0.495117l0.0283203 -1.30469l0.0195312 -0.80957l0.0185547 -0.980469l0.0283203 -1.14258l0.0185547 -0.666992
c11.5332 40.21 34.752 74.1816 63.2373 99.4863c29.4473 26.1719 68.0762 45.8955 107.676 49.1719c42.2568 3.51465 73.4668 -12.0381 93.9717 -39.6094c28.7812 -38.6475 29.877 -84.2188 29.877 -129.686v-174.086c0 -24.1338 19.6758 -43.8096 43.8096 -43.8096
h0.847656v-4.32422h-132.695v4.32422h0.837891c24.124 0 43.7998 19.6758 43.7998 43.8096v174.667c0 39.457 -0.0664062 79.0479 -19.5898 115.038c-39.7139 73.2285 -117.485 43.0381 -165.095 0.819336c-32.4951 -28.8281 -58 -69.209 -66.4951 -117.371v-173.181
c0 -24.1338 19.6758 -43.8096 43.7998 -43.8096h0.847656v-4.32422h-132.686v4.32422h0.828125c24.1338 0 43.8096 19.6758 43.8096 43.8096v180.229c-0.0859375 22.9238 -0.885742 49.6475 -6.28613 74.3525c-2.88574 11.9902 -7.12402 23.752 -13.2959 35.1426
c-7.75195 14.2666 -16.9141 24.6191 -27.0381 31.7148c-9.29492 5.97168 -20.457 10.21 -33.8281 12.1719c-1.20996 0.180664 -2.43848 0.323242 -3.65723 0.4375c-40.6758 1.97168 -85.9619 -26.6377 -114.553 -57.1045l-1.25684 -1.35254l-1.25684 -1.39062
l-1.24805 -1.41895l-1.25684 -1.44727l-1.24805 -1.48535l-1.23828 -1.51465l-1.37109 -1.57129l-1.23828 -1.58105l-1.21875 -1.61914l-1.22852 -1.64746l-1.21875 -1.65723l-1.20996 -1.69531l-1.20996 -1.71387l-1.19043 -1.75195l-1.19043 -1.77148l-1.17188 -1.7998
l-1.18066 -1.80957l-1.15234 -1.84766l-1.14258 -1.85742l-1.14258 -1.87598l-1.12402 -1.9043l-1.11426 -1.92383l-1.0957 -1.94238l-1.07617 -1.96191l-1.05762 -1.97168l-1.05762 -1.99023l-1.02832 -2.00977l-1.00977 -2.01855l-1 -2.03809l-0.980469 -2.05762
l-0.961914 -2.05762l-0.942383 -2.07617l-0.933594 -2.08594l-0.914062 -2.10449l-0.875977 -2.10449l-0.866211 -2.12402l-0.847656 -2.11426l-0.819336 -2.12402l-0.799805 -2.13379l-0.761719 -2.14258l-0.751953 -2.13379l-0.713867 -2.15234l-0.705078 -2.15234
l-0.666992 -2.16211l-0.637695 -2.15234l-0.619141 -2.15234l-0.59082 -2.15234l-0.552734 -2.15234l-0.542969 -2.15234l-0.504883 -2.15234l-0.466797 -2.14258l-0.447266 -2.13379l-0.40918 -2.14258l-0.371094 -2.13379l-0.342773 -2.12402l-0.304688 -2.11426
l-0.286133 -2.10449l-0.238281 -2.10449l-0.200195 -2.0957l-0.162109 -2.08594l-0.133789 -2.07617l-0.0957031 -2.04785l-0.0664062 -2.04785l-0.0195312 -2.03809v-152.314c0 -24.1338 19.6758 -43.8096 43.8096 -43.8096h0.847656v-4.32422h-132.705v4.32422h0.828125
c24.1143 0 43.8096 19.6758 43.8096 43.8096v283.2c0 162.904 -80.5811 161.485 -150.152 72.3711l-43.7998 29.0381c95.9141 45.0186 231.657 81.752 237.362 -128.524c0.133789 -5.0957 2.7334 -9.55273 6.97168 -11.915l0.0283203 -0.0185547l0.457031 -0.238281
h0.0195312l0.162109 -0.0859375l0.0859375 -0.0283203l0.238281 -0.114258h0.0195312l0.152344 -0.0664062l0.162109 -0.0859375l0.162109 -0.0664062l0.0283203 -0.00976562l0.266602 -0.104492l0.0478516 -0.00976562l0.162109 -0.0664062l0.0478516 -0.0195312
l0.114258 -0.0478516l0.152344 -0.0478516l0.00976562 -0.0185547l0.162109 -0.0478516l0.0859375 -0.0185547l0.0957031 -0.0283203l0.180664 -0.0478516c5.9043 -1.71387 12.0088 0.572266 15.3037 5.75293c7.25684 11.3906 15.5332 21.9434 24.5234 31.543
c31.1719 33.2666 75.8096 59.2568 121.972 63.085l1.38086 0.114258l0.59082 0.0478516l1.62891 0.114258l0.333008 0.0195312l0.19043 0.0195312l1.37109 0.0664062l0.362305 0.00976562l1.59961 0.0664062l0.324219 0.0195312l0.438477 0.0185547l1.37109 0.0283203
h0.0957031l1.27637 0.0195312h1.37109l1.14258 -0.0185547h0.209961l1.35254 -0.0283203l0.294922 -0.0185547l1.05762 -0.0283203l0.790039 -0.0380859l1.80957 -0.0957031h0.0957031l1.33301 -0.0859375l0.400391 -0.0283203l0.942383 -0.0859375l0.847656 -0.0761719
l1.58105 -0.152344l0.200195 -0.00976562h0.0283203l0.0957031 -0.0195312c1.08594 -0.114258 2.16211 -0.248047 3.21973 -0.381836l0.162109 -0.00976562l0.485352 -0.0664062l1.24805 -0.180664l0.0761719 -0.0195312l1.30469 -0.209961l0.333008 -0.0478516
l0.97168 -0.162109l0.723633 -0.133789l0.581055 -0.114258l1.30469 -0.256836l1.29492 -0.276367l0.162109 -0.0380859l1.12402 -0.248047c16.7715 -3.92383 31.0664 -11.6094 42.9043 -22.3613zM40.1211 354.893l-21.0752 -0.0185547l88.0576 36.9902v-343.725
c0 -24.1338 19.6855 -43.8096 43.7998 -43.8096h0.847656v-4.32422h-132.705v4.32422h0.828125c24.1143 0 43.8096 19.6758 43.8096 43.8096v283.21c0 12.9717 -10.5908 23.543 -23.5625 23.543z" />
    <glyph glyph-name="iv.liga" unicode="iv" horiz-adv-x="553" 
d="M423.391 38.457l-22.1914 -38.4541h-5.7998l-205.343 355.667c-11.4385 19.8096 -31.0859 31.1426 -53.9434 31.1426h-2.42871v5.02832h132.686v-5.00977h-14.1523c-17.9336 0 -22.5713 -12.9238 -14.3428 -27.1426l182.6 -316.286
c26.1143 45.2568 57.5049 93.9238 78.3623 141.533c32.333 73.7715 46.0566 162.533 -23.1719 220.399c-31.2949 26.1719 -75.6855 42.7246 -128.285 50.5908c-43.9238 6.56152 -93.5332 7.04688 -146.019 1.98926c-94.8281 -9.12402 -78.4473 -43.9238 -146.181 -63.4854
l-39.9424 43.3047c36.3525 -9.15234 123.943 19.1045 184.02 25.0088c53.5146 5.25684 104.105 4.84766 148.857 -1.83789c53.4951 -8 98.7432 -24.9336 130.781 -51.7051c71.1045 -59.457 57.8184 -150.295 24.542 -226.257
c-21.2666 -48.5527 -53.4189 -98.3525 -80.0479 -144.486zM39.6562 354.889l-21.0752 -0.0185547l88.0576 36.9902v-343.725c0 -24.1338 19.6758 -43.8096 43.7998 -43.8096h0.847656v-4.32422h-132.705v4.32422h0.837891c24.1045 0 43.7998 19.6758 43.7998 43.8096v283.21
c0 12.9717 -10.5908 23.543 -23.5625 23.543z" />
    <glyph glyph-name="iw.liga" unicode="iw" horiz-adv-x="740" 
d="M39.6094 354.886l-21.0752 -0.0185547l88.0576 36.9902v-343.725c0 -24.1338 19.6758 -43.8096 43.7998 -43.8096h0.847656v-4.32422h-132.705v4.32422h0.828125c24.1143 0 43.8096 19.6758 43.8096 43.8096v283.21c0 12.9717 -10.5908 23.543 -23.5625 23.543z
M424.687 40.6768l-1.3457 -2.21484l-22.1904 -38.457h-5.80957l-205.333 355.667c-11.4385 19.8096 -31.0859 31.1426 -53.9434 31.1426h-2.42871v5.02832h132.686v-5.00977h-14.1621c-17.9238 0 -22.5615 -12.9238 -14.3516 -27.1426l182.6 -316.286l53.4951 92.6475
c5.44727 9.44727 10.3428 18.5049 14.7334 27.2188l0.485352 0.942383l1.61914 3.33301l-108.629 188.143c-11.4385 19.8096 -31.0762 31.1426 -53.9336 31.1426h-2.43848v5.02832h82.9619l5.5332 0.0195312l2.37109 -0.0195312h31.1904v-5.02832h-10.9141
c-10.8955 -0.256836 -17.457 -8.9043 -6.91406 -27.1426l81.667 -141.457c21.752 65.8662 23.1045 137.714 -35.9717 187.123c-31.2949 26.1621 -75.6855 42.7236 -128.285 50.5898c-43.9043 6.55273 -93.5332 7.04785 -146.019 1.99023
c-94.8281 -9.12402 -78.457 -43.9238 -146.181 -63.4854l-39.9424 43.3047c36.3525 -9.15234 123.943 19.1045 184.02 25.0088c53.5146 5.25684 104.105 4.84766 148.857 -1.84766c53.4951 -7.99023 98.752 -24.9238 130.78 -51.6953
c62.0957 -51.9141 59.8291 -127.771 36.0859 -196.762l97.5996 -169.038l53.4951 92.6475c13.6094 23.5615 23.7715 44.752 31.0195 64.0381c7.20996 19.2188 11.5146 36.5811 13.4287 52.5811c2.45703 20.5146 0.895508 44 -5.85645 65.3623
c-5.78125 18.2383 -15.3525 34.9141 -29.4385 46.7422c-8.49512 7.12402 -18.5996 12.7236 -30.2754 16.4756c-43.4189 13.9141 -72.6855 -13.9521 -109.162 -19.9238l-17.333 30.5332h87.9238c14.9336 0 28.2959 -2.05762 40.1055 -5.84766
c12.3525 -3.96191 23.0195 -9.84766 31.9814 -17.3711c14.876 -12.4951 24.9619 -29.9902 31.0098 -49.0762c6.97168 -22.0479 8.60059 -46.3047 6.05762 -67.4668c-1.96191 -16.3623 -6.3623 -34.1143 -13.7432 -53.7432
c-7.34277 -19.5615 -17.6191 -40.9805 -31.3525 -64.7803l-77.1045 -133.543h-5.80957l-93.6855 162.286c-19.8574 -40.3809 -45.5811 -81.1328 -67.9053 -119.485z" />
    <glyph glyph-name="iy.liga" unicode="iy" horiz-adv-x="540" 
d="M39.6758 354.886l-21.0752 -0.0185547l88.0479 36.9902v-343.725c0 -24.1338 19.6758 -43.8096 43.8096 -43.8096h0.847656v-4.32422h-132.705v4.32422h0.828125c24.1143 0 43.8096 19.6758 43.8096 43.8096v283.21c0 12.9717 -10.5908 23.543 -23.5625 23.543z
M424.648 40.6387l-1.24219 -2.17969l-22.1904 -38.457l-0.713867 -1.23828l-0.0185547 -0.0195312l-51.7715 -87.9238c-59.6094 -103.257 -155.562 -138.533 -257.543 -97.3525l12.4287 41.3809c84.2188 -48.6191 184.276 -39.3047 244.724 65.3906l47.0859 79.7812
l-205.343 355.667c-11.4287 19.8096 -31.0762 31.1426 -53.9336 31.1426h-2.42871v5.02832h132.686v-5.02832h-14.1621c-17.9238 0 -22.5615 -12.9238 -14.3516 -27.1426l182.6 -316.286c26.0381 45.1045 57.7334 94.4473 78.3623 141.533
c32.333 73.7715 46.0566 162.533 -23.1719 220.399c-31.2949 26.1719 -75.6855 42.7246 -128.285 50.5908c-43.9238 6.56152 -93.5332 7.04688 -146.019 1.98926c-94.8281 -9.12402 -78.4473 -43.9238 -146.181 -63.4854l-39.9424 43.3047
c36.3525 -9.15234 123.943 19.1045 184.001 25.0088c53.5146 5.27637 104.105 4.84766 148.857 -1.83789c53.5049 -8 98.7617 -24.9336 130.781 -51.7051c71.124 -59.457 57.8291 -150.295 24.543 -226.257c-20.9141 -47.79 -52.3906 -96.7803 -78.7715 -142.304z" />
    <glyph glyph-name="ce.liga" unicode="ce" horiz-adv-x="767" 
d="M477.19 365.657l0.25 -0.445312c-7.66699 -4.19043 -14.667 -9 -21.0859 -14.3242c-16.4287 -14.1621 -29.7051 -32.248 -38.2197 -52.0576c-11.8281 -27.543 -10.8184 -54.5625 -4.02832 -88.5244c11.543 -57.7715 48.1904 -113.8 87.6289 -148.353
c-11.0859 22.3809 -16.124 44.209 -16.2666 64.1992c-0.200195 26.9141 8.47559 50.543 23.2275 67.8672c18.5713 21.8096 48.8955 35.1621 78.8379 48.3047c143.257 62.9805 -16.1055 176.323 -110.344 123.333zM587.192 11.9258
c88.2568 -26.3145 142.473 49.668 135.749 108.259l33.8574 -18.7139c-28.8662 -68.2861 -71.085 -101.448 -169.837 -101.438c-28.667 0 -57.8857 7.38086 -85.1523 22.3906c-72.667 40.0381 -116.648 125.457 -110.715 207.019
c-4.25684 -15.8379 -8.00879 -32.0098 -11.7324 -48.0762c-17.8096 -76.9619 -30.876 -158.076 -114.771 -176.6c-41.7334 -9.21875 -86.667 -5.65723 -127.619 16.876c-94.7432 52.1904 -140.733 181.505 -90.9053 278.867
c21.2861 41.6191 55.9434 71.3809 100.172 84.4473c64.1523 18.9238 157.429 1.07617 204.333 -75.9619l-38.3047 -14.9424c-35.0479 68.6191 -122.876 98.3623 -176.171 81.4102c-36.7617 -11.6953 -67.5137 -41.7529 -82.8184 -77.3818
c-11.8281 -27.543 -10.8184 -54.5615 -4.02832 -88.5234c12.9043 -64.6572 57.2666 -127.096 101.771 -159.743c34.7998 -25.5332 72.2949 -43.0859 111.447 -37.7051c76.6377 10.543 94.8281 94.2666 112.009 170.381c6.93359 29.9336 13.9619 60.2383 24.124 88.0957
c3.13379 10.4951 7.20996 20.7715 12.3057 30.7139c21.2861 41.6191 55.9434 71.3711 100.172 84.4287c42.457 12.5234 98.4473 7.66602 140.818 -15.667c66.3525 -38.3047 29.0098 -86.2383 -25.0947 -114.876c-11.7139 -6.2002 -24.457 -11.791 -37.2666 -17.4385
h-0.00976562c-29.4189 -12.9336 -59.2471 -26.0381 -77.0469 -46.9717c-13.9805 -16.4287 -22.1992 -38.9141 -22.0186 -64.6094c0.162109 -22.3809 6.7334 -47.2285 21.4854 -72.667c1.30469 -1.00977 2.60938 -1.99121 3.91406 -2.95312
c22.4668 -16.4766 46.4854 -31.1904 71.333 -38.6191z" />
    <glyph glyph-name="cs.liga" unicode="cs" horiz-adv-x="768" 
d="M453.066 348.619c-12.3623 -17.0762 -13.1611 -39.4668 8.14355 -63.6768c20.6289 -23.457 52.877 -35.9238 89.7812 -48.5049c64.4668 -21.9814 193.629 -57.6572 194.981 -139.152c0.333008 -20 -8.23828 -40.4287 -28.2578 -59.791
c-17.4385 -16.876 -39.334 -27.6279 -66.0771 -33.1895c-69.6953 -14.5049 -165.838 10.3145 -230.057 33.876v73.124c44.5615 -41.3906 153.333 -107.81 227.19 -100.048c41.4668 4.35254 88.4951 36.2861 74.5908 74.7715
c-12.2002 33.7715 -56.6953 56.2764 -105.181 73.1621c-39.7812 13.8477 -123.915 31.7617 -170.458 68.457c-46.4189 36.6289 -17.4473 97.5625 5.34277 120.972zM528.315 389.229c11.667 1.7334 23.4297 2.5332 34.8389 2.5332
c49.6094 0 100.104 -12.7139 146.457 -29.7139v-58.4385c-62.9424 49.5996 -135.742 80.8096 -180.057 77.7715c-34.3047 -2.35254 -59.6758 -14.2949 -78.8662 -31.9805c-40.1523 -37.0283 -53.248 -99.2764 -64.543 -151.448
c-15.9336 -73.6475 -35.4287 -173.381 -121.562 -192.419c-41.7334 -9.21875 -86.667 -5.66602 -127.619 16.8672c-94.7334 52.1904 -140.715 181.505 -90.9053 278.876c21.2949 41.6191 55.9424 71.3809 100.171 84.4473c64.1523 18.9238 157.429 1.07617 204.333 -75.9619
l-38.3047 -14.9521c-35.0479 68.6289 -122.867 98.3721 -176.172 81.4199c-36.7617 -11.7051 -67.5137 -41.7529 -82.8184 -77.3818c-11.8281 -27.543 -10.8096 -54.5615 -4.02832 -88.5332c12.9043 -64.6572 57.2666 -127.096 101.771 -159.733
c34.7998 -25.5332 72.2949 -43.0762 111.447 -37.7051c83.9619 11.543 104.048 118.104 118.781 186.133c14 64.6572 27.4385 119.4 64.6387 153.915c19.6377 18.248 45.9424 30.8574 82.4375 36.3047z" />
    <glyph glyph-name="ry.liga" unicode="ry" horiz-adv-x="661" 
d="M375.762 317.495l158.173 -273.962l53.4951 92.6475c13.6094 23.5615 23.7715 44.752 31.0195 64.0381c7.20996 19.2188 11.5146 36.5811 13.4482 52.5811c2.44727 20.5146 0.894531 44 -5.85742 65.3623c-5.78125 18.2383 -15.3525 34.9141 -29.4385 46.7422
c-8.49512 7.12402 -18.5996 12.7051 -30.2754 16.457c-43.4189 13.9238 -72.7051 -13.9424 -109.182 -19.9141l-17.333 30.5234h87.9238c14.9141 0 28.2949 -2.05762 40.123 -5.83887c12.3428 -3.97168 23.0186 -9.85742 31.9707 -17.4004
c14.8857 -12.4951 24.9619 -29.9805 31.0195 -49.0762c6.96191 -22.0381 8.59961 -46.2949 6.04688 -67.457c-1.95215 -16.3623 -6.36133 -34.1055 -13.7324 -53.7432c-7.34277 -19.5615 -17.6191 -40.9805 -31.3525 -64.79l-77.8281 -134.79l-0.0195312 -0.0185547
l-51.7617 -87.9238c-59.6191 -103.257 -155.581 -138.533 -257.553 -97.3525l12.4287 41.3809c84.2188 -48.6191 184.285 -39.3047 244.714 65.3906l47.0859 79.7812l-171.619 297.238c-25.21 43.667 -44.7246 79.7051 -100.077 68.6855
c-22.7432 -4.51465 -45.0957 -16.3242 -63.877 -31.6289c-19.7432 -16.0859 -34 -34.9814 -46.3145 -57.0195c-11.5527 -20.7051 -19.8857 -44.1523 -19.8857 -75.7432v-153.553c0 -24.1338 19.667 -43.8096 43.8008 -43.8096h0.847656v-4.32422h-132.705v4.32422h0.828125
c24.1143 0 43.8096 19.6758 43.8096 43.8096v283.21c0 12.9717 -10.5908 23.543 -23.5625 23.543l-21.0762 -0.00976562l88.0576 36.9805v-87.6289c0 -6.15234 3.91406 -11.3711 9.7998 -13.085c9.23828 -2.68555 14.3242 4.48633 19.0576 11.4199
c23 33.5615 57.2949 62.3809 95.8379 77.6758c15.124 6.00977 30.8955 9.94336 46.9053 11.2578c52.8281 4.39062 72.9619 -32.2852 97.0576 -73.9805z" />
    <glyph glyph-name="cy.liga" unicode="cy" horiz-adv-x="652" 
d="M352.714 72.8662c1.22852 2 2.35938 3.99121 3.43555 5.98145h7.81934c-1.5332 -2.60938 -3.15234 -5.2002 -4.82812 -7.76172c-16.0098 -24.3145 -35.1143 -42.1426 -61.2002 -55.7041c-49.0859 -25.5146 -108.639 -24.8574 -160.981 3.95215
c-94.7236 52.1904 -140.733 181.505 -90.8857 278.876c21.2861 41.6191 55.9434 71.3711 100.172 84.4473c82.0283 24.1904 179.143 2.10449 224.019 -75.6387l153.495 -265.876l54.752 94.876c13.6094 23.5615 23.7715 44.752 31.0195 64.0381
c7.20996 19.2002 11.5146 36.5811 13.4287 52.5811c2.45703 20.5049 0.895508 44 -5.85645 65.3623c-5.78125 18.2383 -15.3525 34.9141 -29.4385 46.7422c-8.49512 7.12402 -18.5996 12.7236 -30.2754 16.457c-43.4189 13.9141 -72.7051 -13.9434 -109.182 -19.915
l-17.333 30.5234h87.9238c14.9336 0 28.2959 -2.05762 40.124 -5.84766c12.3428 -3.96191 23.0186 -9.84766 31.9707 -17.3906c14.8857 -12.4951 24.9619 -29.9805 31.0195 -49.0762c6.96191 -22.0381 8.59961 -46.2949 6.04688 -67.457
c-1.95215 -16.3711 -6.36133 -34.1045 -13.7324 -53.7422c-7.34277 -19.5615 -17.6191 -40.9805 -31.3623 -64.79l-79.0957 -137.01v-0.0185547l-51.7617 -87.9238c-59.6191 -103.257 -155.562 -138.533 -257.552 -97.3525l12.4287 41.3809
c84.2188 -48.6191 184.285 -39.3047 244.732 65.3906l47.0859 79.7812l-172.619 298.952c-34.3906 59.5527 -123.066 97.6953 -189.971 76.4385c-36.752 -11.6855 -67.5137 -41.752 -82.8086 -77.3809c-11.8281 -27.543 -10.8184 -54.5615 -4.03711 -88.5234
c12.9238 -64.6572 57.2666 -127.096 101.781 -159.743c46.752 -34.2949 98.3809 -54.2666 152.333 -23.3623c21.1045 12.1143 36.2471 27.1904 49.333 48.7334z" />
    <glyph glyph-name="il.liga" unicode="il" horiz-adv-x="328" 
d="M101.053 48.1299c0 -24.1299 19.6768 -43.8057 43.8066 -43.8057h0.848633v-4.32324h-132.707v4.32324h0.832031c24.1299 0 43.8057 19.6758 43.8057 43.8057v283.197c0 12.9707 -10.5889 23.5596 -23.5596 23.543l-21.0791 -0.0166016l88.0527 37.0029v-343.727z
M307.635 4.32422l0.84668 0.0136719v-4.32324h-132.707v4.32324h0.848633c24.1299 0 43.8057 19.6758 43.8057 43.8057v283.197c0 0.636719 0.130859 1.27344 0.277344 1.89355v47.3623c0.0322266 63.6455 2.75684 122.396 -13.4277 160.606
c-10.083 23.7715 -37.4756 44.5732 -63.9385 34.9473c-51.4902 -18.7783 -35.0938 -140.979 -75.6045 -167.441l-43.8223 37.6553c21.21 37.9004 63.6455 140.098 127.895 137.83c40.1514 -1.41895 81.4121 -41.8154 97.2217 -77.4639
c11.6494 -26.2676 15.0596 -57.5762 15.0596 -92.4902c0.0166016 -121.923 -0.798828 -243.192 -0.276367 -365.181c0 -0.586914 0.114258 -0.929688 0.0654297 -1.48438c0.30957 -23.8525 19.8223 -43.251 43.7568 -43.251z" />
    <glyph glyph-name="ff.liga" unicode="ff" horiz-adv-x="390" 
d="M12.3809 387.257l0.00292969 5.03027h57.1338v33.6377c0 34.9141 3.40918 66.2188 15.0566 92.4951c11.0283 24.876 27.9707 45.2002 50.666 59.7432c8.86621 5.67578 18.6475 10.4854 29.2471 14.2852c41.0859 14.79 91.8193 10.9043 138.238 -0.961914
c-4.64746 -2.31445 -9.18066 -4.87598 -13.5615 -7.67578c-5.03809 -3.23828 -9.81934 -6.74316 -14.3047 -10.4951c-33.6094 17.8193 -70.3994 28.7998 -108.523 14.1426c-55.457 -21.2861 -53.4668 -103.743 -53.4004 -195.19h114.134v33.6377
c0 34.9141 3.41895 66.2285 15.0664 92.4951c11.0283 24.876 27.9619 45.209 50.6572 59.7422c8.87598 5.67578 18.6475 10.4951 29.2471 14.2949c55.6855 20.0186 129.104 5.79004 185.429 -16.1523l-30.79 -30.124c-44.248 29.3906 -97.1055 62.7051 -152.829 41.3145
c-55.4473 -21.2949 -53.457 -103.752 -53.3906 -195.19h119.028l-4.12402 -5.02832h-114.904v-338.828c0 -24.1338 19.6758 -43.8096 43.7998 -43.8096h0.847656v-4.32422h-132.705v4.32422h0.828125c24.1143 0 43.8096 19.6758 43.8096 43.8096v338.828h-114.124v-338.828
c0 -24.1338 19.6758 -43.8096 43.8096 -43.8096h0.847656v-4.32422h-132.705v4.32422h0.828125c24.1143 0 43.8096 19.6758 43.8096 43.8096v338.828h-57.124z" />
    <glyph glyph-name="ffl.liga" unicode="ffl" horiz-adv-x="542" 
d="M227.038 392.286l0.0234375 33.6387c0 34.9141 3.40918 66.2188 15.0566 92.4951c11.0283 24.876 27.9619 45.2002 50.6572 59.7432c8.87598 5.67578 18.6475 10.4854 29.2568 14.2852c47.543 17.1045 108.02 9.21875 159.733 -7.0957v-536.924
c0 -24.1338 19.6758 -43.8096 43.8096 -43.8096h0.847656v-4.32422h-132.705v4.32422h0.828125c24.1143 0 43.8096 19.6758 43.8096 43.8096v521.638c-36.2861 20.3145 -73.6484 32.4385 -114.506 17.4102c-55.4473 -21.2949 -53.457 -103.752 -53.3906 -195.19h119.028
l-4.12402 -5.02832h-114.904v-338.828c0 -24.1338 19.6758 -43.8096 43.7998 -43.8096h0.847656v-4.32422h-132.705v4.32422h0.828125c24.1143 0 43.8096 19.6758 43.8096 43.8096v139.086v199.743h-114.124v-338.828c0 -24.1338 19.6758 -43.8096 43.8096 -43.8096
h0.847656v-4.32422h-132.705v4.32422h0.828125c24.1143 0 43.8096 19.6758 43.8096 43.8096v338.828h-57.124v5.02832h57.1338v33.6377c0 34.9141 3.40918 66.2188 15.0566 92.4951c11.0283 24.876 27.9707 45.2002 50.666 59.7432
c8.86621 5.67578 18.6475 10.4854 29.2471 14.2852c41.0859 14.79 91.8193 10.9043 138.22 -0.961914c-4.64746 -2.31445 -9.18066 -4.87598 -13.5518 -7.67578c-5.04785 -3.23828 -9.8291 -6.74316 -14.3145 -10.4951c-33.6094 17.8193 -70.3994 28.7998 -108.523 14.1426
c-55.457 -21.2861 -53.4668 -103.743 -53.4004 -195.19c38.0283 0.0185547 76.0762 0.0185547 114.124 0.0185547z" />
    <glyph glyph-name="st.liga" unicode="st" horiz-adv-x="653" 
d="M464.214 40.1045c-28.7812 38.667 -29.875 84.2178 -29.875 129.685v217.172h-48.333l4.12402 5.02832h44.21v14.0479c0 51.6855 -4.72363 210.038 -125.323 156.096c-24.543 -11.7617 -44.9814 -32.1045 -56.5342 -58.6953
c-24.7812 -57.0381 1.07617 -107.238 56.3809 -141.41v-58.4385c-141.353 87.3525 -73.2861 274.028 47.8564 275.353c86.3525 0.923828 120.99 -103.752 121.057 -178.552v-8.40039h137.104l-4.12402 -5.02832h-82.5996c-27.752 0 -50.3809 -22.6289 -50.3809 -50.3809
v-167.391c0 -42.3525 0.19043 -83.667 23.0859 -121.058c35.3047 -56.3711 95.8281 -42.3613 142.343 -9.89453v-6.13379c-25.4766 -17.1904 -54.915 -29.1045 -85.001 -31.5996c-36.8857 -3.04785 -70.4951 8.12402 -93.9902 39.6006zM93.3301 373.988
c26.0479 12.7432 57.0449 17.7705 85.8447 17.7705c18.4385 0 37 -1.76172 55.4189 -4.83789c4.19043 -13.3906 10.0859 -26.0479 17.4385 -37.876c-41.1621 41.0762 -114.609 42.2383 -156.361 21.1904c-32.3525 -16.2949 -50.6191 -48.7041 -18.4473 -85.2949
c20.6191 -23.457 52.876 -35.9238 89.7803 -48.5049c64.4766 -21.9814 193.629 -57.6572 194.981 -139.152c0.324219 -20 -8.2373 -40.4287 -28.2559 -59.791c-17.4385 -16.876 -39.334 -27.6279 -66.0576 -33.1895c-69.7051 -14.5049 -165.829 10.3145 -230.067 33.876
v73.124c44.5615 -41.3906 153.333 -107.81 227.19 -100.048c41.4766 4.35254 88.4951 36.2861 74.5908 74.7715c-12.2002 33.7715 -56.6953 56.2764 -105.181 73.1621c-56.9902 19.8379 -203.818 49.5811 -204.676 125.8c-0.418945 37.8193 31.6387 73.3047 63.8008 89z" />
    <glyph glyph-name=".notdef" horiz-adv-x="527" 
d="M50 700h427v-700h-427v700zM78 680l185 -309l186 309h-371zM251 350l-180 300v-601zM264 329l-185 -308h370zM276 350l181 -303v605z" />
    <glyph glyph-name=".null" horiz-adv-x="0" 
 />
    <glyph glyph-name=".null" horiz-adv-x="0" 
 />
    <glyph glyph-name="controlLF" unicode="&#xa;" horiz-adv-x="0" 
 />
    <glyph glyph-name="controlCR" unicode="&#xd;" horiz-adv-x="0" 
 />
    <glyph glyph-name="space" unicode=" " horiz-adv-x="199" 
 />
    <glyph glyph-name="exclam" unicode="!" horiz-adv-x="184" 
d="M88.6025 99.75l6.46094 -0.000976562c21.3398 0 38.7803 -22.4336 38.7803 -49.876c0 -27.4258 -17.457 -49.875 -38.7812 -49.875h-6.46094c-21.3398 0 -38.7803 22.4336 -38.7803 49.876s17.457 49.876 38.7812 49.876zM47.6191 666.665h88.6895
c0 -23.0693 -33.1689 -381.984 -33.1689 -517.399h-22.3516c0 135.415 -33.1689 494.33 -33.1689 517.399z" />
    <glyph glyph-name="quotedbl" unicode="&#x22;" horiz-adv-x="332" 
d="M88.7432 705.629c37.0664 0 58.7324 -28.6494 59.4658 -62.8682c1.19043 -55.0283 -55.9141 -107.009 -114.876 -115.685c17.3145 7.43848 69.1621 53.6387 29.8096 74.1055c-17.7051 9.21875 -29.8096 27.5234 -29.8096 49.0283
c0 30.4766 24.9336 55.4189 55.4102 55.4189zM183.704 650.208c0 30.4766 24.9336 55.417 55.4102 55.417c37.0664 0 58.7334 -28.6475 59.4668 -62.8662c1.19043 -55.0283 -55.9053 -107.009 -114.877 -115.666c17.3145 7.43848 69.1621 53.6387 29.8096 74.0957
c-17.6855 9.20996 -29.8096 27.5146 -29.8096 49.0195z" />
    <glyph glyph-name="numbersign" unicode="#" horiz-adv-x="793" 
d="M236.324 216.286l273.048 0.0371094l49.79 247.286l-273.048 -0.0283203zM327.086 666.942l-38.2939 -190.172l273.048 0.0380859l38.2949 190.152h9.77148l-38.2949 -190.152l193.743 0.0195312l-1.92383 -13.1904l-194.457 -0.00976562l-49.8096 -247.305
l190.409 0.00976562l-1.92383 -13.1807l-191.143 -0.00976562l-40.8379 -202.828h-9.79004l40.8477 202.828l-273.048 -0.0380859l-40.8379 -202.81h-9.77148l40.8379 202.79l-196.286 -0.00976562l1.92383 13.1807l197.019 0.0195312l49.7998 247.305l-192.981 -0.0185547
l1.92383 13.1807l193.695 0.0195312l38.2949 190.181h9.79004z" />
    <glyph glyph-name="dollar" unicode="$" horiz-adv-x="574" 
d="M290.276 309.477l-54.7988 -272.116c43.1045 -17.5234 88.9326 -26.7422 135.971 -21.8086c40.5908 4.23828 83.4287 26.1338 107.972 55.4199c27.3047 32.6289 33.1045 62.1719 24.7803 88.7529c-21.3906 68.2285 -115.934 109.343 -213.924 149.752zM293.325 381.17
l48.8857 242.762c-35.6377 17.0186 -70.4375 26.3809 -105.171 27.7715c-77.8193 3.11426 -169.515 -48.5811 -152.61 -117.391c17.1338 -69.7715 103.182 -111.676 194.953 -147.695zM143.992 636.76c44.3145 21.6289 97.0762 30.1973 146.104 30.1973
c21.21 0 41.1143 -2.35254 59.5713 -6.08594l12.2188 60.7236h11.3711l-12.7139 -63.124c49.7139 -11.7998 87.9707 -32.79 111.646 -42.0947v-83.5332c-41.5234 37.248 -81.085 66.0293 -119.638 85.9531l-48.6855 -241.771
c98.2949 -38.6572 228.181 -94.6758 230.219 -211.19c0.609375 -33.9814 -14.0479 -68.8096 -48.0957 -101.733c-29.6758 -28.7051 -66.9707 -48.1621 -112.438 -57.6094c-47.79 -9.93359 -97.0283 -6.98145 -143.924 1.95215l-12.6377 -62.8281h-11.3711l13.0859 65.0381
c-65.2666 13.8193 -125.286 38.3721 -169.534 54.6201v102.152c47.333 -45.9424 107.962 -95.6562 175.81 -125.608l54.7715 272c-75.1143 30.9043 -150.8 61.9521 -195.828 104.972c-81.6094 77.9902 -22.9902 177.409 60.0674 217.971z" />
    <glyph glyph-name="percent" unicode="%" horiz-adv-x="427" 
d="M112.696 662.819c94.2188 27.7051 176.029 -100.989 120.753 -184.494c-9.5332 -14.3906 -20.8857 -24.9619 -36.4004 -32.9717c-93.7334 -48.5049 -190.762 76.3994 -143.934 167.476c12.6572 24.6475 33.2861 42.2666 59.5811 49.9902zM200.259 450.525
c89.2764 48.0664 -7.29492 234.029 -93.5996 206.677c-21.876 -6.91406 -39.9521 -24.8096 -49.2568 -45.8291c-27.9717 -63.1719 66.8281 -204.2 142.856 -160.848zM187.792 178.308c12.6475 24.6377 33.2676 42.2578 59.5723 49.9912
c94.2188 27.7051 176.019 -100.99 120.762 -184.485c-9.52344 -14.3906 -20.8857 -24.9619 -36.4004 -32.9814c-93.7236 -48.5049 -190.733 76.4092 -143.934 167.476zM334.927 16.0137c89.2764 48.0479 -7.27539 234 -93.5996 206.676
c-21.876 -6.91406 -39.9424 -24.8184 -49.2568 -45.8281c-27.9814 -63.1719 66.8281 -204.2 142.856 -160.848zM386.042 666.671l-330.724 -666.667h-14.3525l330.724 666.667h14.3525z" />
    <glyph glyph-name="ampersand" unicode="&#x26;" horiz-adv-x="652" 
d="M315.878 78.5049l49.8096 54.7246l-184.98 232.934c-21.0195 -21.0479 -42.6191 -41.2959 -63.0576 -63.21c-62.6191 -72.3047 -40.6953 -156.771 10.9717 -209.172c49.6855 -50.3809 135.19 -76.4668 187.257 -15.2764zM421.363 358.544l-83.9307 -97.6006
l68.1143 -84.0195c9.34277 10.2764 19.543 22.1719 29.3145 32.0576c14.8477 15.0098 31.0664 26.0576 48.3613 32.124c26.6572 9.35254 55.2764 5.85742 79.0283 -7.29492c31.5811 -17.4854 51.7529 -50.2852 52.791 -86.5996
c1.16211 -41.0957 -21.7617 -78.1338 -61.8477 -95.5244l-44.3809 54.457c31.6758 1.57129 58.5234 23.79 65.9805 54.5898c2.48535 10.2666 2.62793 20.6855 0.704102 30.5898c-8.5332 43.6953 -51.457 57.9521 -90.3525 44.2949
c-16.3525 -5.74316 -31.7529 -16.2285 -45.9434 -30.5234c-9.83789 -9.95215 -16.4287 -17.9336 -29.9434 -32.7715l106.343 -131.143c16.6377 -20.5146 37.0664 -35.3525 63.5137 -35.3525h2.80957v-5.82812h-173.01v5.82812h16.3809
c20.7236 0 28.4189 16.543 16.6094 31.4189l-72.5527 91.3525l-49.1523 -54.0098c-20.5615 -24.124 -42.2754 -41.3525 -64.1035 -52.791c-24.1523 -12.667 -48.457 -18.1904 -71.5615 -18.0664c-28.3525 0.162109 -54.6006 9.03809 -76.8291 23.9043
c-21.4385 14.3242 -39.1523 34.248 -51.4668 57.2676c-12.3242 23.0186 -19.2383 49.1904 -19.0957 75.9902c0.162109 28.4287 8.27637 57.6094 26.3047 84.5811c14.1904 21.2285 31.7617 41.9619 49.8096 61.2949c20.667 22.1719 42.543 42.6484 63.791 63.9531
l-12.7715 16.0859c-68.0664 98.7432 24.9619 279.839 179.743 279.839c108.276 0 174.667 -70.9521 206.477 -160.457zM343.871 662.753c-133.371 0.342773 -211.523 -144.573 -130.39 -248.173l120.229 -149.038l82.4189 95.8193
c51.1045 59.4004 81.2383 147.048 43.1904 221.105c-25.21 49.0859 -74.6104 80.1719 -115.448 80.2861z" />
    <glyph glyph-name="quotesingle" unicode="'" horiz-adv-x="112" 
d="M51.3818 602.325c30.5908 0 48.4561 -23.6396 49.0762 -51.8643c0.978516 -45.4053 -46.1396 -88.2979 -94.791 -95.46c14.2754 6.13477 57.0537 44.2627 24.6025 61.1484c-14.6016 7.60254 -24.6025 22.71 -24.6025 40.4609c0 25.1416 20.5566 45.7148 45.7148 45.7148z
" />
    <glyph glyph-name="quotesingle" unicode="&#x2019;" horiz-adv-x="112" 
d="M51.3818 602.325c30.5908 0 48.4561 -23.6396 49.0762 -51.8643c0.978516 -45.4053 -46.1396 -88.2979 -94.791 -95.46c14.2754 6.13477 57.0537 44.2627 24.6025 61.1484c-14.6016 7.60254 -24.6025 22.71 -24.6025 40.4609c0 25.1416 20.5566 45.7148 45.7148 45.7148z
" />
    <glyph glyph-name="quotesingle" unicode="&#x2018;" horiz-adv-x="112" 
d="M51.3818 602.325c30.5908 0 48.4561 -23.6396 49.0762 -51.8643c0.978516 -45.4053 -46.1396 -88.2979 -94.791 -95.46c14.2754 6.13477 57.0537 44.2627 24.6025 61.1484c-14.6016 7.60254 -24.6025 22.71 -24.6025 40.4609c0 25.1416 20.5566 45.7148 45.7148 45.7148z
" />
    <glyph glyph-name="parenleft" unicode="(" horiz-adv-x="213" 
d="M173.134 666.667c-41.8662 -84.4766 -65.1426 -207.104 -63.7041 -332.904c-1.43848 -126.134 21.8564 -249.067 63.7227 -333.763c-55.876 41.8193 -127.438 204.819 -127.438 333.762c0 128.609 71.5615 291.2 127.419 332.905z" />
    <glyph glyph-name="parenright" unicode=")" horiz-adv-x="213" 
d="M40 666.667c55.8662 -41.7051 127.419 -204.297 127.419 -332.906c0 -128.942 -71.5527 -291.942 -127.419 -333.762c41.8662 84.6953 65.1611 207.629 63.7227 333.763c1.43848 125.8 -21.8564 248.429 -63.7227 332.905z" />
    <glyph glyph-name="asterisk" unicode="*" horiz-adv-x="303" 
d="M143.41 617.79l15.46 -0.0185547l15.7695 -86.2998l83.9199 29.0098l7.73047 -13.3896l-66.8701 -56.8301l67.0801 -58.1602l-7.74023 -13.4004l-82.6396 29.5l-16.8301 -87.1699h-15.4697l-15.7695 86.2998l-83.9199 -28.9902l-7.73047 13.3896l66.8604 56.8301
l-67.0703 58.1602l7.73047 13.3799l82.6396 -29.4805z" />
    <glyph glyph-name="plus" unicode="+" horiz-adv-x="304" 
d="M170.2 181.98h-36.8398v100.04h-100.03v36.8301h100.03v100.04h36.8398v-100.04h100.03v-36.8301h-100.03v-100.04z" />
    <glyph glyph-name="comma" unicode="," horiz-adv-x="169" 
d="M67.8203 84.4004c29.9805 0 47.5117 -23.1611 48.1113 -50.8516c0.950195 -44.5098 -45.2402 -86.5293 -92.9307 -93.5488c14 6.01953 55.9297 43.3799 24.1094 59.9395c-14.3203 7.44043 -24.1104 22.2607 -24.1104 39.6504c0 24.6504 20.1699 44.8105 44.8203 44.8105z
" />
    <glyph glyph-name="hyphen" unicode="-" horiz-adv-x="286" 
d="M261.66 280.02h-236.9v36.8301h236.9v-36.8301z" />
    <glyph glyph-name="period" unicode="." horiz-adv-x="149" 
d="M66.748 95.0518c21.3076 0 38.748 -20.9971 38.748 -46.6611v-1.72949c0 -25.6641 -17.4404 -46.6611 -38.748 -46.6611s-38.748 20.9971 -38.748 46.6611v1.72949c0 25.6641 17.4404 46.6611 38.748 46.6611z" />
    <glyph glyph-name="slash" unicode="/" horiz-adv-x="233" 
d="M174.19 666.391h19.7236l-134.19 -666.391h-19.7236z" />
    <glyph glyph-name="zero" unicode="0" horiz-adv-x="560" 
d="M204.825 655.248c211.495 79.4668 395.104 -289.885 271.057 -529.504c-21.3711 -41.3145 -46.876 -71.6289 -81.7041 -94.667c-210.381 -139.2 -428.152 219.295 -323.086 480.657c28.4189 70.7617 74.7051 121.323 133.733 143.514zM401.406 45.9443
c231.638 168.686 -16.4004 671.638 -210.124 593.171c-49.0957 -19.8955 -90.1436 -70.9717 -110.553 -131.524c-77.2666 -229.028 150.02 -586.047 320.677 -461.646z" />
    <glyph glyph-name="one" unicode="1" horiz-adv-x="223" 
d="M181.362 0c-44.2383 0 -88.4756 -0 -132.704 0.0185547v4.32422h0.837891c24.0762 0 43.7998 2.93359 43.7998 27.0098v604.219l-51.1904 -29.5615l-0.200195 0.342773v5.33301l94.8096 54.7236v-635.066c0 -24.1143 19.7236 -27.0186 43.7998 -27.0186h0.847656
v-4.32422z" />
    <glyph glyph-name="two" unicode="2" horiz-adv-x="501" 
d="M455.54 114.238l4.56641 -0.000976562l-29.8193 -114.238h-372.134v66.7803c0 18.3809 9.81934 34.1426 26.3525 42.2383c56.3047 27.5332 121.019 74.9336 174.466 115.343c50.4004 38.1143 112.543 110.134 126.172 173.705
c18.9043 88.2666 -23.6484 182.276 -96.2773 220.505c-124.324 65.4092 -257.877 -36.7812 -241.039 -158.296l-5.05762 1.25684c-15.4854 118.4 70.3145 203.781 170.981 205.21c188.571 2.7334 304.733 -220.247 154.686 -362.58
c-78.543 -77.333 -199.134 -159.676 -277.182 -198.848c-15.7139 -7.88574 -25.0088 -21.7998 -25.0088 -40.5234v-18.752l2.06641 -2.60938h330.6c20.6377 0 44.4854 35.5811 56.6279 70.8096z" />
    <glyph glyph-name="three" unicode="3" horiz-adv-x="559" 
d="M60.8574 147.81l5.43945 -0.0263672c5.31445 -16.0195 13.1143 -31 21.9902 -45.1904c34.1426 -54.5615 118.295 -85.2285 196.143 -79.6855c50.2285 3.59082 100.857 20.9619 140.372 55.9141c82.0283 71.4385 90.5996 175.334 43.2373 253.743
c-23.2002 38.4092 -63.876 66.0664 -107.8 89.7998l-29.3809 16.8574c33.4951 14.5811 151.19 124.4 50.9336 189.172c-25.4473 16.4473 -58.6855 27.0469 -94.7432 30.7988c-90.4668 9.43848 -187.619 -59.3135 -235.571 -151.904l-15.2861 37.7812
c49.0576 94.7236 159.22 129.219 251.334 119.628c36.7617 -3.83789 70.7139 -14.6855 96.7998 -31.543c26.3623 -17.0283 44.7627 -40.2285 50.1055 -68.5332c7.30469 -38.8379 -10.0664 -87.0283 -65.4287 -141.733l0.933594 -0.504883
c26.0664 -14.0195 50.7041 -30.1055 72.209 -48.5342c99.0186 -84.9238 104.771 -228.238 6.15137 -315.429c-81.5811 -72.124 -215.896 -77.5908 -306.838 -15.6953c-38.1621 25.9902 -67.0098 62.3613 -80.6006 105.085z" />
    <glyph glyph-name="four" unicode="4" horiz-adv-x="480" 
d="M420.038 0c-44.248 0 -88.4746 -0.00195312 -132.703 -0.00195312v4.32422h0.828125c24.0664 0 43.8096 2.95215 43.8096 27.0186v254.81h-311.02l227.972 380.058h51.3428l-266.362 -375.038h298.066v209.362l43.4092 54.7812v-264.124h48.0195
c9.2666 0 13.1807 7.55273 13.1807 16.8193v1.11426h4.40039v-40.8857h-4.40039v1.0957c0 9.24805 -3.91406 16.8193 -13.1807 16.8193h-48.0195v-254.81c0 -24.1143 19.7432 -27.0186 43.8096 -27.0186h0.847656v-4.32422z" />
    <glyph glyph-name="five" unicode="5" horiz-adv-x="517" 
d="M411.942 666.238l29.9248 -82.958c8.07617 -22.4004 -21.0479 39.5137 -43.5146 39.5137h-288.485l-57.0381 -249.667c17.1807 29.8574 43.0381 54.6289 73.2764 72.9434c44.9805 27.248 89.666 37.6387 132.98 33.877
c34.6377 -3.01953 68.4092 -15.1152 100.742 -34.9053c127.066 -77.7334 154.323 -261.4 47.1426 -377.953c-76.1426 -82.8096 -201.543 -89.1143 -286.429 -18.0283c-37.0859 31.0479 -64.7432 75.0381 -76.7334 126.705l4.71387 1.23828
c4.91406 -21.1621 12.9902 -40.7334 22.3711 -59.1719c31.8574 -62.6475 110.438 -97.8574 183.086 -91.4766c46.8857 4.10449 92.0195 26.3613 128.905 66.4756c131.762 141.143 11.3428 408.6 -188.943 374.009c-33.4189 -5.76172 -65.8662 -20.9619 -95.1992 -46.4766
c-21.4668 -18.6855 -39.2568 -40.9717 -50.4092 -66.7148l-4.40918 1.64746l61.1143 267.533l0.0664062 0.256836l5.9043 25.876l0.0478516 -0.00976562l4 17.2861h296.886z" />
    <glyph glyph-name="six" unicode="6" horiz-adv-x="524" 
d="M221.408 12.5811c47.6758 -13.752 100.257 -6.07617 139.399 17.3242c148.038 88.5049 93.1904 402.429 -92.9141 419.457c-252.591 23.2383 -234.609 -382.467 -46.4854 -436.781zM43.0078 228.114c-0.743164 19.2666 1.36035 45.1162 3.94141 64.707
c5.58105 42.1807 16.0098 82.7041 30.5146 119.723c54.7139 140.457 177.361 255.314 379.171 253.781c7.39062 -15.7139 14.7812 -31.4092 22.1719 -47.1143c-217.98 46.8379 -342.628 -70.3428 -396.58 -208.857c-13.2949 -34.1426 -22.5518 -69.8281 -27.8662 -105.714
c3.54297 13.457 6.60938 24.2852 11.79 37.2949c21.7051 44.3906 58.6289 81.2002 111.076 100.695c32.8096 12.1904 64.9521 16.1807 102.066 11.3994c224.219 -28.8955 270.704 -338.81 87.876 -431.267c-49.4854 -25.0479 -106.161 -29.791 -162.837 -12.3057
c-103.248 31.8955 -157.725 124.762 -161.324 217.657z" />
    <glyph glyph-name="seven" unicode="7" horiz-adv-x="441" 
d="M31.8213 583.429l29.3047 82.9434h354.134l-289.2 -666.353h-75.7812l341.848 622.942h-317.686c-22.0098 0 -50.5146 -61.9238 -42.6191 -39.5332z" />
    <glyph glyph-name="eight" unicode="8" horiz-adv-x="541" 
d="M214.011 357.4c-37.5996 16.8477 -72.6855 35.1553 -100.972 56.6982c-45.5332 34.6855 -81.5615 87.2852 -61.7715 145.219c23.6953 69.3711 116.819 107.009 186.857 107.075c177.848 0.162109 289.314 -161.114 171.2 -263.477
c-27.4473 -23.7812 -62.9326 -39.8389 -103.656 -46.5439c209.876 -99.6191 241.876 -208.333 128.276 -304.429c-36.7812 -31.124 -85.334 -52.2002 -145.029 -51.9619c-191.934 0.819336 -304.819 186.19 -202.391 295.714
c33.0186 35.2764 79.7617 53.5908 127.485 61.7051zM69.8682 554.832c-7.91406 -101.771 177.267 -165.533 230.467 -195.162c40.9238 4.55273 77.124 22.4668 101.238 46.6094c88.3145 88.3623 -20.7715 243.324 -163.02 253.362
c-62.4766 4.40039 -163.2 -34.1523 -168.686 -104.81zM95.3066 290.051c-76.9238 -112.638 69.9248 -291.732 208.572 -283.98c48.3711 2.69531 93.9424 22.1719 121.79 49.3906c139.267 136.028 -139.343 265.219 -202.647 298.237
c-43.333 -3.18066 -102.619 -26.9043 -127.715 -63.6475z" />
    <glyph glyph-name="nine" unicode="9" horiz-adv-x="524" 
d="M302.399 653.724c-47.667 13.7617 -100.257 6.07715 -139.391 -17.3232c-148.048 -88.5049 -93.1904 -402.429 92.9141 -419.457c252.591 -23.2383 234.61 382.476 46.4766 436.78zM480.81 438.21c0.733398 -19.2861 -1.37109 -45.1357 -3.95215 -64.707
c-5.58105 -42.1807 -16 -82.7041 -30.5049 -119.724c-54.7236 -140.457 -177.361 -255.314 -379.181 -253.781c-7.39062 15.7139 -14.7812 31.4092 -22.1719 47.1143c217.981 -46.8379 342.629 70.334 396.591 208.849c13.2949 34.1523 22.543 69.8281 27.8672 105.724
c-3.54297 -13.457 -6.60938 -24.2949 -11.7998 -37.2949c-21.6953 -44.3906 -58.6191 -81.2002 -111.076 -100.695c-32.8096 -12.2002 -64.9434 -16.1807 -102.067 -11.3994c-224.219 28.8857 -270.695 338.81 -87.8672 431.267
c49.4668 25.0479 106.143 29.791 162.838 12.3057c103.238 -31.8955 157.715 -124.762 161.324 -217.657z" />
    <glyph glyph-name="colon" unicode=":" horiz-adv-x="182" 
d="M90.8955 178.533c29.0381 0 52.79 -23.7529 52.79 -52.791v-1.98047c0 -29.0381 -23.752 -52.79 -52.79 -52.79c-29.0479 0 -52.7998 23.752 -52.7998 52.79v1.98145c0 29.0381 23.752 52.79 52.7998 52.79zM38.0957 332.827c0 29.0381 23.752 52.79 52.7998 52.79
c29.0381 0 52.79 -23.752 52.79 -52.79v-1.97168c0 -29.0479 -23.752 -52.7998 -52.79 -52.7998c-29.0479 0 -52.7998 23.752 -52.7998 52.7998v1.97168z" />
    <glyph glyph-name="semicolon" unicode=";" horiz-adv-x="195" 
d="M95.4092 178.533c37.0664 0 58.7334 -28.6484 59.4668 -62.8584c1.19043 -55.0283 -55.9141 -107 -114.876 -115.676c17.3145 7.43848 69.1621 53.6484 29.8096 74.1055c-17.7051 9.21875 -29.8096 27.5234 -29.8096 49.0283c0 30.4766 24.9141 55.4004 55.4092 55.4004z
M44.6475 332.827c0 29.0381 23.752 52.79 52.7998 52.79c29.0381 0 52.79 -23.752 52.79 -52.79v-1.97168c0 -29.0479 -23.752 -52.7998 -52.79 -52.7998c-29.0479 0 -52.7998 23.752 -52.7998 52.7998v1.97168z" />
    <glyph glyph-name="less" unicode="&#x3c;" horiz-adv-x="334" 
d="M60.0098 220.371l233.942 -143.057v-77.3145l-260.619 198.714v43.3242l260.619 196.924v-78.4766z" />
    <glyph glyph-name="equal" unicode="=" horiz-adv-x="298" 
d="M30.4805 231.58v36.8301h236.89v-36.8301h-236.89zM30.4805 324.561v36.8301h236.89v-36.8301h-236.89z" />
    <glyph glyph-name="greater" unicode="&#x3e;" horiz-adv-x="334" 
d="M40 77.3145l233.942 143.057l-233.942 140.114v78.4766l260.619 -196.924v-43.3242l-260.619 -198.714v77.3145z" />
    <glyph glyph-name="question" unicode="?" horiz-adv-x="450" 
d="M225.338 666.455c120.992 -0.195312 186.253 -92.0322 186.253 -186.644c0 -167.426 -182.109 -200.104 -179.874 -328.716c-13.7207 -0.293945 -18.2402 -0.391602 -31.9609 -0.685547c-9.6582 47.4121 -31.1611 64.7227 31.8643 136.052
c36.8555 41.7012 108.544 111.514 114.564 203.433c6.9668 106.488 -78.916 172.499 -139.901 169.758c-77.04 -3.47559 -141.713 -88.1016 -115.005 -157.522l-55.7979 -32.0752c-22.5967 137.617 82.2109 196.58 189.857 196.4zM220.606 107.566
c25.6641 0 46.6611 -23.7539 46.6611 -52.8115v-1.95801c0 -29.041 -20.9971 -52.7959 -46.6611 -52.7959s-46.6611 23.7549 -46.6611 52.7959s20.9971 54.7695 46.6611 54.7695z" />
    <glyph glyph-name="at" unicode="@" horiz-adv-x="728" 
d="M345.276 117.438c24.1807 0 46.2178 5.72363 66.1514 17.1621c14.3428 8.23828 25.2383 21.9434 35.0479 35.5527c13.2949 18.4473 34.0664 115.619 1.02832 157.848c-16.6953 21.3047 -44.1045 28.5996 -74.8184 28.5996c-35.9902 0 -66.7998 -13 -92.4473 -39.124
c-25.6475 -26.1045 -38.4668 -58.1328 -38.4668 -96.1426c0 -31.0957 9.59082 -56.1914 28.7812 -75.2959c19.1807 -19.1045 44.0947 -28.5996 74.7236 -28.5996zM501.933 79.2959c-31.1807 -1.34277 -46.7773 35.6465 -44.3584 55.3896
c-34.1338 -34.4092 -73.0762 -51.5811 -116.8 -51.5811c-39.7812 0 -72.5244 12.8281 -98.1719 38.5713c-25.6475 25.6475 -38.4668 58.7812 -38.4668 99.1816c0 46.6953 16.6855 86.8291 50.1807 120.306c33.4189 33.4951 72.7998 50.2852 118.104 50.2852
c24.543 0 46.0479 -5.07617 64.4951 -15.2188c18.457 -10.248 33.9521 -26.1055 46.5137 -47.7051l7.47656 55.7334l33.8955 -35.0664l-29.3145 -216.096c-1.32422 -10.8281 -0.390625 -17.9141 2.24707 -21.9521c5.97168 -10.333 39.0479 11.5146 45.4385 16.0859
c53.9043 38.4473 81.9707 102.371 86.2471 168.99c5.58105 87.3623 -35.4668 165.01 -111.629 206.876c-41.1338 22.6094 -83.9717 34.7617 -135.581 34.7617c-51.5234 0 -102.295 -11.6191 -147.895 -34.1904c-43.8857 -21.7334 -83.0098 -53.6475 -113.419 -95.124
c-40.8193 -55.6758 -61.248 -121.428 -61.248 -187.18s20.4287 -131.495 61.248 -187.181c29.9141 -40.8096 68.2949 -72.7998 111.333 -94.7617c43.9521 -22.4092 92.7334 -34.3906 142.295 -34.6475c66.124 -0.342773 132.972 23.0859 186.172 63.4668
c89.8281 68.1621 109.504 156.324 124.57 238.314c2.86621 -42.1807 -1.87695 -79.8857 -14.0195 -115.724c-18.5146 -54.5908 -54.7334 -101.19 -100.467 -135.896c-56.0762 -42.543 -126.553 -67.2285 -196.324 -66.8662
c-52.2861 0.276367 -103.648 12.8477 -149.839 36.4092c-45.3047 23.1045 -85.7139 56.8096 -117.237 99.7998c-43 58.667 -64.5234 127.896 -64.5234 197.086s21.5234 138.419 64.5234 197.066c32.0479 43.7139 73.2861 77.333 119.524 100.247
c47.9043 23.752 101.219 35.9707 155.257 35.9707c54.3906 0 106.143 -12.8857 149.771 -36.876c42.7334 -23.4854 77.6572 -57.6377 99.6855 -100.762c58.1807 -113.857 17.6191 -270.172 -99.5713 -328.629c-10.8193 -5.40039 -21.1621 -8.71484 -30.1143 -9.08594z" />
    <glyph glyph-name="A" unicode="A" horiz-adv-x="600" 
d="M280.838 666.667l21.2393 0.00292969l30.2002 -72.1426l213.086 -549.286c9.76172 -25.1338 33.4473 -40.2002 60.4189 -40.2002h1.33301v-5.01953h-132.686v5.01855h5.35254c8.12402 0 15.1055 3.74316 19.5908 10.4951c4.50488 6.75195 5.05762 14.5713 2.12402 22.124
l-215.181 554.238c-2.28613 5.92383 -7.92383 9.40918 -14.2764 9.29492c-6.34277 -0.124023 -11.6758 -3.91406 -13.8857 -9.84766l-95.0957 -255.477h210.981v-5.02832h-212.857l-49.5996 -133.248l-59.8574 -160.781
c-2.78125 -7.45703 -1.80957 -15.1143 2.72363 -21.6572s11.3711 -10.1143 19.333 -10.1143h3.54297v-5.01953h-82.0859v5.01953h1.96191c22.8857 0 42.3809 13.543 50.3613 35l59.3047 159.295l48.9424 131.485h-50.248v5.02832h52.124l110.99 298.152z" />
    <glyph glyph-name="B" unicode="B" horiz-adv-x="534" 
d="M149.104 4.68555l120.962 0.000976562c52.9043 0 101 21.6475 135.866 56.5137s56.5137 82.9805 56.5137 135.866c0 52.9141 -21.6475 101.01 -56.5137 135.896c-34.8662 34.8574 -82.9805 56.5146 -135.866 56.5146h-159.172v-341.362
c0.0195312 -22.21 16.7246 -40.6572 38.21 -43.4287zM375.267 430.258c-16.7139 -16.7334 -37.6572 -29.2285 -61.0381 -35.7432h6.2002c54.2764 0 103.667 -22.2002 139.448 -57.9814c35.7715 -35.7812 57.9814 -85.1523 57.9814 -139.447
s-22.21 -103.666 -57.9814 -139.447c-33.1719 -33.1621 -78.0098 -54.667 -127.619 -57.6387h-309.4v4.32422h0.828125c24.1338 0 43.8096 19.6758 43.8096 43.8096v570.4c0 24.1338 -19.8193 43.8096 -43.8096 43.8096h-0.828125v4.32422h264.324
c34.2285 -2.44727 65.1426 -17.457 88.085 -40.3994c25.1338 -25.1338 40.7529 -59.8389 40.7529 -98.001s-15.6191 -72.8672 -40.7529 -98.0098zM243.685 662.001l-94.5146 -0.00292969c-21.4287 -2.77148 -38.2568 -21.3428 -38.2568 -43.4473v-224.019h132.771
c36.7715 0 70.2002 15.0381 94.4482 39.2861c24.2383 24.248 39.2861 57.6768 39.2861 94.4482s-15.0479 70.2002 -39.2861 94.4482c-24.248 24.248 -57.6768 39.2861 -94.4482 39.2861z" />
    <glyph glyph-name="C" unicode="C" horiz-adv-x="642" 
d="M578.39 128.952c19.0098 31.3145 28.2295 61.5879 30.0107 95.0166h23.248c-8.21875 -34.2285 -22.1045 -67.3428 -42.3232 -98.0186c-27.21 -41.3145 -59.6484 -71.5908 -103.973 -94.6289c-83.3906 -43.3525 -184.591 -42.2383 -273.495 6.7041
c-160.942 88.6572 -239.076 308.343 -154.419 473.762c36.1523 70.7236 95.0479 121.247 170.162 143.457c72.1338 21.2861 152.172 13.0195 224.172 -26.6094c55.2764 -30.4668 100.781 -76.3711 133.267 -130.229h-77.1719
c-24.8857 31.3242 -52.3525 58.2002 -79.8672 78.3809c-64.7812 47.543 -136.096 88.2764 -217.639 62.3242c-62.4766 -19.876 -114.695 -70.9424 -140.686 -131.457c-20.1045 -46.79 -18.3906 -92.6943 -6.85742 -150.39
c21.9424 -109.828 97.3047 -215.933 172.914 -271.38c79.4385 -58.2764 167.114 -92.1807 258.8 -39.6855c35.9238 20.543 61.6289 46.1719 83.8574 82.7529z" />
    <glyph glyph-name="D" unicode="D" horiz-adv-x="534" 
d="M21.9043 0.0195312l0.000976562 4.30273h0.828125c24.1338 0 43.8096 19.6758 43.8096 43.8096v570.4c0 24.1338 -19.8193 43.8096 -43.8096 43.8096h-0.828125v4.32422h176.743c85.667 0 163.543 -37.4951 219.99 -97.8857
c121.952 -130.523 121.952 -340.352 0 -470.875c-56.4385 -60.4004 -134.324 -97.8857 -219.991 -97.8857h-176.743zM145.963 661.627c-20.3428 -3.7334 -36.001 -21.751 -36.001 -43.0938v-570.4c0 -21.4385 15.543 -39.3721 35.9336 -43.1055h37.0762
c375.438 0 370.867 656.6 0.000976562 656.6h-37.0098z" />
    <glyph glyph-name="E" unicode="E" horiz-adv-x="424" 
d="M313.523 661.638l-167.574 -0.00195312c-20.333 -3.7334 -35.9902 -21.7617 -35.9902 -43.0859v-282.686h159.495c18.5146 0 33.6104 15.0859 33.6104 33.6006v1.34277h5.01953v-74.9238h-5.01855v1.34277c0 18.5146 -15.1143 33.6104 -33.6094 33.6104h-159.495
v-282.695c0 -21.4385 15.5234 -39.3623 35.9238 -43.0859h167.638l99.4189 72.5527l-29.8379 -77.5811h-361.199v4.32422h0.828125c24.1338 0 43.8096 19.6758 43.8096 43.8096v570.371c0 24.1338 -19.8193 43.8096 -43.8096 43.8096h-0.828125v4.32422h242.771h118.429
l29.8379 -77.5811z" />
    <glyph glyph-name="F" unicode="F" horiz-adv-x="428" 
d="M330.305 661.638l-184.354 -0.00195312c-20.333 -3.7334 -35.9902 -21.7617 -35.9902 -43.0859v-282.686h159.495c18.5146 0 33.6104 15.0859 33.6104 33.6006v1.34277h5.01953v-74.9238h-5.01953v1.34277c0 18.5146 -15.1143 33.6104 -33.6094 33.6104h-159.495
v-282.695c0 -24.124 19.667 -43.7998 43.8008 -43.7998h0.847656v-4.32422h-132.705v4.32422h0.828125c24.1338 0 43.8096 19.6758 43.8096 43.7998v570.391c0 24.1338 -19.8193 43.8096 -43.8096 43.8096h-0.828125v4.32422h293.114h84.876l29.8379 -77.5811z" />
    <glyph glyph-name="G" unicode="G" horiz-adv-x="642" 
d="M333.629 666.638c85.5908 0 163.076 -36.8984 219.152 -97.3936l2.42871 -2.65723h-6.83789c-116.934 125.4 -284.743 119.962 -396.639 -0.771484c-55.1904 -59.543 -89.3242 -141.838 -89.3242 -232.762c0 -90.9043 34.1338 -173.199 89.3242 -232.752
c145.533 -157.028 344.543 -94.5615 429.99 69.3906c21.1904 40.6572 39.2861 82.9238 9.38184 125.058c-16.5811 23.3428 -41.2188 36.0479 -69.8184 36.0479h-126.257c-18.4854 0 -33.6094 -15.1045 -33.6094 -33.5996v-1.34277h-5.04785v39.9717h270.295
c0.200195 -68.8662 -13.7715 -118.866 -39.1426 -168.143c-17.6289 -34.2568 -41.2285 -65.2471 -70.7715 -92.8184c-49.3809 -46.1045 -112.429 -74.8857 -183.134 -74.8857c-85.5908 0 -163.076 36.4189 -219.134 96.9141
c-56.0195 60.4473 -90.6768 143.962 -90.6768 236.181c0 92.21 34.6572 175.725 90.6768 236.172c56.0762 60.4951 133.571 97.3906 219.143 97.3906z" />
    <glyph glyph-name="H" unicode="H" horiz-adv-x="622" 
d="M110.914 618.533v-280.391h400.562v280.391c0 24.1338 -19.8193 43.8096 -43.7998 43.8096h-0.837891v4.32422h132.705v-4.32422h-0.847656c-23.9805 0 -43.7998 -19.8193 -43.7998 -43.8096v-570.4c0 -24.1338 19.6758 -43.8096 43.7998 -43.8096h0.847656v-4.32422
h-132.705v4.32422h0.837891c24.124 0 43.7998 19.6758 43.7998 43.8096v284.972h-400.562v-284.972c0 -24.1338 19.667 -43.8096 43.8008 -43.8096h0.847656v-4.32422h-132.705v4.32422h0.828125c24.1338 0 43.8096 19.6758 43.8096 43.8096v570.4
c0 24.1338 -19.8193 43.8096 -43.8096 43.8096h-0.828125v4.32422h132.705v-4.32422h-0.847656c-23.9814 0 -43.8008 -19.8193 -43.8008 -43.8096z" />
    <glyph glyph-name="I" unicode="I" horiz-adv-x="178" 
d="M155.562 0h-132.705v4.32422h0.828125c24.1338 0 43.8096 19.6758 43.8096 43.8096v570.4c0 24.1338 -19.6758 43.8096 -43.8096 43.8096h-0.828125v4.32422h132.705v-4.32422h-0.847656c-24.1338 0 -43.8008 -19.6758 -43.8008 -43.8096v-570.4
c0 -24.1338 19.667 -43.8096 43.8008 -43.8096h0.847656v-4.32422z" />
    <glyph glyph-name="J" unicode="J" horiz-adv-x="385" 
d="M366.172 666.667l-0.00195312 -4.32422h-0.847656c-24.1143 0 -43.8096 -19.6758 -43.8096 -43.8096c0 -147.438 0 -294.896 -0.00976562 -442.314c0 -34.9141 -3.40918 -66.2188 -15.0664 -92.4854c-11.0283 -24.8857 -27.9619 -45.21 -50.6572 -59.7529
c-8.87598 -5.67578 -18.6279 -10.4854 -29.2471 -14.2852c-73.21 -26.333 -176.61 5.98145 -232.248 38.0957l38.667 32.8662c50.2861 -27.7617 118.543 -94.1045 191.753 -65.9902c55.457 21.2949 53.4668 103.752 53.4004 195.19v408.676
c0 24.1338 -19.6953 43.8096 -43.8096 43.8096h-0.828125v4.32422h132.705z" />
    <glyph glyph-name="K" unicode="K" horiz-adv-x="481" 
d="M155.581 0h-132.723v4.32422h0.828125c24.1338 0 43.8096 19.6758 43.8096 43.8096v570.4c0 24.1338 -19.6758 43.8096 -43.8096 43.8096h-0.828125v4.32422h132.705v-4.32422h-0.847656c-24.1338 0 -43.8008 -19.6758 -43.8008 -43.8096v-242.028l279.305 279.314
c1 0.990234 1.27637 2.40918 0.743164 3.7041c-0.542969 1.30469 -1.76172 2.10449 -3.15234 2.10449h-19.1045v5.03809h61.4561v-5.02832h-17.2568c-6.4668 0 -12.0762 -2.33301 -16.6475 -6.89453l-257.857 -257.866l290.048 -360.8
c14.6191 -17.5713 31.0664 -31.1523 53.9424 -31.1523h2.42871v-5.01953h-132.695v5.01855h14.1523c17.9238 0 24.8096 14.5049 14.3525 27.1523l-269.705 337.333v-321.276c0 -24.1338 19.6758 -43.8096 43.8096 -43.8096h0.847656v-4.32422z" />
    <glyph glyph-name="L" unicode="L" horiz-adv-x="428" 
d="M146.904 4.92383l184.352 -0.00878906l99.4287 72.5527l-29.8379 -77.5811h-84.876h-293.114v4.32422h0.828125c23.9902 0 43.8096 19.6758 43.8096 43.8096v570.4c0 24.1338 -19.6758 43.8096 -43.8096 43.8096h-0.828125v4.32422h132.705v-4.32422h-0.847656
c-24.1143 0 -43.7998 -19.6953 -43.7998 -43.8096v-570.401c0 -21.3242 15.6572 -39.3525 35.9902 -43.0957z" />
    <glyph glyph-name="M" unicode="M" horiz-adv-x="699" 
d="M114.104 661.629l28.6191 -67.0957l228.114 -535.02l70.0186 184.638l146.028 385.01l-0.0185547 0.0478516l12.333 32.4287h-30.6572v5.02832h83.6289v-5.03809h-19.7051v-613.495c0 -24.1338 20.0479 -43.8096 44.6387 -43.8096h0.847656v-4.32422h-135.2v4.32422
h0.857422c24.5713 0 44.6289 19.6758 44.6289 43.8096v570.238l-142.6 -375.98l-71.9141 -189.647l-20 -52.7236h-5.44727l-279.134 654.619v-614.438c0 -19.4287 16.1523 -35.2861 35.9521 -35.2861h3.29492v-5.02832h-83.6289v5.02832h3.29492
c19.8096 0 35.9619 15.8574 35.9619 35.2861v621.438h-17.8477v5.02832h83.6289v-5.03809h-15.6953z" />
    <glyph glyph-name="N" unicode="N" horiz-adv-x="570" 
d="M63.2861 666.667h51.9443l91.4951 -139.114l295.028 -448.553v547.353c0 19.4287 -15.8574 35.2861 -35.2959 35.2861h-3.24805v5.02832h82.0859v-5.03809h-3.24805c-19.4287 0 -35.2861 -15.8574 -35.2861 -35.2959v-626.467h-5.02832v0.133789l-433.429 659.02
v-618.819c0 -19.4287 15.8574 -35.2861 35.2959 -35.2861h3.24805v-5.02832h-82.0859v5.02832h3.22852c19.4287 0 35.2949 15.8574 35.2949 35.2861v626.467z" />
    <glyph glyph-name="O" unicode="O" 
d="M227.739 655.114c269.134 79.4385 502.762 -289.753 344.934 -529.276c-27.21 -41.2949 -59.6484 -71.6094 -103.973 -94.6289c-267.714 -139.152 -544.828 219.19 -411.123 480.467c36.1523 70.7051 95.0283 121.248 170.162 143.438zM477.862 46.0557
c35.9424 20.5713 61.6582 46.1895 83.877 82.7607c33.1426 54.5811 36.5615 106.114 22.5137 176.447c-28.8096 144.267 -211 385.515 -373.743 333.733c-62.4668 -19.876 -114.695 -70.9424 -140.686 -131.466c-20.0957 -46.7998 -18.3906 -92.7041 -6.84766 -150.399
c32.6572 -163.591 234.2 -414.533 414.886 -311.076z" />
    <glyph glyph-name="P" unicode="P" horiz-adv-x="448" 
d="M260.485 662l-111.286 -0.0185547c-22.1523 -2.84766 -37.9619 -21.667 -38.2568 -43.4482v-274.371h149.543c184.457 0 179.762 317.838 0 317.838zM331.019 344.162c-19.0283 -4.5332 -28.3242 -5.01953 -58.5244 -5.01953h-161.581v-291.01
c0.324219 -24.2002 19.3818 -43.8096 43.8008 -43.8096h0.847656v-4.32422h-132.705v4.32422h0.828125c24.1143 0 43.8096 19.6758 43.8096 43.8096v570.4c-0.294922 24.3809 -19.333 43.5146 -43.8096 43.8096h-0.828125v4.32422h281.104
c160.695 -11.5049 180.924 -279.705 27.0576 -322.505z" />
    <glyph glyph-name="Q" unicode="Q" horiz-adv-x="648" 
d="M477.883 46.0576c6.40918 3.68555 12.4971 7.50488 18.3252 11.5146l-98.4951 131.876l4.02832 3.00977l98.5615 -131.962c24.7139 17.9805 44.1426 39.8281 61.457 68.3232c33.1338 54.5811 36.5625 106.114 22.5146 176.447
c-28.8281 144.276 -211.019 385.515 -373.762 333.733c-62.4668 -19.8955 -114.695 -70.9619 -140.686 -131.467c-20.0957 -46.7998 -18.3721 -92.7041 -6.84863 -150.399c32.6758 -163.591 234.219 -414.533 414.904 -311.076zM57.5801 511.677
c36.1621 70.7051 95.0469 121.245 170.143 143.417c269.134 79.4385 502.781 -289.752 344.934 -529.275c-19.1143 -29.0098 -40.7998 -52.5811 -67.3809 -72.0283l107.99 -144.571h-53.0859l-59.5049 141.276c-9.93359 -6.95215 -20.5713 -13.3613 -31.9717 -19.2852
c-267.714 -139.152 -544.828 219.19 -411.123 480.467z" />
    <glyph glyph-name="R" unicode="R" horiz-adv-x="505" 
d="M172.553 339.162c47.7139 -16.752 88.4365 -73.1914 133.17 -135.173c15.3711 -21.2949 31.2285 -43.2666 47.9902 -64.4951c30.0283 -38.0186 106.619 -134.523 149.981 -134.523v-4.97168h-92.8281v4.97168h7.35254c18.876 0 19.5615 14 14.7803 23.9902
c-11.4668 23.9336 -63.333 82.2959 -82.7334 106.811c-16.9814 21.457 -33.0391 43.7139 -48.6006 65.2666c-52.6377 72.9043 -99.6182 121.219 -157.752 121.295h-33v-274.219c0.324219 -24.2002 19.3818 -43.8096 43.8008 -43.8096h0.847656v-4.32422h-132.705v4.32422
h0.828125c24.1338 0 43.8096 19.6758 43.8096 43.8096v570.438c-0.294922 24.3711 -19.333 43.5137 -43.8096 43.8086h-0.828125v4.32422h132.705h148.4c160.695 -11.5049 180.924 -279.724 27.0576 -322.505c-19.0098 -4.5332 -28.3047 -5.01855 -58.4951 -5.01855
h-99.9717zM149.171 662.018c-22.1621 -2.85742 -37.9805 -21.7051 -38.2568 -43.4668v-274.371h33h116.571c184.457 0 179.781 317.838 0 317.838h-111.314z" />
    <glyph glyph-name="S" unicode="S" horiz-adv-x="534" 
d="M272.96 666.667c84.4473 0 148.209 -37.249 182.095 -50.5635v-83.5332c-83.7812 75.1621 -159.629 115.819 -235.152 118.857c-77.8193 3.11426 -169.515 -48.5908 -152.61 -117.391c17.1338 -69.79 103.182 -111.676 194.953 -147.694
c99.5527 -39.0576 252.495 -94.2676 254.714 -220.782c0.599609 -33.9805 -14.0479 -68.8086 -48.1055 -101.732c-29.6758 -28.7051 -66.9521 -48.1621 -112.438 -57.6094c-118.6 -24.6758 -246.161 30.0674 -324.38 58.8008v102.096
c79.5049 -77.1719 196.562 -165.029 322.258 -151.849c40.5908 4.24805 83.4385 26.1436 107.972 55.4297c27.3145 32.6289 33.1045 62.1904 24.7803 88.752c-38.5146 122.904 -314.286 157.8 -420.258 259.048c-81.6191 78.0098 -23 177.429 60.0576 217.99
c44.3242 21.6191 97.0762 30.1807 146.114 30.1807z" />
    <glyph glyph-name="T" unicode="T" horiz-adv-x="505" 
d="M307.248 661.638c-20.3242 -3.7334 -35.9893 -21.7617 -35.9893 -43.0859v-570.41c0 -24.124 19.6758 -43.7998 43.8096 -43.7998h0.847656v-4.32422h-132.705v4.32422h0.828125c24.1338 0 43.8096 19.6758 43.8096 43.7998v570.391
c0 21.4385 -15.6475 39.3721 -35.9619 43.0957h-127.924l-65.8662 -72.5527l13.0664 77.5713h482.876l13.0664 -77.5713l-65.8477 72.5527c-44.667 0.00976562 -89.334 0.00976562 -134.01 0.00976562z" />
    <glyph glyph-name="U" unicode="U" horiz-adv-x="593" 
d="M529.134 237.6l0.000976562 388.753c0 19.4287 -15.8574 35.2861 -35.2861 35.2861h-3.22852v5.02832h82.0762v-5.03809h-3.24805c-19.4287 0 -35.2861 -15.8574 -35.2861 -35.2959v-388.733c0 -135.048 -86.0664 -237.571 -222.295 -237.6
c-151.609 0 -251.038 115.01 -251.038 260.571v357.962c0 24.1338 -19.6758 43.8096 -43.8096 43.8096h-0.828125v4.32422h132.705v-4.32422h-0.847656c-24.1338 0 -43.8008 -19.6758 -43.8008 -43.8096v-357.048c0 -137.553 49.4473 -256.524 207.638 -256.496
c133.429 0.0380859 217.248 100.438 217.248 232.61z" />
    <glyph glyph-name="V" unicode="V" horiz-adv-x="561" 
d="M68.7432 647.629l22.2178 -53.0957l223.924 -535.02l68.7236 184.638c49.5527 133.104 99.0195 266.267 148.629 399.333c1.58105 4.25684 1.04785 8.64746 -1.55176 12.3809c-2.59082 3.7334 -6.50488 5.79102 -11.0576 5.79102h-10.6855v5.00977h54.9424v-5.03809
h-0.713867c-11.4189 0 -21.1621 -6.74316 -25.1719 -17.4287l-9.72363 -25.8281l-139.972 -375.981l-70.5908 -189.647l-19.6289 -52.7236h-5.35254l-269.686 644.086c-4.54297 10.8477 -14.5908 17.5332 -26.3721 17.5332h-0.485352v5.02832h82.0869v-5.03809h-0.21875
c-3.48535 0 -6.47559 -1.59961 -8.41797 -4.50391c-1.92383 -2.9043 -2.24805 -6.28516 -0.895508 -9.49512z" />
    <glyph glyph-name="W" unicode="W" horiz-adv-x="909" 
d="M67.752 649.942l23.2002 -55.4189l223.924 -535.02l68.7334 184.638c23.8379 64.0479 47.666 128.105 71.4941 192.172l-87.0098 207.79c-4.54297 10.8477 -14.5908 17.5332 -26.3525 17.5332h-0.485352v5.02832h82.0771v-5.03809h-2.72363
c-2.9043 0 -5.41895 -1.34277 -7.02832 -3.75195c-1.61914 -2.41895 -1.87598 -5.25684 -0.771484 -7.93262l23.2002 -55.4189l223.924 -535.02l68.7432 184.638c48.9902 131.591 97.8857 263.238 146.943 394.791c1.99023 5.33301 1.30469 10.7998 -1.94336 15.4756
c-3.23828 4.66699 -8.12402 7.22852 -13.8193 7.22852h-1.81934v5.02832h54.9424v-5.03809h-0.0957031c-14.2764 0 -26.4287 -8.41895 -31.457 -21.7812l-8.10449 -21.4766l-139.972 -375.98l-70.5908 -189.647l-19.6289 -52.7236h-5.35254l-179.838 429.477
l-69.6475 -187.104l-70.5996 -189.647l-19.6289 -52.7236h-5.35254l-269.686 644.086c-4.5332 10.8477 -14.5811 17.5332 -26.3525 17.5332h-0.485352v5.02832h82.0869v-5.03809h-2.74316c-2.9043 0 -5.41895 -1.34277 -7.03809 -3.75195
c-1.59082 -2.41895 -1.87695 -5.23828 -0.743164 -7.93359z" />
    <glyph glyph-name="X" unicode="X" horiz-adv-x="509" 
d="M402.553 5.03809l5.91699 -0.00390625c4.15234 0 7.74316 2.28613 9.70508 6.21973c1.97168 3.93359 1.78125 8.37207 -0.523438 12.0859l-169.695 274.276l-163.229 -277.066c-1.89551 -3.19043 -1.99121 -6.96191 -0.277344 -10.2764
s4.74219 -5.23828 8.26562 -5.23828h1.7334v-5.01953h-46.4385v5.01953h2.99023c12.2002 0 22.6953 6.19043 29.2002 17.248l164.896 279.914l-210.733 340.629c-7.49512 12.1045 -19.1621 18.8096 -32.7148 18.8096h-4.50488v5.02832h107.276v-5.03809h-2.04785
c-4.74316 0 -8.81934 -2.60938 -11.0957 -7.10449c-2.24805 -4.48535 -2.01953 -9.55176 0.589844 -13.7998l82.4385 -133.295l98.1904 -158.762l173.724 294.866c2.2002 3.7334 2.31445 8.12402 0.324219 11.9717c-1.99023 3.86621 -5.5332 6.10449 -9.65723 6.10449
h-2.41895v5.05762h50.4473v-5.03809h-0.875977c-13.876 0 -25.7998 -7.03809 -33.209 -19.5996l-175.515 -297.942l167.02 -270.028l30.5908 -49.4668c7.78125 -12.5996 19.9238 -19.5615 34.0283 -19.5615h2.87598v-5.02832h-107.276v5.03809z" />
    <glyph glyph-name="Y" unicode="Y" horiz-adv-x="475" 
d="M445.391 642.028l-171.115 -297.923v-295.972c0 -24.1338 19.6758 -43.8096 43.8096 -43.8096h0.847656v-4.32422h-133.98v4.32422h0.837891c24.124 0 43.7998 19.6758 43.7998 43.8096v272.686l-196.429 322.01c-7.49512 12.4385 -20.5146 18.8096 -35.0195 18.8096
h-4.80957v5.02832h114.79v-5.03809h-2.18066c-5.07617 0 -9.44727 -2.60938 -11.8662 -7.10449c-2.40918 -4.48535 -1.77148 -9.32324 0.637695 -13.7998l176.543 -292.058l169.143 294.866c2.2002 3.82812 2.47656 8.12305 0.362305 11.9707
c-2.12402 3.86621 -5.92383 6.10449 -10.333 6.10449h-2.57129v5.05762h54v-5.03809h-0.952148c-14.8379 0 -28.1426 -6.72363 -35.5137 -19.5996z" />
    <glyph glyph-name="Y" unicode="&#x178;" horiz-adv-x="475" 
d="M445.391 642.028l-171.115 -297.923v-295.972c0 -24.1338 19.6758 -43.8096 43.8096 -43.8096h0.847656v-4.32422h-133.98v4.32422h0.837891c24.124 0 43.7998 19.6758 43.7998 43.8096v272.686l-196.429 322.01c-7.49512 12.4385 -20.5146 18.8096 -35.0195 18.8096
h-4.80957v5.02832h114.79v-5.03809h-2.18066c-5.07617 0 -9.44727 -2.60938 -11.8662 -7.10449c-2.40918 -4.48535 -1.77148 -9.32324 0.637695 -13.7998l176.543 -292.058l169.143 294.866c2.2002 3.82812 2.47656 8.12305 0.362305 11.9707
c-2.12402 3.86621 -5.92383 6.10449 -10.333 6.10449h-2.57129v5.05762h54v-5.03809h-0.952148c-14.8379 0 -28.1426 -6.72363 -35.5137 -19.5996z" />
    <glyph glyph-name="Z" unicode="Z" horiz-adv-x="509" 
d="M45.6475 666.667l460.609 0.00195312l-60.6475 -91.6094l-365.343 -551.724c-2.4668 -3.72363 -2.65723 -8.16211 -0.552734 -12.0957c2.06641 -3.86621 5.80957 -6.15234 10.1807 -6.20996h320.752l65.8477 72.5527l-13.0664 -77.5811h-458.667l15.5615 23.4951
l0.751953 1.10449l32.7432 49.4668l31.9619 48.2949l70.21 106.02h-0.0380859l184.733 279.066l88.2383 133.295c2.7998 4.23828 3.04785 9.31445 0.638672 13.7998c-2.39062 4.41895 -6.64746 7.01855 -11.6377 7.09473h-319.495l-65.8477 -72.5527z" />
    <glyph glyph-name="bracketleft" unicode="[" horiz-adv-x="263" 
d="M52.3809 48.0283l-0.000976562 557.113c0 10.6572 0.705078 21.8955 2.65723 33.6572c1.58105 9.51465 7.03809 16.7715 16.5146 21.8672c5.54297 2.96191 11.791 4.76172 18.877 5.18066c7.3623 0.40918 14.1436 0.561523 19.7529 0.561523h120.914v-9.25684h-67.9043
c-17.5811 0 -31.9238 -14.3428 -31.9238 -31.9238v-584.047c0 -17.5908 14.3428 -31.9336 31.9238 -31.9336h67.9043v-9.24805h-120.914c-14.7432 0 -28.8857 3.7334 -42.1719 10.9336c-10.3242 10.6377 -15.6289 23 -15.6289 37.0957z" />
    <glyph glyph-name="backslash" unicode="\" horiz-adv-x="233" 
d="M39.0479 666.391h19.7236l134.19 -666.391h-19.7236z" />
    <glyph glyph-name="bracketright" unicode="]" horiz-adv-x="263" 
d="M211.096 605.143l0.000976562 -557.113c0 -14.0957 -5.30469 -26.458 -15.6289 -37.0957c-13.2764 -7.2002 -27.4287 -10.9336 -42.1719 -10.9336h-120.914v9.24805h67.9043c17.5908 0 31.9238 14.3428 31.9238 31.9336v584.047
c0 17.5811 -14.333 31.9238 -31.9238 31.9238h-67.9043v9.25684h120.914c5.60938 0 12.3994 -0.152344 19.752 -0.561523c7.08594 -0.418945 13.334 -2.21875 18.877 -5.18066c9.48535 -5.0957 14.9326 -12.3525 16.5137 -21.8672
c1.95215 -11.7617 2.65723 -23 2.65723 -33.6572z" />
    <glyph glyph-name="asciicircum" unicode="^" horiz-adv-x="488" 
d="M386.4 202.904l-143.046 233.942l-140.096 -233.942h-78.4951l196.942 260.6h43.2949l198.724 -260.6h-77.3242z" />
    <glyph glyph-name="underscore" unicode="_" horiz-adv-x="556" 
d="M503.657 0.0957031h-451.276v36.8281h451.276v-36.8281z" />
    <glyph glyph-name="grave" unicode="`" horiz-adv-x="133" 
d="M62.4902 624.808c0 0 7.14551 -10.1973 19.7412 -74.25c14.4717 -73.6787 -4.56836 -87.0566 -48.5215 -14.3408c-48.7168 80.5801 -38.6338 61.9316 28.7803 88.5908z" />
    <glyph glyph-name="a" unicode="a" horiz-adv-x="419" 
d="M298.752 353.962c-7.7998 9.94238 -18.5576 17.6738 -33.4531 23.3975c-73.2285 28.1045 -141.485 -38.2285 -191.771 -66l-51.6191 25.8477c70.6289 37.6191 171.362 71.7051 245.2 45.1436c10.6191 -3.81934 20.3809 -8.60938 29.2471 -14.2949
c22.6953 -14.5332 39.6377 -34.876 50.666 -59.7422c11.6475 -26.2666 15.0566 -57.5713 15.0566 -92.4854v-167.638c0 -24.1338 19.6758 -43.8096 43.7998 -43.8096h0.837891v-4.32422h-24.0859c-35.2188 0 -63.9707 28.752 -63.9707 63.9707v17.9805
c0 12.5615 -10.5908 18.3047 -21.3525 11.333c-8.66699 -5.59082 -17.0195 -17.0762 -21.3438 -22.1523c-19.124 -22.4473 -42.2197 -40.3135 -66.5342 -52.5518c-21.3525 -10.7334 -44 -18.2568 -67.9521 -18.5811c-55.2764 -0.751953 -110.619 34.6387 -114.286 93.7627
c-2.30469 37.1719 19.3623 76.0957 65.8477 101.677c41.9424 23.0859 97.0947 35.8096 131.237 51.1338c42.0283 18.8477 112.314 49.2666 74.4766 107.333zM318.68 215.674c0.162109 41.8193 0.914062 75.2275 -4.25781 101.151
c-4.52344 -37.4766 -55.6377 -60.2197 -90.2754 -75.7627c-38.9043 -17.4473 -85.6377 -34.2285 -118.609 -60.4473c-49.1904 -39.1045 -44.3906 -107.762 -2.67676 -149.285c25.7812 -25.667 63.0762 -28.9619 104.324 -8.21875h0.00976562
c30.4004 15.2666 58.8574 39.5811 79.6855 70.7432c15.79 23.6191 31.7998 23.0859 31.7998 47.2578v74.5615z" />
    <glyph glyph-name="b" unicode="b" horiz-adv-x="432" 
d="M104.276 311.086c0 -50.6572 -0.000976562 -101.333 -0.000976562 -151.99c6.83789 -45.6953 42.79 -91.1045 85.5996 -120.467c24.7051 -16.9521 55.334 -31.7139 85.8574 -28.4375c25.4189 2.72363 46.6953 17.5898 61 43.9521
c19.5332 36.0098 19.5811 75.5908 19.5811 115.038v33.7432c0 74.3145 -18.4766 183.886 -112.81 184.124c-21.4473 0.0664062 -45.7803 -7.7334 -70.8564 -22.0576c-22.7236 -12.9336 -46.0186 -31.2383 -68.3711 -53.9053zM37.2656 539.058l-21.0469 -0.0195312
l88.0576 36.9902v-257.848c21.5811 21.3428 44 38.7051 65.876 51.2002c25.8281 14.7334 51 22.7617 73.3428 22.6953c102.647 -0.294922 156.209 -84.7715 156.209 -188.848v-33.4287c0 -45.4668 -1.08594 -91.0195 -29.8672 -129.687
c-20.5146 -27.5615 -51.7246 -43.1045 -93.9814 -39.6191c-32.1807 2.66699 -62.4854 15.9912 -88.9619 33.9912c-22.3711 15.1904 -42.8281 34.3906 -58.3711 55.2568c-3.52344 4.7334 -9.4375 6.59082 -15.0469 4.7334
c-5.60938 -1.86621 -9.22852 -6.87598 -9.22852 -12.7803v-19.0566c0 -34.5146 -27.6953 -62.6484 -62.2949 -62.6484h-25.7617v4.32422h0.828125c24.1143 0 43.8096 19.6758 43.8096 43.8096v467.391c0 12.9717 -10.5908 23.543 -23.5625 23.543z" />
    <glyph glyph-name="c" unicode="c" horiz-adv-x="379" 
d="M352.725 75.9238c1.20996 2.00977 2.36133 4.00098 3.4375 5.99121h7.81934c-1.5332 -2.60938 -3.15234 -5.20898 -4.82812 -7.77051c-16.0098 -24.3047 -35.1143 -42.1426 -61.2002 -55.6953c-49.0957 -25.5234 -108.639 -24.8662 -160.981 3.94336
c-94.7432 52.1904 -140.733 181.505 -90.9053 278.876c21.2861 41.6191 55.9434 71.3809 100.172 84.4473c64.1523 18.9238 157.429 1.07617 204.333 -75.9619l-38.3047 -14.9424c-35.0479 68.6191 -122.876 98.3623 -176.171 81.4102
c-36.7617 -11.6953 -67.5137 -41.7529 -82.8184 -77.3818c-11.8281 -27.543 -10.8184 -54.5625 -4.02832 -88.5244c12.9238 -64.6572 57.2666 -127.096 101.771 -159.743c46.7617 -34.2949 98.3809 -54.2666 152.333 -23.3623
c21.1426 12.1045 36.2852 27.1807 49.3711 48.7139z" />
    <glyph glyph-name="d" unicode="d" horiz-adv-x="432" 
d="M75.7998 189.086c0 -74.3047 18.4678 -183.877 112.83 -184.153c21.4385 -0.0478516 45.7812 7.7334 70.8574 22.0576c22.6953 12.9619 46.0098 31.2666 68.3623 53.9238v151.99c-8.19043 54.6855 -58.0479 108.952 -111.486 135.81h-0.00976562
c-51.248 25.7812 -96.4102 14.4385 -120.963 -30.8564c-19.5332 -35.9902 -19.5908 -75.5811 -19.5908 -115.028v-33.7432zM327.829 257.199l-0.000976562 258.334c0 12.9717 -10.5908 23.5625 -23.5527 23.543l-21.0859 -0.0195312l88.0576 36.9902v-527.904
c0 -24.1338 19.6855 -43.8096 43.7998 -43.8096h0.837891v-4.32422h-25.7617c-31.9424 0 -58.4092 24.2568 -61.9043 55.2949c-0.371094 3.27637 -2.39062 5.88574 -5.47656 7.05762c-3.08594 1.18066 -6.35254 0.571289 -8.7998 -1.62891
c-17.2285 -15.4385 -34.7812 -28.2764 -52.0098 -38.1143c-25.8096 -14.7334 -50.9814 -22.752 -73.334 -22.6943c-102.657 0.294922 -156.219 84.7803 -156.219 188.847v33.4287c0 45.4766 1.0957 91.0381 29.877 129.695c20.5049 27.5713 51.7148 43.1143 93.9717 39.6094
c20.5615 -1.69531 41.9141 -8.00977 62.3711 -18.3047c48.667 -24.457 93.9912 -70.0381 109.229 -116z" />
    <glyph glyph-name="e" unicode="e" horiz-adv-x="391" 
d="M77.6387 135.876l236.026 155.715l-1.41895 3.21875c-35.0479 68.6191 -122.867 98.3623 -176.172 81.4102c-36.7617 -11.6953 -67.5137 -41.7529 -82.8184 -77.3818c-11.8281 -27.543 -10.8086 -54.5625 -4.02734 -88.5244
c5.14258 -25.752 15.2764 -51.1328 28.4102 -74.4375zM295.208 22.915c30.0186 14.457 55.0195 50.1514 67.8389 98.0088l8.61914 -34.5713c-16.2002 -27.6289 -45.1621 -53.0576 -73.7148 -67.9053c-49.0957 -25.5234 -108.657 -24.8662 -160.981 3.94336
c-94.7432 52.1904 -140.733 181.505 -90.9053 278.876c21.2861 41.6191 55.9434 71.3809 100.172 84.4473c64.1523 18.9238 157.429 1.07617 204.333 -75.9619l-2.38086 -1.40918l-268.028 -176.819c19.5615 -33.3623 45.1904 -62.124 70.8574 -80.9521
c44.4092 -32.5713 93.1807 -52.209 144.19 -27.6562z" />
    <glyph glyph-name="f" unicode="f" horiz-adv-x="227" 
d="M17.1426 386.972l0.000976562 5.01953h47.0576v33.6475c0 34.9141 3.40918 66.2188 15.0566 92.4854c11.0283 24.8857 27.9619 45.21 50.6572 59.7529c8.87598 5.67578 18.6475 10.4854 29.2471 14.2852c55.6855 20.0186 129.104 5.79004 185.429 -16.1523
l-30.7715 -30.1621c-44.248 29.3809 -97.1143 62.7139 -152.828 41.3047c-55.457 -21.2861 -53.4668 -103.743 -53.4004 -195.19h119.038l-4.12402 -5.02832h-114.914v-338.828c0 -24.1338 19.6758 -43.8096 43.8096 -43.8096h0.847656v-4.31445h-132.705v4.31445h0.828125
c24.1143 0 43.8096 19.6758 43.8096 43.8096v338.866h-47.0381z" />
    <glyph glyph-name="g" unicode="g" horiz-adv-x="376" 
d="M318.425 95.7617c-14.9238 -22.6572 -32.7168 -39.2871 -57.0596 -51.9346c-45.7617 -23.7812 -101.285 -23.1816 -150.066 3.68457c-8.23828 4.54297 -26.4004 18.3623 -33.8193 24.0674c-104.048 -167.828 -58.1621 -168.666 64.2764 -93.123
c32.2285 19.8662 141.143 89.0283 177.98 57.0186c32.8477 -28.5332 -24.876 -112.686 -85.0762 -133.066c-27.2666 -9.22852 -88.5146 -21.4189 -116.22 5.27637l31.3623 18.124c20.5234 -22.1426 58.3896 -27.6855 83.4941 -19.4287
c40.1426 13.1904 83.1611 66.5332 66.5518 86.5811c-26.7432 32.2666 -184.314 -74.8379 -221.172 -88.5615c-36.3623 -13.543 -80.1055 -10 -77.6201 30.0859c1.70508 27.79 38.7236 81.9521 72.4189 140.267c-5.23828 5.22852 -1.66699 1.74316 -7.14355 7.44824
c-56.3525 58.543 -77.4004 151.686 -39.7432 225.247c19.8379 38.8193 52.1523 66.5527 93.3711 78.7246c39.5713 11.6758 83.4951 7.14258 122.99 -14.6006l6.48535 -3.77148l11.7617 21.4854c22.6377 39.2188 77.79 65.8857 144.78 41.8281l-26.9424 -34.2383
c-38.876 28.6953 -94.7236 22.4766 -113.733 -10.4277l-11.6572 -21.2764c86.0283 -55.3906 123.057 -180.962 64.7803 -269.409zM97.0889 98.0938c6.88574 -6.62891 20.2969 -19.1719 27.3252 -24.3145c43.5996 -31.9717 91.7041 -50.5713 142.009 -21.7715
c19.7236 11.2666 33.8379 25.3145 46.0186 45.4004c18.2002 29.9521 20.0762 58.2285 12.3525 96.8096c-11.2568 56.3047 -48.0947 110.828 -86.7236 142.562zM93.3574 101.779l140.78 238.133l-4.22852 3.2002c-35.5332 26.0859 -74.6572 48.4385 -119.409 34.2002
c-34.2764 -10.9043 -62.9238 -38.9326 -77.1904 -72.1328c-11.0283 -25.667 -10.0762 -50.8574 -3.76172 -82.5049c8.51465 -42.5527 31.6191 -84.0674 59.0576 -115.515c3.6377 -4.15234 0.980469 -1.58105 4.75195 -5.38086z" />
    <glyph glyph-name="h" unicode="h" horiz-adv-x="459" 
d="M37.2666 539.058l-21.0781 -0.0185547l88.0576 36.9902v-284.533c0 -4.66699 3.04785 -8.61914 7.55273 -9.79102c4.51465 -1.17188 9.10547 0.780273 11.3818 4.84668c12.0762 21.5527 27.6377 40.3906 45.1807 55.9434
c29.4287 26.0664 67.9336 45.7334 107.486 49.0098c42.2568 3.50488 73.4668 -12.0381 93.9717 -39.6094c28.7812 -38.6572 29.877 -84.2188 29.877 -129.695v-174.076c0 -24.1338 19.6758 -43.8096 43.7998 -43.8096h0.847656v-4.32422h-132.686v4.32422h0.819336
c24.124 0 43.7998 19.6758 43.7998 43.8096v174.705c0 39.4473 -0.0664062 79.0381 -19.5713 115.028c-14.2285 26.2383 -35.3623 41.0859 -60.6006 43.9053c-37.3428 4.2002 -77.5811 -19.1807 -104.591 -43.1621c-33.6289 -29.8574 -59.7334 -72.0674 -67.2666 -122.486
v-167.99c0 -24.1338 19.667 -43.8096 43.8008 -43.8096h0.847656v-4.32422h-132.705v4.32422h0.828125c24.1143 0 43.8096 19.6758 43.8096 43.8096v467.391c0 12.9717 -10.5908 23.543 -23.5625 23.543z" />
    <glyph glyph-name="i" unicode="i" horiz-adv-x="168" 
d="M61.9902 480.866l23.4092 44.3428l23.4092 -44.3428l-23.4092 -44.3525zM40.123 354.895l-21.0762 -0.0380859l88.0576 36.9902v-343.724c0 -24.1338 19.667 -43.8096 43.8008 -43.8096h0.847656v-4.32422h-132.705v4.32422h0.828125
c24.1143 0 43.8096 19.6758 43.8096 43.8096v283.229c0 12.9717 -10.5908 23.543 -23.5625 23.543z" />
    <glyph glyph-name="j" unicode="j" horiz-adv-x="145" 
d="M57.0195 83.5615l-0.000976562 247.788c0 12.9717 -10.5908 23.5625 -23.5625 23.543l-21.0762 -0.0185547l88.0576 36.9902v-277.457h-0.0185547v-64.4951c0 -34.9141 -3.40918 -66.2188 -15.0566 -92.4854c-11.0283 -24.8662 -27.9619 -45.209 -50.6572 -59.752
c-8.87598 -5.67578 -18.6475 -10.4658 -29.2568 -14.2852c-41.0283 -14.7715 -91.543 -11.0957 -137.829 0.637695v34.667c40.5615 -25.8096 87.1904 -49.0762 136 -30.333c55.457 21.3145 53.4668 103.753 53.4004 195.2zM55.3232 480.864l23.4092 44.3428
l23.4189 -44.3428l-23.4189 -44.3525z" />
    <glyph glyph-name="k" unicode="k" horiz-adv-x="338" 
d="M269.276 380.066l-137.646 -137.629l171.571 -206.238c14.6377 -17.5713 31.0762 -31.1523 53.9336 -31.1523h2.43848v-5.03809h-132.695v5.03809h14.1621c17.9336 0 24.7998 14.5049 14.3613 27.1523l-151.248 182.762l-0.857422 -0.866211v-165.952
c0 -24.1338 19.667 -43.8096 43.8008 -43.8096h0.847656v-4.32422h-132.705v4.32422h0.828125c24.1143 0 43.8096 19.6758 43.8096 43.8096v467.371c0 12.9717 -10.5908 23.543 -23.5625 23.543l-21.0762 -0.0195312l88.0576 36.9902v-354.819l159.952 159.952
c0.990234 0.990234 1.2666 2.41895 0.733398 3.70508c-0.542969 1.28613 -1.75293 2.10547 -3.13379 2.10547h-19.1045v5.01953h61.457v-5.01855h-17.2764c-6.47656 0 -12.0762 -2.31445 -16.6475 -6.90527z" />
    <glyph glyph-name="l" unicode="l" horiz-adv-x="163" 
d="M36.3145 539.058l-21.0762 -0.0185547l88.0576 36.9902v-527.886c0 -24.1338 19.667 -43.8096 43.8008 -43.8096h0.847656v-4.32422h-132.705v4.32422h0.828125c24.1143 0 43.8096 19.6758 43.8096 43.8096v467.371c0 12.9717 -10.5908 23.543 -23.5625 23.543z" />
    <glyph glyph-name="m" unicode="m" horiz-adv-x="756" 
d="M40.1426 354.896l-21.0918 -0.0410156l88.0576 36.9902v-87.6289c0 -6.15234 3.91406 -11.3711 9.81836 -13.085s12.0088 0.572266 15.3037 5.7627c7.25684 11.3906 15.5332 21.9434 24.5137 31.5342c31.1807 33.2666 75.8184 59.2568 121.971 63.0762
c42.2568 3.50488 73.4668 -12.0381 93.9814 -39.6094c24.4189 -32.8096 28.9043 -70.5811 29.6943 -109.058c11.543 40.2188 34.7432 74.1904 63.2383 99.4951c29.4473 26.1719 68.0762 45.8955 107.676 49.1719c42.2568 3.50488 73.4668 -12.0381 93.9717 -39.6094
c28.7812 -38.6572 29.877 -84.2188 29.877 -129.695v-174.076c0 -24.1338 19.6758 -43.8096 43.8096 -43.8096h0.847656v-4.32422h-132.695v4.32422h0.828125c24.1338 0 43.8096 19.6758 43.8096 43.8096v174.705c0 39.4473 -0.0664062 79.0381 -19.5898 115.028
c-39.7139 73.21 -117.485 43.0479 -165.095 0.819336c-32.4951 -28.8281 -58 -69.209 -66.5146 -117.371v-173.181c0 -24.1338 19.6758 -43.8096 43.7998 -43.8096h0.847656v-4.32422h-132.705v4.32422h0.837891c24.1143 0 43.7998 19.6758 43.7998 43.8096v174.705
c0 39.4473 -0.0664062 79.0381 -19.5713 115.028c-43.6953 80.5713 -133.038 36.2852 -179.076 -12.7725c-26.79 -28.5332 -53.3711 -81.4092 -53.3711 -124.628v-152.314c0 -24.1338 19.6758 -43.8096 43.8096 -43.8096h0.847656v-4.32422h-132.705v4.32422h0.828125
c24.1143 0 43.8096 19.6758 43.8096 43.8096v283.21c0 12.9717 -10.5908 23.543 -23.5625 23.543z" />
    <glyph glyph-name="n" unicode="n" horiz-adv-x="461" 
d="M359.124 366.886c4.94238 -4.48535 9.43945 -9.51465 13.5352 -14.9912c28.7812 -38.6572 29.877 -84.2188 29.877 -129.695v-174.076c0 -24.1338 19.6758 -43.8096 43.8096 -43.8096h0.847656v-4.32422h-132.695v4.32422h0.837891
c24.124 0 43.7998 19.6758 43.7998 43.8096v174.705c0 58.876 -2.59082 147.552 -80.4482 158.923c-34.1621 4.99023 -75.9434 -11.6191 -118.22 -56.667c-26.79 -28.5332 -53.3613 -81.4092 -53.3613 -124.628v-152.314c0 -24.1338 19.667 -43.8096 43.8008 -43.8096
h0.847656v-4.32422h-132.705v4.32422h0.828125c24.1143 0 43.8096 19.6758 43.8096 43.8096v283.21c0 12.9717 -10.5908 23.543 -23.5625 23.543l-21.0762 -0.0185547l88.0576 36.9902v-87.6289c0 -6.15234 3.91406 -11.3711 9.81836 -13.085
s12.0088 0.572266 15.3037 5.7627c7.25684 11.3809 15.5332 21.9424 24.5146 31.5332c31.1807 33.2666 75.8184 59.2568 121.971 63.0762c29.4385 2.40918 57.4004 -4.01953 80.4102 -24.6387z" />
    <glyph glyph-name="o" unicode="o" horiz-adv-x="415" 
d="M146.213 385.714c42.457 12.5332 89.5732 7.66602 131.964 -15.667c100.371 -55.2861 146.019 -197.162 80.9707 -295.886c-16.0283 -24.3145 -35.1143 -42.1426 -61.2002 -55.7041c-49.0957 -25.5146 -108.657 -24.8574 -160.981 3.95215
c-94.7236 52.1904 -140.733 181.505 -90.8955 278.876c21.2568 41.6191 55.9141 71.3623 100.143 84.4287zM303.329 27.208c21.1621 12.1045 36.2861 27.1836 49.3721 48.7168c19.5146 32.124 21.5244 62.457 13.248 103.857
c-12.9238 64.6572 -57.2666 127.114 -101.771 159.743c-38.1338 27.9805 -80.1055 51.9609 -128.105 36.6943c-36.7812 -11.6953 -67.5146 -41.7529 -82.8193 -77.3818c-11.8281 -27.543 -10.8184 -54.5625 -4.02832 -88.5244
c12.9238 -64.6572 57.2666 -127.096 101.771 -159.743c46.7617 -34.2949 98.3809 -54.2666 152.333 -23.3623z" />
    <glyph glyph-name="p" unicode="p" horiz-adv-x="426" 
d="M100.438 311.086c0 -50.6572 0.000976562 -101.332 0.000976562 -151.989c6.5332 -43.7715 39.7998 -87.2861 80.2188 -116.667c25.4668 -18.5146 58.2383 -35.4385 90.4189 -32.3242c68.9619 6.65723 83.2383 129.771 81.3906 192.819
c-2.17188 74.2764 -18.4668 183.886 -112.8 184.124c-21.457 0.0664062 -45.7812 -7.7334 -70.877 -22.0576c-22.6953 -12.9336 -46.0098 -31.2383 -68.3525 -53.9053zM33.459 354.877l-21.0762 -0.0195312l88.0576 36.9902v-73.6758
c21.5811 21.333 44 38.6953 65.8955 51.1904c25.8193 14.7334 51 22.7617 73.333 22.6953c102.657 -0.294922 151.124 -84.9043 156.22 -188.847c4.71387 -96.2188 -38.7334 -202.724 -123.848 -202.724c-34.248 2.83789 -65.8193 17.5049 -93.4385 37.248
c-20.5049 14.6475 -39.333 32.5898 -53.9043 52.0088c-3.54297 4.71387 -9.42871 6.58984 -15.0479 4.73242c-5.60938 -1.86621 -9.20898 -6.87598 -9.20898 -12.7803v-236.924c0 -24.1338 19.6855 -43.8096 43.7998 -43.8096h0.847656v-4.32422h-132.705v4.32422h0.828125
c24.1143 0 43.8096 19.6758 43.8096 43.8096v486.562c0 12.9717 -10.5908 23.543 -23.5625 23.543z" />
    <glyph glyph-name="q" unicode="q" horiz-adv-x="416" 
d="M327.848 233c-18.7139 87.7812 -119.182 166.743 -181.067 150.152c-19.7432 -5.30469 -37.543 -19.6953 -51.3711 -45.21c-19.5332 -35.9902 -19.5996 -75.5898 -19.5996 -115.037v-33.7432c0 -74.2949 18.4668 -183.866 112.8 -184.123
c21.457 -0.0576172 45.7998 7.73242 70.876 22.0566c22.6953 12.9521 46.0098 31.2568 68.3623 53.9141v151.99zM303.275 302.705c3.39062 -4.94238 9.36035 -7.01855 15.0742 -5.21875c5.72363 1.76172 9.47559 6.84766 9.47559 12.8477v21.0391
c0 12.9717 -10.5908 23.5527 -23.5527 23.543l-21.0859 -0.0195312l88.0576 36.9805v-391.886c0 -29.6377 -9.2666 -164.571 53.4004 -188.629c46.8574 -18 91.6855 2.70508 131.076 27.21l27.2383 -25.21c-51.8096 -16.3906 -112.409 -24.1807 -160.143 -7
c-10.6191 3.81934 -20.3809 8.61914 -29.2568 14.2949c-22.6953 14.5332 -39.6289 34.8857 -50.6572 59.7432c-12.1523 27.4004 -14.6475 65.0195 -15.0762 93.0674v100.447c-21.5615 -21.3525 -43.9805 -38.6953 -65.876 -51.1904
c-25.8281 -14.7334 -51 -22.7617 -73.3525 -22.6953c-102.657 0.286133 -156.219 84.7715 -156.219 188.848v33.4287c0 45.4668 1.10449 91.0381 29.876 129.686c18.5332 24.876 50.7051 39.8564 86.9531 39.8564c12.3525 0 24.2002 -0.599609 35.4766 -3.09473
c52.0576 -11.5527 92.3721 -47.8096 118.591 -86.0479z" />
    <glyph glyph-name="r" unicode="r" horiz-adv-x="342" 
d="M296.238 391.866c12.6475 -0.59082 26.1924 -3.29883 37.7256 -8.55566l-10.8193 -47.1807c-42.6094 50.752 -105.934 34.0664 -149.838 -1.69531c-19.7432 -16.0859 -34 -34.9619 -46.3145 -57.0283c-11.5527 -20.6953 -19.8857 -44.1426 -19.8857 -75.7334v-153.553
c0 -24.1338 19.667 -43.8096 43.8008 -43.8096h0.847656v-4.32422h-132.705v4.32422h0.828125c24.1143 0 43.8096 19.6758 43.8096 43.8096v283.21c0 12.9717 -10.5908 23.543 -23.5625 23.543l-21.0762 -0.0185547l88.0576 36.9902v-87.6289
c0 -6.15234 3.91406 -11.3711 9.81836 -13.085c9.22852 -2.68555 14.3242 4.48633 19.0576 11.4199c32.0381 46.7432 85.9424 84.2578 142.732 88.9531c5.84766 0.485352 11.6855 0.619141 17.5234 0.362305z" />
    <glyph glyph-name="s" unicode="s" horiz-adv-x="383" 
d="M178.223 391.762c49.6094 0 100.104 -12.707 146.438 -29.707v-58.4287c-49.9336 40.9424 -135.639 76.7041 -180.048 77.7803c-54.8662 1.35254 -115.285 -43.0762 -68.3428 -96.4385c20.6191 -23.4668 52.876 -35.9336 89.7803 -48.5049
c64.4766 -21.9805 193.629 -57.6562 195 -139.151c0.324219 -20 -8.2373 -40.4287 -28.2568 -59.7998c-17.4473 -16.8662 -39.3428 -27.6182 -66.0762 -33.1797c-69.7051 -14.5049 -165.829 10.3145 -230.067 33.8672v73.124
c44.5615 -41.3906 153.333 -107.81 227.19 -100.038c41.4766 4.35254 88.4951 36.2861 74.5908 74.7715c-12.2002 33.7715 -56.6953 56.2666 -105.181 73.1523c-56.9902 19.8379 -203.818 49.5811 -204.676 125.81c-0.418945 37.8193 31.6387 73.3047 63.8008 89
c26.0479 12.7236 57.0381 17.7432 85.8477 17.7432z" />
    <glyph glyph-name="t" unicode="t" horiz-adv-x="278" 
d="M89.6475 40.1143c-28.7812 38.6475 -29.875 84.2197 -29.875 129.687v217.172h-48.3428l4.12402 5.01855h44.2188v20.7715c0 16.5811 7.22852 30.8379 20.5996 40.6475l22.8096 16.7139v-78.1338h137.114l-4.12402 -5.01953h-82.6094
c-27.752 0 -50.3809 -22.6289 -50.3809 -50.3809v-167.391c0 -42.3623 0.200195 -83.667 23.0859 -121.058c35.3145 -56.3711 95.8379 -42.3613 142.333 -9.89453v-6.13379c-25.4854 -17.1904 -54.9141 -29.1045 -85 -31.5996
c-36.8574 -3.04785 -70.4766 8.12402 -93.9531 39.6006z" />
    <glyph glyph-name="u" unicode="u" horiz-adv-x="454" 
d="M55.1143 331.353c0 12.9717 -10.5928 23.5459 -23.5645 23.5459l-21.0762 -0.0185547l88.0576 36.9902v-222.667c0 -58.8857 2.59082 -147.562 80.4482 -158.933c34.1621 -4.99023 75.9434 11.6191 118.22 56.667c26.79 28.5332 53.3613 81.4092 53.3613 124.628v139.79
c0 12.9717 -10.5908 23.543 -23.5527 23.543l-21.0859 -0.0195312l88.0576 36.9902v-343.724c0 -24.1338 19.6758 -43.8096 43.7998 -43.8096h0.847656v-4.32422h-32.6377c-30.5332 0 -55.4287 24.8955 -55.4287 55.4189v32.3525
c0 6.15234 -3.91406 11.3711 -9.81836 13.085s-12.0088 -0.572266 -15.3037 -5.7627c-7.25684 -11.3809 -15.5332 -21.9424 -24.5234 -31.5332c-31.1719 -33.2666 -75.8096 -59.2568 -121.972 -63.0762c-29.4473 -2.42871 -57.4277 4 -80.4277 24.6191
c-4.94238 4.48535 -9.44727 9.51367 -13.543 14.999c-28.7812 38.6475 -29.877 84.2188 -29.877 129.686c0.0185547 53.8574 0.0185547 107.695 0.0185547 161.553z" />
    <glyph glyph-name="v" unicode="v" horiz-adv-x="391" 
d="M187.104 361.371l-17.3145 30.4961h87.9238c14.9141 0 28.2852 -2.05762 40.1045 -5.84766c12.3428 -3.96191 23.0186 -9.84766 31.9707 -17.3711c14.8857 -12.4951 24.9619 -29.9902 31.0195 -49.0762c6.98047 -22.0381 8.59961 -46.3047 6.04688 -67.4668
c-1.95215 -16.3623 -6.36133 -34.0957 -13.7324 -53.7334c-7.34277 -19.5615 -17.6191 -40.9902 -31.3623 -64.79l-77.1045 -133.543h-5.7998l-205.343 355.676c-11.4385 19.7998 -31.0859 31.1426 -53.9434 31.1426h-2.42871v5.01953h132.695v-5.01953h-14.1621
c-17.9336 0 -22.5713 -12.9238 -14.3613 -27.1523l182.6 -316.286l53.4951 92.6572c13.6094 23.5615 23.7715 44.752 31.0195 64.0566c7.20996 19.2188 11.5146 36.5713 13.4287 52.5811c2.45703 20.5049 0.895508 44 -5.85645 65.3525
c-5.78125 18.248 -15.3623 34.915 -29.4385 46.7432c-8.49512 7.13379 -18.5996 12.7334 -30.2949 16.4854c-43.4189 13.9141 -72.7051 -13.9521 -109.162 -19.9238z" />
    <glyph glyph-name="w" unicode="w" horiz-adv-x="577" 
d="M273.477 359.695l81.2939 -140.818c3.52344 11.9619 5.85645 23.1807 7.13281 33.8184c2.45703 20.5146 0.895508 44 -5.85645 65.3623c-5.78125 18.2383 -15.3525 34.9141 -29.4385 46.7422c-8.49512 7.12402 -18.5996 12.7236 -30.2754 16.4756
c-17.6758 5.62891 -38.0664 4.71484 -22.8564 -21.5801zM379.209 361.372l-17.2969 30.4951h87.9238c14.9141 0 28.2949 -2.05762 40.1045 -5.84766c12.3525 -3.96191 23.0195 -9.84766 31.9814 -17.3711c14.876 -12.4951 24.9619 -29.9902 31.0098 -49.0762
c6.97168 -22.0381 8.60059 -46.3047 6.05762 -67.457c-1.96191 -16.3711 -6.3623 -34.1045 -13.7432 -53.7422c-7.34277 -19.5615 -17.6191 -40.9902 -31.3525 -64.79l-77.1045 -133.543h-5.80957l-93.6953 162.286c-4.59082 -9.18066 -9.74316 -18.7422 -15.5244 -28.7236
l-77.1045 -133.543h-5.7998l-205.343 355.667c-11.4385 19.8096 -31.0859 31.1523 -53.9434 31.1523h-2.42871v5.01953h132.695v-5.01953h-14.1621c-17.9336 0 -22.5713 -12.9238 -14.3613 -27.1523l182.6 -316.286l53.4951 92.6572
c6.34277 10.9902 11.9424 21.4668 16.8379 31.457l-108.638 188.162c-11.4385 19.7998 -31.0859 31.1426 -53.9434 31.1426h-2.42871v5.01855c29.4766 0 58.9619 -0.0283203 88.457 0c20.0576 0 28.2959 -2.04785 40.1055 -5.83789
c12.3525 -3.96191 23.0195 -9.85742 31.9814 -17.3721c14.876 -12.4951 24.9619 -29.9902 31.0098 -49.0762c6.97168 -22.0479 8.60059 -46.3047 6.05762 -67.4668c-1.4668 -12.2188 -4.29492 -25.2002 -8.69531 -39.1719l97.8662 -169.533l53.5049 92.6572
c13.5996 23.5615 23.7715 44.752 31.0098 64.0566c7.20996 19.2188 11.5244 36.5713 13.4287 52.5811c2.4668 20.5049 0.895508 44 -5.85645 65.3525c-5.77148 18.248 -15.3525 34.915 -29.4287 46.7432c-8.50488 7.13379 -18.6006 12.7334 -30.2861 16.4854
c-43.4092 13.9141 -72.6953 -13.9521 -109.181 -19.9238z" />
    <glyph glyph-name="x" unicode="x" horiz-adv-x="337" 
d="M170.381 360.619l-21.9941 31.248h68.6377c26.6758 0 59.3994 -4.94238 72.2852 -32.123c14.5234 -30.6289 -7.84766 -60.1719 -26.752 -82.458l-77.8281 -91.7051l86.248 -149.371c11.4189 -19.7998 31.0762 -31.1621 53.9521 -31.1621h2.42871v-5.03809h-132.753
v5.03809h14.1621c17.9336 0 22.5625 12.9238 14.3525 27.1719l-68.2285 118.2l-109.19 -128.714c-2.61914 -3.06641 -3.17188 -7.12402 -1.47656 -10.7998c1.70508 -3.64746 5.14355 -5.85742 9.19141 -5.85742h9.40039v-5.03809h-57.5615v5.03809h0.276367
c12.7715 0 23.7529 5.0957 32.0293 14.8291l114.676 135.162l-17.5996 30.4854h-0.0185547l-98.2383 170.152c-11.4287 19.8281 -31.0957 31.1611 -53.9531 31.1611h-2.42871v5.02832h132.744v-5.02832h-14.1621c-17.9141 0 -22.5713 -12.9336 -14.3613 -27.1621
l87.8955 -152.238l9.95215 -17.2285l76.5615 90.2383c17.5049 20.6191 39.6006 48.7051 26.124 77.1523c-21.5908 45.457 -92.9619 18.876 -114.371 3.01855z" />
    <glyph glyph-name="y" unicode="y" horiz-adv-x="398" 
d="M193.447 361.371l-17.3135 30.4951h87.9238c14.9141 0 28.2852 -2.05762 40.1045 -5.84766c12.3428 -3.96191 23.0186 -9.84766 31.9707 -17.3711c14.8857 -12.4951 24.9619 -29.9902 31.0195 -49.0762c6.96191 -22.0381 8.59961 -46.3047 6.04688 -67.457
c-1.95215 -16.3711 -6.36133 -34.1045 -13.7324 -53.7422c-7.34277 -19.5615 -17.6191 -40.9902 -31.3623 -64.79l-77.8193 -134.8l-0.0185547 -0.00976562l-51.7617 -87.9238c-59.6191 -103.257 -155.571 -138.533 -257.553 -97.3525l12.4287 41.3711
c84.2188 -48.6191 184.285 -39.2949 244.714 65.3906l47.0859 79.7812l-205.343 355.676c-11.4385 19.7998 -31.0762 31.1426 -53.9336 31.1426h-2.43848v5.01953h132.695v-5.01953h-14.1621c-17.9336 0 -22.5625 -12.9238 -14.3623 -27.1523l182.6 -316.286
l53.4951 92.6572c13.6094 23.5615 23.7715 44.752 31.0195 64.0566c7.20996 19.2188 11.5146 36.5713 13.4482 52.5811c2.43848 20.5049 0.895508 44 -5.87598 65.3525c-5.78125 18.248 -15.3525 34.915 -29.4385 46.7432
c-8.49512 7.13379 -18.5996 12.7334 -30.2754 16.4854c-43.4189 13.9141 -72.7051 -13.9521 -109.162 -19.9238z" />
    <glyph glyph-name="z" unicode="z" horiz-adv-x="318" 
d="M305.181 391.866c-69.1904 -119.904 -155.189 -239.782 -224.399 -359.687c-8.2002 -14.2285 -3.57129 -27.1426 14.3623 -27.1426h122.391c55 0 56.124 24 58.0195 44.0957l29.6289 -49.124h-293.086c69.1904 119.896 155.171 239.781 224.381 359.667
c8.19043 14.2285 3.57129 27.1426 -14.3525 27.1426h-123.066c-54.9814 0 -56.1055 -23.9805 -58.001 -44.0762l-29.6289 49.124h293.752z" />
    <glyph glyph-name="braceleft" unicode="{" horiz-adv-x="267" 
d="M97.543 413.591c3.66699 15.9814 5.69434 43.2207 5.92285 81.8203c0.114258 38.5996 0.713867 64.0664 1.77148 76.3711c2.14258 19.4092 5.92383 34.9238 11.5996 46.7715c5.57129 11.7139 12.5527 21.1904 20.8574 28.2949
c8.28613 7.00977 18.9434 12.4482 31.8477 16.1338c8.76172 2.23828 22.9717 3.42871 42.876 3.42871h19.2949c-63.752 -17.0859 -69.6279 -67.7432 -69.6279 -125.762c0 -60.5146 -1.30469 -98.7529 -3.91406 -114.743
c-4.14258 -24.752 -11.3428 -43.8564 -21.4385 -57.1992c-10.1523 -13.4092 -20.9521 -25.209 -42.7334 -35.5039c21.7812 -10.3047 32.5811 -22.0859 42.7334 -35.4951c10.0957 -13.3525 17.2959 -32.457 21.4385 -57.2002
c2.59082 -15.9902 3.91504 -54.2383 3.91504 -114.753c0 -58.0098 5.87598 -108.667 69.6279 -125.753h-19.2949c-19.9043 0 -34.1143 1.19043 -42.8662 3.42871c-12.9141 3.66699 -23.5713 9.11426 -31.8477 16.1045c-8.28613 7.10449 -15.2861 16.5713 -20.8477 28.2852
c-5.67578 11.8477 -9.47559 27.3623 -11.5996 46.7715c-1.05762 12.3242 -1.66699 37.7715 -1.78125 76.3906c-0.238281 38.5996 -2.24805 65.8477 -5.93359 81.8379c-4.50488 19.4951 -17.543 67.3145 -66.1143 80.3809v0c48.5713 13.0664 61.6094 60.8945 66.1143 80.3896
z" />
    <glyph glyph-name="verticalbar" unicode="|" horiz-adv-x="125" 
d="M53.248 745.972h19.333l-0.866211 -745.972h-19.333z" />
    <glyph glyph-name="braceright" unicode="}" horiz-adv-x="267" 
d="M169.4 413.591c4.51465 -19.4951 17.5518 -67.3252 66.1045 -80.4014v0c-48.5713 -13.0762 -61.6094 -60.8955 -66.1045 -80.3906c-3.67578 -15.9717 -5.69531 -43.2197 -5.92383 -81.8193c-0.114258 -38.6191 -0.723633 -64.0664 -1.78125 -76.3906
c-2.12402 -19.4092 -5.92383 -34.9238 -11.5996 -46.7715c-5.56152 -11.7139 -12.5615 -21.1807 -20.8477 -28.2852c-8.28613 -6.99023 -18.9434 -12.4375 -31.8477 -16.1045c-8.74316 -2.23828 -22.9717 -3.42871 -42.8574 -3.42871h-19.3047
c63.7432 17.0859 69.6191 67.7432 69.6191 125.753c0 60.5146 1.31445 98.7627 3.91406 114.753c4.14258 24.7432 11.333 43.8477 21.4375 57.2002c10.1426 13.4092 20.9424 25.1904 42.7236 35.4951c-21.7812 10.2949 -32.5811 22.0947 -42.7236 35.5039
c-10.1045 13.3428 -17.2949 32.4473 -21.4375 57.1992c-2.60938 15.9902 -3.91406 54.2285 -3.91406 114.743c0 58.0195 -5.85742 108.677 -69.6191 125.763h19.3047c19.8857 0 34.0957 -1.19043 42.8574 -3.4668c12.9043 -3.66699 23.5615 -9.11426 31.8477 -16.0947
c8.30469 -7.10449 15.2861 -16.5811 20.8477 -28.2949c5.67578 -11.8477 9.46582 -27.3623 11.5996 -46.7715c1.05762 -12.3047 1.66699 -37.7715 1.78125 -76.3711c0.228516 -38.5996 2.24805 -65.8379 5.92383 -81.8193z" />
    <glyph glyph-name="asciitilde" unicode="~" horiz-adv-x="637" 
d="M33.3301 145c10.7197 140.52 126.431 186.899 225.141 161.489c71.04 -17.7695 125.1 -70.6094 197.54 -70.6094c59.5303 0 118.431 33.2002 148.03 94.1299c-10.7305 -140.51 -126.45 -186.91 -225.15 -161.49c-71.04 17.7803 -125.11 70.6104 -197.53 70.6104
c-59.5303 0 -118.45 -33.2002 -148.03 -94.1299z" />
    <glyph glyph-name="nonbreakingspace" unicode="&#xa0;" horiz-adv-x="320" 
 />
    <glyph glyph-name="exclamdown" unicode="&#xa1;" horiz-adv-x="207" 
d="M99.3809 566.914c-27.4385 0 -49.877 22.4385 -49.877 49.877c0 27.4473 22.4385 49.876 49.877 49.876h8.32422c27.4385 0 49.877 -22.4287 49.877 -49.876c0 -27.4385 -22.4385 -49.877 -49.877 -49.877h-8.32422zM160.676 -0h-114.009
c0 23.0664 42.6475 381.98 42.6475 517.399h28.7139c0 -135.419 42.6475 -494.333 42.6475 -517.399z" />
    <glyph glyph-name="cent" unicode="&#xa2;" horiz-adv-x="425" 
d="M173.883 189.667l63.3613 314.696c-25.7236 8.99023 -56.2852 12.8379 -81.9326 4.68555c-35.7236 -11.3525 -65.3428 -40.6768 -80.0186 -74.8574c-12.1719 -28.3242 -9.66699 -56.2666 -3.75293 -85.8477c11.6572 -58.3623 51.9619 -121.743 100.01 -156.981z
M318.968 168.277c20.79 11.8955 35.3057 26.6777 47.7441 47.1348c1.15234 1.9043 2.2666 3.84668 3.34277 5.80859l1.2666 2.3623h18.4092l-4 -6.81934c-1.58105 -2.69531 -3.22852 -5.35254 -4.96191 -7.96191c-16.4766 -25.0098 -36.248 -43.3809 -62.8955 -57.2285
c-42.1338 -21.8955 -90.0098 -24.3428 -133.914 -9.72363l-28.4951 -141.571h-19.7236l29.9521 148.743c-4.41895 2.00977 -8.78125 4.2002 -13.0674 6.54297c-96.4385 53.124 -143.819 185.066 -92.7529 284.895c21.667 42.3525 57.1338 73.21 102.915 86.7148
c26.0195 7.68555 53.4961 9.21875 80.0869 5.21875l27.0664 134.295h19.7236l-27.7998 -138.096c45.0283 -11.4189 85.8184 -38.9238 110.428 -79.3525l2.7998 -4.59961l-47.1338 -18.4092l-1.85742 3.6377c-15.1426 29.6289 -40.9043 52.5332 -70.6279 66.9238
l-64.2002 -318.743c39.6758 -24.3242 83.0283 -35.3428 127.695 -9.77148z" />
    <glyph glyph-name="sterling" unicode="&#xa3;" horiz-adv-x="532" 
d="M201.972 350.4h137.475v-30.9805h-129.477c25.1719 -126.181 -11.752 -180.904 -83.5518 -239.771c60.3711 26.79 117.009 21.8477 177.333 -1.31445c64.2666 -24.6758 97.4951 -55.5234 177.485 12.3428l19.4385 -54.2764
c-30.2383 -18.6855 -65.6572 -36.3994 -104.6 -36.3994c-68.1338 0 -124.81 42.6475 -193.515 42.6475c-44.7998 0 -95.3809 -17.4766 -132.543 -42.1436l-30.0195 75.2949c87.1523 47.9521 135.2 152.495 93.8477 243.619h-86.667v30.9805h76.8096
c-67.543 144.924 -40.7236 315.333 167.639 315.333c91.7432 0 147.162 -56.6377 173.629 -98.7236l-57.6758 -78.7812c0 75.5527 -50.4473 122.639 -117.457 122.153c-137.485 -1.04785 -149.39 -132.886 -88.1514 -259.981z" />
    <glyph glyph-name="currency" unicode="&#xa4;" horiz-adv-x="427" 
d="M109.876 333.467c0 -28.7139 10.1152 -53.3516 30.3818 -73.6846c20.0957 -20.1807 44.5908 -30.3906 73.0762 -30.3906s52.9707 10.21 73.0752 30.3906c20.2568 20.3525 30.3711 44.9814 30.3711 73.6953c0 28.4287 -10.124 52.9619 -30.1143 73.1621
c-20.1338 20.3428 -44.7334 30.4092 -73.333 30.4092c-28.4854 0 -52.9805 -10.2285 -73.0762 -30.3906c-20.1143 -20.2002 -30.3809 -44.6768 -30.3809 -73.1914zM40.001 194.543l51.0986 49.9941l-3.06641 4.69531c-16.7051 25.6475 -25.6289 53.7236 -25.6289 84.3613
c0 30.4951 8.99023 58.4473 25.6279 83.9902l3.06641 4.68555l-51.0957 49.9521l33.4766 34.5615l50.9043 -51.0195l4.66699 3.16211c25.5332 17.2666 53.7051 25.5713 84.5244 25.5713c30.7139 0 59.085 -8.19043 84.5039 -25.5527l4.67578 -3.2002l50.9238 51.0576
l33.6855 -34.5908l-51.0664 -49.9424l3.05762 -4.68555c16.6377 -25.543 25.6279 -53.4951 25.6279 -83.9902c0 -30.6191 -8.92383 -58.6953 -25.6289 -84.3623l-3.05762 -4.69531l51.1045 -49.9619l-33.7139 -34.8955l-50.9521 51.8281l-4.72363 -3.32422
c-25.2764 -17.7715 -53.5625 -26.2666 -84.4385 -26.2666c-30.9336 0 -59.0381 8.60938 -84.4385 26.2852l-4.7334 3.27637l-50.9238 -51.7998z" />
    <glyph glyph-name="yen" unicode="&#xa5;" horiz-adv-x="559" 
d="M439.467 322.857h-108.979v-55.2861h116.6l-12.3145 -25.9336h-104.286v-193.505c0 -24.1338 19.6758 -43.8096 43.8096 -43.8096h0.847656v-4.32422h-133.98v4.32422h0.828125c24.1338 0 43.8096 19.6758 43.8096 43.8096v193.523h-136.058l12.0762 25.9238h123.962
v53.2666l-1.23828 2.02832h-130.324l12.3145 25.9238h102.219l-179.4 294.048c-7.49512 12.4287 -20.5137 18.8096 -35.0186 18.8096h-4.80957v5.02832h114.79v-5.02832h-2.18066c-5.0957 0 -9.44824 -2.60938 -11.8672 -7.09473
c-2.40039 -4.48535 -1.7627 -9.33301 0.637695 -13.7998l176.495 -291.981h0.104492l169.086 294.781c2.2002 3.83789 2.47656 8.12402 0.362305 11.9814c-2.12402 3.86621 -5.92383 6.09473 -10.333 6.09473h-2.57129v5.04785h54v-5.02832h-0.933594
c-14.8477 0 -28.1426 -6.72363 -35.5332 -19.5898l-168.419 -293.286h118.381z" />
    <glyph glyph-name="section" unicode="&#xa7;" horiz-adv-x="427" 
d="M305.747 244.762c40.7432 -28.2764 73.625 -66.21 74.3105 -119.058c0.324219 -25.8281 -8.2373 -52.2188 -28.2559 -77.2471c-17.4385 -21.7998 -39.334 -35.6855 -66.0576 -42.8574c-69.6953 -18.7334 -165.848 13.3047 -230.058 43.752v94.4668
c44.5527 -53.4854 153.324 -139.285 227.2 -129.247c41.4766 5.62891 88.4951 46.8857 74.5908 96.5996c-12.2002 43.6377 -56.6953 72.6953 -105.181 94.5146c-56.9902 25.6289 -203.818 64.0674 -204.676 162.544c-0.352539 42.0664 23.3525 81.9043 50.4668 105.123
c-29.124 19.2949 -50.1523 43.7236 -50.4668 75.4189c-0.418945 41.7715 31.6387 80.9717 63.7812 98.3145c26.0186 14.0479 57.0186 19.6006 85.8281 19.6006c49.6191 0 100.114 -14.0479 146.447 -32.8291v-64.543c-49.9424 45.21 -135.647 84.7051 -180.057 85.915
c-54.8662 1.48535 -115.275 -47.5723 -68.3418 -106.534c20.6289 -25.9238 52.877 -39.6855 89.7812 -53.5811c64.4668 -24.2764 193.629 -63.6953 194.991 -153.705c0.324219 -22.0957 -8.24707 -44.6572 -28.2666 -66.0479
c-12.8477 -13.7334 -28.1523 -23.7998 -46.0381 -30.5996zM252.267 409.8c-34.3145 13.2002 -101.22 30.3809 -149.21 60.3525c-25.248 -22.7139 -36.2197 -60.2188 -7.78125 -101.99c20.6289 -30.3047 52.877 -46.4092 89.7812 -62.666
c31.4473 -13.8477 78.2666 -31.9053 118.143 -58.9912v4.57129c34.7812 11.8096 65.877 42.333 54.248 77.9326c-12.21 37.3145 -56.6953 62.1621 -105.181 80.791z" />
    <glyph glyph-name="copyright" unicode="&#xa9;" horiz-adv-x="574" 
d="M375.038 251.495l23.2627 -6.97852c-6.75195 -21.3525 -18.7617 -39.334 -37 -53.2676c-21.6377 -16.5332 -46.8857 -23.2383 -73.9434 -23.2383c-34.6953 0 -65.2568 10.333 -89.5518 35.5234c-26.1045 27.0664 -34.3711 63.2383 -34.3711 99.9141
c0 25.2188 4.28613 50.3613 15.8574 72.9707c10.0859 19.6953 24.5244 35.0664 44.001 45.5332c20.6855 11.1143 43.4756 15.5527 66.8281 15.5527c24.5527 0 48.7812 -5.05762 68.9434 -19.7051c15.8574 -11.5234 26.877 -26.3809 33.7725 -44.1709l-22.248 -5.75195
c-6.93359 14.1904 -16.6572 26.4092 -29.9717 35.4951c-15.5615 10.6191 -33.1045 15.2383 -51.8857 15.2383c-28.0479 0 -52.1904 -9.95215 -71.1523 -30.7139c-21.2568 -23.3047 -27.6953 -54.9521 -27.6953 -85.6094c0 -29.7715 5.69531 -61.5908 26.2764 -84.4102
c18.21 -20.1719 41.5625 -29.6191 68.6582 -29.6191c21.876 0 41.8662 6.33301 59.2285 19.7139c14.8574 11.4473 25.0195 26.2188 30.9912 43.5234zM395.672 497.697c-33.7998 18.2188 -70.1592 28.6465 -108.636 28.6279c-38.667 0 -75.1338 -10.3145 -109.029 -28.6475
c-35.667 -19.2861 -63.3721 -46.9717 -83.1914 -82.3242c-19.3242 -34.4287 -29.877 -71.4951 -29.877 -110.99c0 -39.1621 10.3242 -75.8857 29.4004 -110.066c19.6289 -35.1719 47.2002 -62.6953 82.4102 -82.2949c34.1904 -19.0381 71.0283 -29.4004 110.267 -29.4004
c39.1426 0 75.9805 10.4004 110.161 29.4004c35.1904 19.5811 62.7617 47.1045 82.3145 82.3145c18.9717 34.21 29.1523 70.9238 29.1523 110.048c0 39.4668 -10.5527 76.5332 -29.7432 110.972c-19.7715 35.4473 -47.4951 63.1045 -83.2285 82.3613zM287.008 549.344
c42.7715 0 82.9697 -11.5146 120.551 -31.7432c39.2002 -21.1143 69.6006 -51.3145 91.2295 -90.2383c21.2285 -38.2188 32.8574 -79.2471 32.8574 -122.99c0 -43.3145 -11.4385 -83.9521 -32.4004 -121.838c-21.4854 -38.8281 -51.457 -69 -90.2852 -90.5146
c-37.9043 -21 -78.542 -32.4004 -121.951 -32.4004c-43.4473 0 -84.0947 11.3525 -122.076 32.4004c-38.8379 21.5146 -68.9619 51.6865 -90.5146 90.5146c-21 37.8477 -32.5146 78.5049 -32.5146 121.829c0 43.752 11.5811 84.7803 32.9521 122.942
c21.7998 38.9141 52.2285 69.1143 91.4854 90.2764c37.6191 20.2764 77.791 31.7617 120.667 31.7617z" />
    <glyph glyph-name="softhyphen" unicode="&#xad;" horiz-adv-x="0" 
 />
    <glyph glyph-name="registered" unicode="&#xae;" horiz-adv-x="503" 
d="M185.324 342.276l54.2754 -0.00195312c15.5332 0 37.7051 1.38086 50.2861 11.6289c10.0664 8.20996 15.0947 19.3145 15.0947 32.2764c0 8.47656 -2.44727 16.3809 -7.32324 23.3145c-4.96191 7.05762 -11.7139 12.0576 -19.7617 15.1914
c-11.1621 4.33301 -29.2666 4.60938 -41.1426 4.60938h-51.4287v-87.0186zM163.771 444.922l72.665 -0.00195312c16.7432 0 41.3809 -0.485352 57.3047 -6.06641c10.7812 -3.76172 19.1621 -10.1621 25.5908 -19.6094c6.13379 -9.00977 9.5625 -18.8477 9.5625 -29.79
c0 -15.2666 -5.56152 -28.1426 -16.1611 -39.0947c-11.8281 -12.2002 -26.9424 -17.6855 -43.6943 -18.9902l-34 -2.6377l31.4854 -13.1143c6.18066 -2.58105 12.5615 -6.05762 17.4092 -10.7715c12.5615 -12.2383 24.3047 -30.2002 33.5615 -45.0283l20.8477 -33.4287
h-26.5146l-18.5996 32.8193c-9.45703 16.7139 -26.4756 46 -42.1709 57.3809c-9.72363 7.50488 -22.9717 9.48535 -35.1719 9.48535h-30.5615v-99.6855h-21.5527v218.533zM344.97 504.948c-29.0479 15.6572 -60.3057 24.6201 -93.3916 24.6006
c-33.2383 0 -64.5625 -8.85742 -93.6963 -24.6191c-30.6475 -16.5713 -54.4473 -40.3613 -71.4756 -70.7422c-16.5996 -29.5811 -25.666 -61.4385 -25.666 -95.3721c0 -33.6572 8.87598 -65.2188 25.2764 -94.5811c16.8857 -30.2285 40.5527 -53.876 70.8193 -70.7139
c29.3809 -16.3428 61.0381 -25.2568 94.7617 -25.2568c33.6191 0 65.2861 8.91406 94.6572 25.2568c30.2285 16.8281 53.9336 40.4658 70.7236 70.7324c16.3145 29.4004 25.0576 60.9336 25.0576 94.5625c0 33.8955 -9.06641 65.7617 -25.5615 95.3613
c-16.9805 30.457 -40.7998 54.2285 -71.5049 70.7715zM251.578 549.34c36.752 0 71.293 -9.90332 103.579 -27.3037c33.6758 -18.1426 59.8096 -44.1045 78.4004 -77.5518c18.2568 -32.8193 28.2373 -68.0762 28.2373 -105.667
c0 -37.2188 -9.83789 -72.1523 -27.8477 -104.695c-18.457 -33.3711 -44.2188 -59.3047 -77.5811 -77.79c-32.5615 -18.0479 -67.4756 -27.8477 -104.79 -27.8477c-37.333 0 -72.2568 9.77148 -104.895 27.8477c-33.3906 18.4951 -59.2666 44.4092 -77.7812 77.79
c-18.0479 32.5332 -27.9521 67.4756 -27.9521 104.694c0 37.5996 9.97168 72.8564 28.3242 105.656c18.7334 33.4385 44.8672 59.4004 78.6104 77.5723c32.333 17.4287 66.8379 27.2949 103.695 27.2949z" />
    <glyph glyph-name="plusminus" unicode="&#xb1;" horiz-adv-x="309" 
d="M36.1904 0v36.8193h236.896v-36.8193h-236.896zM173.057 69.7432h-36.8379v100.028h-100.028v36.8379h100.028v100.028h36.8379v-100.028h100.028v-36.8379h-100.028v-100.028z" />
    <glyph glyph-name="paragraph" unicode="&#xb6;" horiz-adv-x="417" 
d="M209.457 0h-51.0264v412.267c-38.3428 2.10449 -68.5908 14.4854 -90.8477 37.3896c-22.1719 22.7812 -33.2959 51.9814 -33.2959 87.4863c0 39.4854 12.3711 71.0186 37.085 94.5137c24.6377 23.457 60.9043 35.1904 108.476 35.1904h194.724v-52.9424h-44.1143
v-613.904h-52.3145v613.904h-68.6855v-613.904z" />
    <glyph glyph-name="Agrave" unicode="&#xc0;" horiz-adv-x="602" 
d="M353.914 700.962h-35.3906l-68.1621 78.7715h66.5146zM303.028 666.638l30.2021 -72.1123l213.086 -549.286c9.76172 -25.1338 33.4473 -40.2002 60.4189 -40.2002h1.33301v-5.01953h-132.686v5.01953h5.35254c8.10449 0 15.1045 3.74316 19.5898 10.4951
s5.04688 14.5713 2.12305 22.124l-215.181 554.219c-2.28613 5.92383 -7.92383 9.41895 -14.2764 9.30469c-6.34277 -0.133789 -11.6758 -3.91504 -13.8857 -9.85742l-95.0957 -255.477h210.98v-5.02832h-212.876l-49.5996 -133.248l-59.8574 -160.781
c-2.77148 -7.45703 -1.80957 -15.1045 2.72363 -21.6475s11.3711 -10.1143 19.333 -10.1143h3.54297v-5.02832h-82.0664v5.02832h1.96191c22.8857 0 42.3809 13.5332 50.3623 34.9902l59.3047 159.305l48.9424 131.477h-50.248v5.02832h52.124l110.99 298.162
l12.1621 32.6475h21.2383z" />
    <glyph glyph-name="Aacute" unicode="&#xc1;" horiz-adv-x="602" 
d="M285.733 721.162h-35.3525l37.0381 78.7617h66.4951zM303.028 666.639l30.2012 -72.1113l213.086 -549.286c9.76172 -25.1338 33.4473 -40.2002 60.4189 -40.2002h1.33301v-5.01953h-132.686v5.01855h5.35254c8.10449 0 15.1045 3.74316 19.5898 10.4951
c4.50488 6.75195 5.05762 14.5713 2.12402 22.124l-215.181 554.219c-2.28613 5.92383 -7.92383 9.41895 -14.2764 9.30469c-6.34277 -0.133789 -11.6758 -3.91504 -13.8857 -9.85742l-95.0957 -255.477h210.981v-5.02832h-212.857l-49.5996 -133.248l-59.8574 -160.781
c-2.78125 -7.45703 -1.80957 -15.1045 2.72363 -21.6475s11.3711 -10.1143 19.333 -10.1143h3.54297v-5.02832h-82.0859v5.02832h1.96191c22.8857 0 42.3809 13.5332 50.3623 34.9902l59.3047 159.305l48.9424 131.477h-50.248v5.02832h52.124l110.99 298.162
l12.1621 32.6475h21.2383z" />
    <glyph glyph-name="Acircumflex" unicode="&#xc2;" horiz-adv-x="602" 
d="M333.714 721.162l-31.5723 65.3906l-31.5615 -65.3906h-38.3428l61.4287 75.8477h16.9619l61.4287 -75.8477h-38.3428zM303.046 666.639l30.2041 -72.1113l213.086 -549.286c9.76172 -25.1338 33.4473 -40.2002 60.4189 -40.2002h1.33301v-5.01953h-132.705v5.01855
h5.35254c8.10449 0 15.1045 3.74316 19.5898 10.4951s5.04688 14.5713 2.12305 22.124l-215.181 554.219c-2.28613 5.92383 -7.92383 9.41895 -14.2764 9.30469c-6.34277 -0.133789 -11.6758 -3.91504 -13.8857 -9.85742l-95.0957 -255.477h210.981v-5.02832h-212.857
l-49.5996 -133.248l-59.8574 -160.781c-2.78125 -7.45703 -1.80957 -15.1045 2.72363 -21.6475s11.3711 -10.1143 19.333 -10.1143h3.54297v-5.02832h-82.0859v5.02832h1.96191c22.8857 0 42.3809 13.5332 50.3613 34.9902l59.3047 159.305l48.9424 131.477h-50.248v5.02832
h52.124l110.99 298.162l12.1621 32.6475h21.2568z" />
    <glyph glyph-name="Atilde" unicode="&#xc3;" horiz-adv-x="602" 
d="M199.562 721.162c3.84766 54.0859 45.4482 71.9336 80.9336 62.1621c25.5332 -6.83789 44.9619 -27.1807 71.0195 -27.1807c21.4092 0 42.5811 12.7715 53.2188 36.2285c-3.84766 -54.0859 -45.4473 -71.9336 -80.9326 -62.1621
c-25.5332 6.83789 -44.9717 27.1807 -71.0195 27.1807c-21.4287 0 -42.6006 -12.7715 -53.2197 -36.2285zM303.029 666.639l30.2041 -72.1113l213.104 -549.286c9.76172 -25.1338 33.4473 -40.2002 60.4189 -40.2002h1.33301v-5.01953h-132.705v5.01855h5.35254
c8.10449 0 15.1045 3.74316 19.5898 10.4951s5.04688 14.5713 2.12305 22.124l-215.181 554.219c-2.28613 5.92383 -7.92383 9.41895 -14.2764 9.30469c-6.34277 -0.133789 -11.6758 -3.91504 -13.8857 -9.85742l-95.0957 -255.477h210.981v-5.02832h-212.857
l-49.5996 -133.248l-59.8574 -160.781c-2.78125 -7.45703 -1.80957 -15.1045 2.72363 -21.6475s11.3711 -10.1143 19.333 -10.1143h3.54297v-5.02832h-82.0859v5.02832h1.96191c22.8857 0 42.3809 13.5332 50.3613 34.9902l59.3047 159.305l48.9424 131.477h-50.248v5.02832
h52.124l110.99 298.162l12.1621 32.6475h21.2383z" />
    <glyph glyph-name="Adieresis" unicode="&#xc4;" horiz-adv-x="602" 
d="M331.647 752.447c0 17.2188 14.0762 31.2949 31.2861 31.2949h1.16211c17.21 0 31.2959 -14.0762 31.2959 -31.2949c0 -17.21 -14.0859 -31.2861 -31.2959 -31.2861h-1.16211c-17.21 0 -31.2861 14.0762 -31.2861 31.2861zM240.2 721.161
c-17.21 0 -31.2959 14.0762 -31.2959 31.2861c0 17.2188 14.0859 31.2949 31.2959 31.2949h1.16211c17.21 0 31.2861 -14.0762 31.2861 -31.2949c0 -17.21 -14.0762 -31.2861 -31.2861 -31.2861h-1.16211zM303.048 666.638l30.2002 -72.1123l213.086 -549.286
c9.76172 -25.1338 33.4473 -40.2002 60.4189 -40.2002h1.33301v-5.01953h-132.705v5.01953h5.35254c8.10449 0 15.0859 3.74316 19.5908 10.4951s5.05762 14.5713 2.12402 22.124l-215.181 554.219c-2.28613 5.92383 -7.92383 9.41895 -14.2764 9.30469
c-6.34277 -0.133789 -11.6758 -3.91504 -13.8857 -9.85742l-95.0957 -255.477h210.981v-5.02832h-212.857l-49.5996 -133.248l-59.8574 -160.781c-2.78125 -7.45703 -1.80957 -15.1045 2.72363 -21.6475s11.3711 -10.1143 19.333 -10.1143h3.54297v-5.02832h-82.0859
v5.02832h1.97168c22.8955 0 42.3906 13.5332 50.3721 34.9902l59.3047 159.305l48.9424 131.477h-50.248v5.02832h52.124l110.99 298.162l12.1523 32.6475h21.248z" />
    <glyph glyph-name="Aring" unicode="&#xc5;" horiz-adv-x="602" 
d="M314.104 719.124c-5.35254 5.35254 -12.8594 8.72461 -21.1162 8.72461c-8.2666 0 -15.7236 -3.32422 -21.0566 -8.67676l-0.0478516 -0.0478516c-5.35254 -5.35254 -8.68555 -12.8096 -8.68555 -21.0664c0 -8.27637 3.33301 -15.7236 8.68555 -21.0762
l0.0478516 -0.0478516c5.35254 -5.35254 12.8096 -8.68555 21.0576 -8.68555c8.27637 0 15.7148 3.33301 21.0674 8.68555l0.0478516 0.0478516c5.35254 5.35254 8.68555 12.7998 8.68555 21.0762s-3.33301 15.7236 -8.68555 21.0664zM332.979 657.991
c-5.81934 -5.80957 -12.8809 -10.3604 -20.7666 -13.2363l21.0381 -50.248l213.086 -549.276c9.76172 -25.1426 33.4473 -40.2002 60.4189 -40.2002h1.33301v-5.02832h-132.705v5.02832h5.35254c8.10449 0 15.1045 3.7334 19.5898 10.4854s5.05664 14.5713 2.12305 22.124
l-215.181 554.229c-2.28613 5.91406 -7.92383 9.40918 -14.2764 9.29492c-6.34277 -0.133789 -11.6758 -3.91504 -13.8857 -9.85742l-95.0957 -255.477h210.981v-5.02832h-212.857l-49.5996 -133.238l-59.8574 -160.79
c-2.78125 -7.45703 -1.80957 -15.1045 2.72363 -21.6475s11.3711 -10.1143 19.333 -10.1143h3.54297v-5.02832h-82.0859v5.02832h1.96191c22.8857 0 42.3809 13.543 50.3613 34.9902l59.3047 159.305l48.9424 131.485h-50.248v5.01855h52.124l110.99 298.162
l4.01855 10.7812c-7.84766 2.85742 -14.8955 7.39062 -20.7051 13.2002l-0.0478516 0.0478516c-10.248 10.2861 -16.6006 24.4287 -16.6006 40.0098s6.35254 29.7236 16.6006 40l0.0478516 0.0478516c10.2764 10.248 24.4189 16.6006 40 16.6006
s29.7334 -6.35254 40.0098 -16.6006l0.0478516 -0.0478516c10.248 -10.2764 16.5908 -24.4189 16.5908 -40s-6.34277 -29.7236 -16.5908 -40.0098z" />
    <glyph glyph-name="AE" unicode="&#xc6;" horiz-adv-x="725" 
d="M367.2 330.8l-205.066 -0.000976562l-49.5996 -133.238l-59.8574 -160.79c-2.78125 -7.45703 -1.80957 -15.1045 2.72363 -21.6475s11.3711 -10.1143 19.333 -10.1143h3.54297v-5.02832h-82.0859v5.02832h1.96191c22.8857 0 42.3809 13.543 50.3623 34.9902
l59.3047 159.305l48.9424 131.485h-50.248v5.01855h52.124c41.0479 110.276 82.0957 220.553 123.153 330.829h401.981l29.8379 -77.5811l-99.4189 72.5527h-167.591c-20.3242 -3.7334 -35.9912 -21.7617 -35.9912 -43.0859v-282.695h159.495
c18.5146 0 33.6104 15.0957 33.6104 33.6104v1.34277h5.02832v-74.9238h-5.02832v1.34277c0 18.5146 -15.1045 33.6006 -33.6094 33.6006h-159.495v-282.667c0 -21.4385 15.5332 -39.3721 35.9238 -43.0957h167.638l99.4287 72.5527l-29.8477 -77.5713h-361.19v4.32422
h0.828125c24.1338 0 43.8096 19.6758 43.8096 43.7998v282.657zM285.391 662.342l-26.2666 -71.0186l-95.1045 -255.477h203.257v282.686c0 24.1338 -19.8193 43.8096 -43.8096 43.8096h-38.0762z" />
    <glyph glyph-name="Ccedilla" unicode="&#xc7;" horiz-adv-x="642" 
d="M578.402 128.942c19.0098 31.2949 28.2314 61.5928 30.0029 95.0215h23.2568c-8.20996 -34.2285 -22.1143 -67.3428 -42.3242 -98.0186c-27.2188 -41.3047 -59.6475 -71.5908 -103.98 -94.6289c-47.9902 -24.9424 -101.886 -35.1523 -155.934 -30.0186l-15.124 -20.3906
c5.35254 0 10.7334 -0.666992 15.9717 -2.05762c15.1904 -4.00977 27.0283 -13.2197 34.2285 -25.8291c16.6377 -29.1719 1.49512 -67.458 -29.9717 -83.0107c-17.0664 -8.43848 -37.4092 -9.21973 -54.7715 -1.12402c-8.82812 4.11426 -15.4854 9.6377 -20.9424 17.0664
c-3.92383 5.33301 -6.74316 11.2373 -8.41895 17.4561l-2.27637 8.47656h21.0479l0.390625 -6.50488c0.248047 -4.29492 1.61914 -7.93262 4.11426 -11.5996c3.11426 -4.59961 6.62891 -7.82812 11.8291 -10.5039c13.1045 -6.72363 25.5049 -1.57129 36.6475 5.75293
c12.9043 8.48535 23.9326 24.0566 27.0664 38.1143c3.48535 15.6289 -2.12402 30.8096 -20.4482 36.0283c-9.93359 2.83789 -19.248 -1.41016 -27.3438 -6.40039h-37.9521c3.41895 4.0957 7.34277 7.8291 11.7334 11.0957l27.5908 37.2002
c-30.9336 5.85742 -61.6094 16.7998 -90.9424 32.9424c-160.934 88.667 -239.067 308.353 -154.42 473.771c36.1523 70.7236 95.0479 121.247 170.162 143.438c72.1338 21.2949 152.172 13.0381 224.172 -26.6094c55.2764 -30.457 100.781 -76.3711 133.267 -130.229
h-77.1719c-24.8857 31.333 -52.3623 58.1992 -79.8672 78.3799c-64.7812 47.5234 -136.096 88.2852 -217.639 62.3232c-62.4766 -19.8662 -114.695 -70.9326 -140.686 -131.447c-20.1045 -46.79 -18.3906 -92.6855 -6.85742 -150.391
c21.9424 -109.838 97.3047 -215.934 172.914 -271.391c79.4385 -58.2764 167.114 -92.1807 258.8 -39.6758c35.9424 20.5527 61.6377 46.1719 83.876 82.7627z" />
    <glyph glyph-name="Egrave" unicode="&#xc8;" horiz-adv-x="424" 
d="M269.19 700.952h-35.3711l-68.1621 78.7715h66.5049zM145.953 661.638c-20.333 -3.7334 -35.9922 -21.7803 -35.9922 -43.1045v-282.695h159.495c18.5146 0 33.6104 15.0957 33.6104 33.6104v1.33301h5.01953v-74.9141h-5.01953v1.33301
c0 18.5234 -15.1143 33.6094 -33.6094 33.6094h-159.495v-282.686c0 -21.4385 15.5234 -39.3721 35.9238 -43.0957h167.638l99.4189 72.5615l-29.8379 -77.5811h-361.199v4.32422h0.828125c24.1338 0 43.8096 19.6758 43.8096 43.7998v570.4
c0 24.124 -19.8193 43.7998 -43.8096 43.7998h-0.828125v4.32422h242.771h118.429l29.8379 -77.5811l-99.4189 72.5615h-167.571z" />
    <glyph glyph-name="Eacute" unicode="&#xc9;" horiz-adv-x="424" 
d="M201.028 721.152h-35.3721l37.0381 78.7715h66.5146zM145.951 661.638c-20.333 -3.7334 -35.9922 -21.7803 -35.9922 -43.1045v-282.695h159.495c18.5146 0 33.6104 15.0957 33.6104 33.6104v1.33301h5.01953v-74.9141h-5.01953v1.33301
c0 18.5234 -15.1143 33.6094 -33.6094 33.6094h-159.495v-282.686c0 -21.4385 15.5234 -39.3721 35.9238 -43.0957h167.638l99.4189 72.5615l-29.8379 -77.5811h-361.199v4.32422h0.828125c24.1338 0 43.8096 19.6758 43.8096 43.7998v570.4
c0 24.124 -19.8193 43.7998 -43.8096 43.7998h-0.80957v4.32422h242.763h118.438l29.8379 -77.5811l-99.4287 72.5615h-167.581z" />
    <glyph glyph-name="Ecircumflex" unicode="&#xca;" horiz-adv-x="424" 
d="M249.01 721.152l-31.5723 65.3906l-31.5713 -65.3906h-38.333l61.4189 75.8477h16.9717l61.4287 -75.8477h-38.3428zM145.952 661.639c-20.333 -3.7334 -35.9932 -21.7803 -35.9932 -43.1045v-282.695h159.495c18.5146 0 33.6104 15.0957 33.6104 33.6104v1.33301
h5.01953v-74.9141h-5.01855v1.33301c0 18.5234 -15.1143 33.6094 -33.6094 33.6094h-159.495v-282.686c0 -21.4385 15.5234 -39.3721 35.9238 -43.0957h167.638l99.4189 72.5615l-29.8379 -77.5811h-361.199v4.32422h0.828125c24.1338 0 43.8096 19.6758 43.8096 43.7998
v570.4c0 24.124 -19.8193 43.7998 -43.8096 43.7998h-0.828125v4.32422h242.771h118.429l29.8379 -77.5811l-99.4189 72.5615h-167.571z" />
    <glyph glyph-name="Edieresis" unicode="&#xcb;" horiz-adv-x="424" 
d="M246.924 752.447c0 17.21 14.0762 31.2861 31.2949 31.2861h1.15234c17.21 0 31.2959 -14.0762 31.2959 -31.2861c0 -17.2188 -14.0859 -31.2949 -31.2959 -31.2949h-1.15234c-17.2188 0 -31.2949 14.0762 -31.2949 31.2949zM155.477 721.152
c-17.2285 0 -31.2959 14.0762 -31.2959 31.2949c0 17.21 14.0859 31.2861 31.2959 31.2861h1.16211c17.21 0 31.2861 -14.0762 31.2861 -31.2861c0 -17.2188 -14.0762 -31.2949 -31.2861 -31.2949h-1.16211zM145.952 661.638
c-20.333 -3.7334 -35.9932 -21.7803 -35.9932 -43.1045v-282.695h159.495c18.5146 0 33.6104 15.0957 33.6104 33.6104v1.33301h5.01953v-74.9141h-5.01855v1.33301c0 18.5234 -15.1143 33.6094 -33.6094 33.6094h-159.495v-282.686
c0 -21.4385 15.5234 -39.3721 35.9238 -43.0957h167.638l99.4189 72.5615l-29.8379 -77.5811h-361.199v4.32422h0.828125c24.1338 0 43.8096 19.6758 43.8096 43.7998v570.4c0 24.124 -19.8193 43.7998 -43.8096 43.7998h-0.828125v4.32422h242.771h118.429
l29.8379 -77.5811l-99.4189 72.5615h-167.571z" />
    <glyph glyph-name="Igrave" unicode="&#xcc;" horiz-adv-x="178" 
d="M140.98 700.952h-35.3711l-68.1719 78.7715h66.5049zM155.562 -0.00976562h-132.705v4.32422h0.828125c24.1338 0 43.8096 19.6758 43.8096 43.8096v570.409c0 24.124 -19.6758 43.7998 -43.8096 43.7998h-0.828125v4.32422h132.705v-4.32422h-0.847656
c-24.1338 0 -43.8008 -19.6758 -43.8008 -43.7998v-570.409c0 -24.1338 19.667 -43.8096 43.8008 -43.8096h0.847656v-4.32422z" />
    <glyph glyph-name="Iacute" unicode="&#xcd;" horiz-adv-x="178" 
d="M72.8096 721.152h-35.3799l37.0283 78.7715h66.5234zM155.563 -0.00976562h-132.705v4.32422h0.828125c24.1143 0 43.8096 19.6758 43.8096 43.8096v570.409c0 24.124 -19.6758 43.7998 -43.8096 43.7998h-0.828125v4.32422h132.705v-4.32422h-0.847656
c-24.1338 0 -43.8008 -19.6758 -43.8008 -43.7998v-570.409c0 -24.1338 19.667 -43.8096 43.8008 -43.8096h0.847656v-4.32422z" />
    <glyph glyph-name="Icircumflex" unicode="&#xce;" horiz-adv-x="178" 
d="M120.523 721.152l-31.5625 65.3906l-31.5713 -65.3906h-38.3428l61.4287 75.8477h16.9619l61.4287 -75.8477h-38.3428zM155.313 -0.00976562h-132.715v4.32422h0.837891c24.124 0 43.7998 19.6758 43.7998 43.8096v570.409c0 24.124 -19.6758 43.7998 -43.7998 43.7998
h-0.837891v4.32422h132.715v-4.32422h-0.847656c-24.1338 0 -43.8096 -19.6758 -43.8096 -43.7998v-570.409c0 -24.1338 19.6758 -43.8096 43.8096 -43.8096h0.847656v-4.32422z" />
    <glyph glyph-name="Idieresis" unicode="&#xcf;" horiz-adv-x="177" 
d="M117.98 752.447c0 17.21 14.0762 31.2861 31.2861 31.2861h1.18066c17.21 0 31.2861 -14.0762 31.2861 -31.2861c0 -17.2188 -14.0762 -31.2949 -31.2861 -31.2949h-1.18066c-17.21 0 -31.2861 14.0762 -31.2861 31.2949zM26.5332 721.152
c-17.2188 0 -31.2949 14.0762 -31.2949 31.2949c0 17.21 14.0762 31.2861 31.2949 31.2861h1.15234c17.2188 0 31.2949 -14.0762 31.2949 -31.2861c0 -17.2188 -14.0762 -31.2949 -31.2949 -31.2949h-1.15234zM154.828 -0.00976562h-132.705v4.32422h0.837891
c24.124 0 43.7998 19.6758 43.7998 43.8096v570.409c0 24.124 -19.6758 43.7998 -43.7998 43.7998h-0.837891v4.32422h132.705v-4.32422h-0.847656c-24.124 0 -43.7998 -19.6758 -43.7998 -43.7998v-570.409c0 -24.1338 19.6758 -43.8096 43.7998 -43.8096h0.847656
v-4.32422z" />
    <glyph glyph-name="Eth" unicode="&#xd0;" horiz-adv-x="576" 
d="M109.028 315.914h-43.751c-24.1338 0 -43.8096 -15.876 -43.8096 -35.3428v-0.685547h-4.32422v107.076h4.32422v-0.666992c0 -19.4668 19.6953 -35.3525 43.8096 -35.3525h43.7715v267.676c0 24.1338 -19.8281 43.8096 -43.8096 43.8096h-0.847656v4.32422h176.743
c85.667 0 163.543 -37.4951 219.99 -97.8955c121.972 -130.515 121.972 -340.343 0 -470.866c-56.4287 -60.4004 -134.324 -97.8857 -219.991 -97.8857h-176.743v4.31445h0.828125c24.1338 0 43.8096 19.6758 43.8096 43.8096v267.686zM188.449 661.704
c-20.3428 -3.7334 -36.001 -21.7412 -36.001 -43.084v-267.676h149.781c24.1143 0 43.8096 15.8662 43.8096 35.3516v0.666992h4.32422v-107.076h-4.30469v0.685547c0 19.4668 -19.6953 35.3428 -43.8096 35.3428h-149.8v-267.705
c0 -21.4385 15.543 -39.3623 35.9434 -43.1055h37.0762c375.447 0 370.876 656.6 0 656.6h-37.0195z" />
    <glyph glyph-name="Ntilde" unicode="&#xd1;" horiz-adv-x="568" 
d="M181.515 721.248c3.84766 54.0762 45.4473 71.9336 80.9326 62.1523c25.5332 -6.82812 44.9717 -27.1807 71.0195 -27.1807c21.3906 0 42.5713 12.7812 53.2188 36.2383c-3.84766 -54.0859 -45.4473 -71.9336 -80.9326 -62.1621
c-25.5332 6.83789 -44.9619 27.1807 -71.0195 27.1807c-21.4092 0 -42.5811 -12.7715 -53.2188 -36.2285zM62.334 666.867l51.9639 -0.000976562l91.4951 -139.124l295.02 -448.543v547.353c0 19.4287 -15.8574 35.2861 -35.2861 35.2861h-3.24805v5.02832h82.0859v-5.02832
h-3.24805c-19.4385 0 -35.2959 -15.8574 -35.2959 -35.2861v-626.485h-5.01953v0.133789l-433.429 659.01v-618.81c0 -19.4287 15.8574 -35.2949 35.2861 -35.2949h3.24805v-5.01953h-82.0957v5.01953h3.22852c19.4287 0 35.2949 15.8662 35.2949 35.2949v626.467z" />
    <glyph glyph-name="Ograve" unicode="&#xd2;" 
d="M227.721 655.058c269.134 79.4385 502.771 -289.762 344.933 -529.285c-27.21 -41.2861 -59.6289 -71.6006 -103.953 -94.6191c-267.714 -139.152 -544.828 219.19 -411.123 480.457c36.1338 70.7236 95.0195 121.257 170.144 143.447zM375.101 701.048h-35.3906
l-68.1621 78.7617h66.5146zM477.862 46.0098c35.9238 20.5615 61.6396 46.1709 83.8682 82.7705c33.1338 54.5713 36.543 106.114 22.5146 176.447c-28.8193 144.257 -211.01 385.505 -373.753 333.705c-62.4668 -19.876 -114.695 -70.9336 -140.686 -131.448
c-20.0957 -46.79 -18.3818 -92.7041 -6.84863 -150.39c32.6758 -163.6 234.219 -414.542 414.904 -311.085z" />
    <glyph glyph-name="Oacute" unicode="&#xd3;" 
d="M227.739 655.058c269.134 79.4385 502.762 -289.762 344.934 -529.285c-27.21 -41.2861 -59.6484 -71.6006 -103.973 -94.6191c-267.714 -139.152 -544.828 219.19 -411.123 480.457c36.1523 70.7236 95.0479 121.257 170.162 143.447zM306.929 721.248h-35.3799
l37.0283 78.7617h66.5234zM477.882 46.0098c35.9238 20.5615 61.6396 46.1709 83.8584 82.7705c33.1426 54.5713 36.5615 106.114 22.5137 176.447c-28.8096 144.257 -211 385.505 -373.743 333.705c-62.4668 -19.876 -114.695 -70.9336 -140.686 -131.448
c-20.0957 -46.79 -18.3906 -92.7041 -6.84766 -150.39c32.6758 -163.6 234.219 -414.542 414.904 -311.085z" />
    <glyph glyph-name="Ocircumflex" unicode="&#xd4;" 
d="M227.721 655.058c269.134 79.4385 502.771 -289.762 344.933 -529.285c-27.21 -41.2861 -59.6484 -71.6006 -103.953 -94.6191c-267.714 -139.152 -544.828 219.19 -411.123 480.457c36.1338 70.7236 95.0293 121.257 170.144 143.447zM354.882 721.248l-31.5723 65.3906
l-31.5713 -65.3906h-38.333l61.4189 75.8477h16.9717l61.4287 -75.8477h-38.3428zM477.853 46.0098c35.9336 20.5615 61.6475 46.1709 83.876 82.7705c33.1338 54.5713 36.5625 106.114 22.5146 176.447c-28.8193 144.257 -211.01 385.505 -373.762 333.705
c-62.4766 -19.876 -114.695 -70.9336 -140.686 -131.448c-20.1045 -46.79 -18.3906 -92.7041 -6.85742 -150.39c32.6758 -163.6 234.219 -414.542 414.914 -311.085z" />
    <glyph glyph-name="Otilde" unicode="&#xd5;" 
d="M227.739 655.058c269.134 79.4385 502.762 -289.762 344.934 -529.285c-27.21 -41.2861 -59.6484 -71.6006 -103.973 -94.6191c-267.714 -139.152 -544.828 219.19 -411.123 480.457c36.1621 70.7236 95.0479 121.257 170.162 143.447zM273.977 757.477
c-21.4092 0 -42.5791 -12.7715 -53.2168 -36.2285c3.84766 54.0762 45.4473 71.9336 80.9326 62.1523c25.5332 -6.82812 44.9805 -27.1807 71.0186 -27.1807c21.4092 0 42.5898 12.7812 53.2275 36.2383c-3.85742 -54.0859 -45.457 -71.9336 -80.9424 -62.1621
c-25.5332 6.83789 -44.9619 27.1807 -71.0195 27.1807zM477.902 46.0098c35.9238 20.5615 61.6387 46.1709 83.8574 82.7705c33.1338 54.5713 36.543 106.114 22.5146 176.447c-28.8096 144.257 -211 385.505 -373.743 333.705
c-62.4766 -19.876 -114.695 -70.9336 -140.686 -131.448c-20.1045 -46.79 -18.3906 -92.7041 -6.85742 -150.39c32.6855 -163.6 234.219 -414.542 414.914 -311.085z" />
    <glyph glyph-name="Odieresis" unicode="&#xd6;" 
d="M227.739 655.058c269.134 79.4385 502.762 -289.762 344.934 -529.285c-27.21 -41.2861 -59.6484 -71.6006 -103.973 -94.6191c-267.714 -139.152 -544.828 219.19 -411.123 480.457c36.1621 70.7236 95.0479 121.257 170.162 143.447zM384.119 721.248
c-17.21 0 -31.2959 14.0762 -31.2959 31.2861c0 17.2188 14.0859 31.2949 31.2959 31.2949h1.16211c17.21 0 31.2861 -14.0762 31.2861 -31.2949c0 -17.21 -14.0762 -31.2861 -31.2861 -31.2861h-1.16211zM261.376 721.248c-17.21 0 -31.2861 14.0762 -31.2861 31.2861
c0 17.2188 14.0762 31.2949 31.2861 31.2949h1.16211c17.21 0 31.2959 -14.0762 31.2959 -31.2949c0 -17.21 -14.0859 -31.2861 -31.2959 -31.2861h-1.16211zM477.881 46.0098c35.9424 20.5615 61.6572 46.1709 83.876 82.7705
c33.1338 54.5713 36.5625 106.114 22.5146 176.447c-28.8096 144.257 -211 385.505 -373.762 333.705c-62.4668 -19.876 -114.695 -70.9336 -140.686 -131.448c-20.0957 -46.79 -18.3906 -92.7041 -6.84766 -150.39c32.6758 -163.6 234.219 -414.542 414.904 -311.085z" />
    <glyph glyph-name="multiply" unicode="&#xd7;" horiz-adv-x="294" 
d="M258.657 251.419l-30.0664 -30.0664l-81.6475 81.6572l-81.6377 -81.6572l-30.0664 30.0664l81.6377 81.6377l-81.6377 81.6572l30.0664 30.0664l81.6377 -81.6572l81.6475 81.6572l30.0664 -30.0664l-81.6377 -81.6572z" />
    <glyph glyph-name="Oslash" unicode="&#xd8;" 
d="M380.571 666.257l19.7256 -0.000976562l-3.60938 -17.876c184.152 -70.333 299.048 -335.866 175.99 -522.609c-27.21 -41.2861 -59.6289 -71.6006 -103.972 -94.6191c-68.4385 -35.5713 -137.486 -38.5713 -200.134 -19.0566l-2.4668 -12.2188h-19.7236l3.75195 18.6289
c-172.438 67.2188 -288.695 305.257 -192.553 493.104c36.1523 70.7236 95.0479 121.257 170.162 143.447c52.3906 15.4668 103.429 13.8672 150.495 -0.40918zM259.697 66.0273l109.553 544.01c-51.0195 31.6191 -105.905 45.6953 -158.743 28.8955
c-62.4766 -19.876 -114.695 -70.9336 -140.686 -131.448c-20.1045 -46.79 -18.3906 -92.7041 -6.85742 -150.39c19.3809 -97.0098 98.1523 -224.743 196.733 -291.067zM477.888 46.0273c35.9336 20.543 61.6582 46.1533 83.877 82.7529
c33.1426 54.5713 36.5615 106.114 22.5137 176.447c-18.3809 92.0479 -99.2188 223.581 -197.619 293.276l-109.429 -543.457c63.2568 -36.9238 133.409 -47.543 200.657 -9.01953z" />
    <glyph glyph-name="Ugrave" unicode="&#xd9;" horiz-adv-x="593" 
d="M346.21 701.048h-35.3711l-68.1621 78.7617h66.5049zM311.887 4.86719c133.409 0.0283203 217.249 100.431 217.249 232.603v388.762c0 19.4287 -15.8574 35.2861 -35.2861 35.2861h-3.22852v5.02832h82.0762v-5.04785h-3.24805
c-19.4287 0 -35.2861 -15.8574 -35.2861 -35.2861v-388.743c0 -135.038 -86.0664 -237.543 -222.295 -237.591c-151.609 0 -251.038 115 -251.038 260.562v357.972c0 24.1338 -19.6758 43.8096 -43.8096 43.8096h-0.828125v4.32422h132.705v-4.32422h-0.847656
c-24.1338 0 -43.8008 -19.6758 -43.8008 -43.8096v-357.058c0 -137.553 49.4473 -256.524 207.638 -256.486z" />
    <glyph glyph-name="Uacute" unicode="&#xda;" horiz-adv-x="593" 
d="M278.028 721.248h-35.3711l37.0381 78.7617h66.5049zM311.886 4.86719c133.391 0.0283203 217.24 100.431 217.24 232.603v388.762c0 19.4287 -15.8574 35.2861 -35.2959 35.2861h-3.22852v5.02832h82.0859v-5.04785h-3.24805
c-19.4385 0 -35.2959 -15.8574 -35.2959 -35.2861v-388.743c0 -135.038 -86.0576 -237.543 -222.276 -237.591c-151.609 0 -251.038 115 -251.038 260.562v357.972c0 24.1338 -19.6758 43.8096 -43.8096 43.8096h-0.828125v4.32422h132.705v-4.32422h-0.847656
c-24.1338 0 -43.8008 -19.6758 -43.8008 -43.8096v-357.058c0 -137.553 49.4473 -256.524 207.638 -256.486z" />
    <glyph glyph-name="Ucircumflex" unicode="&#xdb;" horiz-adv-x="593" 
d="M326 721.248l-31.5723 65.3906l-31.5713 -65.3906h-38.3428l61.4287 75.8477h16.9717l61.4189 -75.8477h-38.333zM311.885 4.86719c133.409 0.0283203 217.24 100.431 217.24 232.603v388.762c0 19.4287 -15.8574 35.2861 -35.2959 35.2861h-3.22852v5.02832h82.0859
v-5.04785h-3.24805c-19.4385 0 -35.2959 -15.8574 -35.2959 -35.2861v-388.743c0 -135.038 -86.0576 -237.543 -222.276 -237.591c-151.609 0 -251.038 115 -251.038 260.562v357.972c0 24.1338 -19.6758 43.8096 -43.8096 43.8096h-0.828125v4.32422h132.705v-4.32422
h-0.847656c-24.1338 0 -43.8008 -19.6758 -43.8008 -43.8096v-357.058c0 -137.553 49.4473 -256.524 207.638 -256.486z" />
    <glyph glyph-name="Udieresis" unicode="&#xdc;" horiz-adv-x="593" 
d="M323.942 752.533c0 17.2188 14.0762 31.2949 31.2949 31.2949h1.17188c17.21 0 31.2959 -14.0762 31.2959 -31.2949c0 -17.21 -14.0859 -31.2861 -31.2959 -31.2861h-1.17188c-17.2188 0 -31.2949 14.0762 -31.2949 31.2861zM232.495 721.247
c-17.21 0 -31.2969 14.0762 -31.2969 31.2861c0 17.2188 14.0859 31.2949 31.2959 31.2949h1.16211c17.21 0 31.3057 -14.0762 31.3057 -31.2949c0 -17.21 -14.0762 -31.2861 -31.3047 -31.2861h-1.16211zM311.885 4.86621
c133.429 0.0283203 217.249 100.431 217.249 232.603v388.762c0 19.4287 -15.8574 35.2861 -35.2861 35.2861h-3.22852v5.02832h82.0762v-5.04785h-3.24805c-19.4287 0 -35.2861 -15.8574 -35.2861 -35.2861v-388.743c0 -135.038 -86.0664 -237.543 -222.295 -237.591
c-151.609 0 -251.038 115 -251.038 260.562v357.972c0 24.1338 -19.6758 43.8096 -43.8096 43.8096h-0.828125v4.32422h132.705v-4.32422h-0.847656c-24.1338 0 -43.8008 -19.6758 -43.8008 -43.8096v-357.058c0 -137.553 49.4473 -256.524 207.638 -256.486z" />
    <glyph glyph-name="Yacute" unicode="&#xdd;" horiz-adv-x="476" 
d="M221.19 721.248h-35.3711l37.0381 78.7617h66.4951zM445.372 641.905l-171.076 -297.952v-295.972c0 -24.124 19.6758 -43.7998 43.8096 -43.7998h0.847656v-4.32422h-133.98v4.32422h0.828125c24.1143 0 43.8096 19.6758 43.8096 43.7998v272.714l-196.447 321.99
c-7.49512 12.4287 -20.5137 18.8096 -35.0186 18.8096h-4.80957v5.04785h114.79v-5.04785h-2.18066c-5.0957 0 -9.44824 -2.60938 -11.8672 -7.07617c-2.40918 -4.48535 -1.77148 -9.33301 0.637695 -13.8096l176.543 -292.048l169.143 294.857
c2.2002 3.83789 2.47656 8.12402 0.342773 11.9814c-2.12402 3.86621 -5.92383 6.09473 -10.333 6.09473h-2.57129v5.04785h54v-5.04785h-0.933594c-14.8379 0 -28.1426 -6.72363 -35.5332 -19.5898z" />
    <glyph glyph-name="Thorn" unicode="&#xde;" horiz-adv-x="447" 
d="M109.962 214.076l171.305 0.000976562c32.8096 0 62.6475 13.4189 84.2852 35.0566c21.6289 21.6377 35.0576 51.4756 35.0576 84.2852s-13.4287 62.6475 -35.0576 84.2852c-21.6377 21.6289 -51.4756 35.0576 -84.2852 35.0576h-171.305v-238.686zM154.609 0.0869141
c-44.2285 0 -88.4766 0.00195312 -132.705 0.00195312v4.32422h0.828125c24.1338 0 43.8096 19.6758 43.8096 43.7998v570.409c0 24.1338 -19.6758 43.8096 -43.8096 43.8096h-0.828125v4.32422h132.705v-4.30469h-0.847656c-24.1338 0 -43.8008 -19.6758 -43.8008 -43.8096
v-132.286h171.305c42.0576 0 80.3057 -17.21 108.001 -44.915c27.7051 -27.7051 44.9053 -65.9434 44.9053 -108.001c0 -42.0664 -17.2002 -80.3047 -44.9053 -108.01c-27.6953 -27.7236 -65.9434 -44.9141 -108.001 -44.9141h-171.305v-132.305
c0 -24.124 19.667 -43.7998 43.8008 -43.7998h0.847656v-4.32422z" />
    <glyph glyph-name="germandbls" unicode="&#xdf;" horiz-adv-x="432" 
d="M44.7617 0.152344v451.439c0 133.457 8.67578 203.904 141.275 203.904c79.0762 0 141.248 -61.2861 122.667 -144.733c-14.8477 -66.667 -66.6094 -116.801 -66.6094 -155.486c0 -87.9043 170.295 -101.267 170.295 -226.285
c0 -82.3145 -59.7998 -128.924 -139.152 -128.924c-59.7334 0 -110.076 29.7617 -140.409 80.8281l34.7715 16.0859c20.0664 -32.1904 57.8857 -67.3809 106.066 -67.3809c56.9814 0 97.5625 37.5996 97.5625 95.8281c1.56152 84.333 -110.753 112.818 -153.543 171.752
c-15.4385 21.2568 -24.248 47.457 -14.0479 77.6572c15.5527 46.0479 56.0381 97.4668 65.9902 146.477c11.3906 56.1143 -28.8379 96.2764 -83.3613 98.1904c-113.276 3.96191 -99.9141 -85.4951 -99.9141 -171.429v-447.924h-41.5908z" />
    <glyph glyph-name="agrave" unicode="&#xe0;" horiz-adv-x="419" 
d="M298.743 353.934c-7.7998 9.93359 -18.5674 17.6641 -33.4629 23.3877c-73.21 28.1143 -141.486 -38.2188 -191.753 -65.9902l-51.6191 25.8379c70.6289 37.6289 171.362 71.7051 245.2 45.1523c10.6191 -3.81934 20.3809 -8.61914 29.2471 -14.2949
c22.6953 -14.5332 39.6377 -34.8857 50.666 -59.7432c11.6475 -26.2666 15.0566 -57.5811 15.0566 -92.4951v-167.638c0 -24.124 19.6758 -43.7998 43.7998 -43.7998h0.837891v-4.32422h-24.0859c-35.2383 0 -63.9717 28.7236 -63.9717 63.9717v17.9707
c0 12.5713 -10.5908 18.3145 -21.3525 11.3428c-8.66699 -5.59961 -17.0195 -17.085 -21.3438 -22.1514c-19.124 -22.457 -42.2197 -40.333 -66.5527 -52.5518c-21.3525 -10.7334 -44 -18.2568 -67.9521 -18.5811c-55.2666 -0.751953 -110.609 34.6289 -114.285 93.7627
c-2.29492 37.1621 19.3809 76.0957 65.8477 101.677c41.9521 23.0859 97.0947 35.8096 131.237 51.124c42.0479 18.8477 112.334 49.2764 74.4863 107.343zM230.709 427.283l-68.1621 78.7715h66.5146l37.0381 -78.7715h-35.3906zM318.709 215.627
c0.171875 41.8096 0.867188 75.248 -4.30469 101.172c-4.51465 -37.4766 -55.6289 -60.2197 -90.2666 -75.7725c-38.9141 -17.4385 -85.6377 -34.2285 -118.609 -60.4473c-49.21 -39.1045 -44.4004 -107.762 -2.67676 -149.276
c25.7715 -25.667 63.0664 -28.9619 104.314 -8.22852h0.0185547c30.3906 15.2764 58.8477 39.5811 79.667 70.7432c15.79 23.6289 31.7998 23.0859 31.7998 47.2666v74.543h0.0576172z" />
    <glyph glyph-name="aacute" unicode="&#xe1;" horiz-adv-x="419" 
d="M298.743 353.934c-7.7998 9.93359 -18.5674 17.6641 -33.4629 23.3877c-73.21 28.1143 -141.467 -38.2188 -191.753 -65.9902l-51.6191 25.8379c70.6289 37.6289 171.362 71.7051 245.2 45.1523c10.6191 -3.81934 20.3809 -8.61914 29.2471 -14.2949
c22.6953 -14.5332 39.6377 -34.8857 50.666 -59.7432c11.6475 -26.2666 15.0566 -57.5811 15.0566 -92.4951v-167.638c0 -24.124 19.6855 -43.7998 43.7998 -43.7998h0.837891v-4.32422h-24.0859c-35.2188 0 -63.9707 28.7236 -63.9707 63.9717v17.9707
c0 12.5713 -10.5908 18.3145 -21.3525 11.3428c-8.66699 -5.59961 -17.0195 -17.085 -21.3438 -22.1514c-19.124 -22.457 -42.2197 -40.333 -66.5342 -52.5518c-21.3525 -10.7334 -44 -18.2568 -67.9521 -18.5811c-55.2764 -0.751953 -110.619 34.6289 -114.286 93.7627
c-2.30469 37.1621 19.3623 76.0957 65.8477 101.677c41.9424 23.0859 97.0947 35.8096 131.237 51.124c42.0098 18.8477 112.296 49.2764 74.4678 107.343zM318.709 215.626c0.171875 41.8096 0.867188 75.248 -4.30469 101.172
c-4.51465 -37.4766 -55.6289 -60.2197 -90.2666 -75.7725c-38.9141 -17.4385 -85.6572 -34.2285 -118.609 -60.4473c-49.1904 -39.1045 -44.4004 -107.762 -2.67676 -149.276c25.7715 -25.667 63.0664 -28.9619 104.314 -8.22852h0.0195312
c30.3906 15.2764 58.8477 39.5811 79.6758 70.7432c15.7998 23.6289 31.7998 23.0859 31.7998 47.2666v74.543h0.0478516zM197.899 447.483h-35.3711l37.0381 78.7617h66.4951z" />
    <glyph glyph-name="acircumflex" unicode="&#xe2;" horiz-adv-x="419" 
d="M298.743 353.934c-7.7998 9.93359 -18.5664 17.6641 -33.4619 23.3877c-73.21 28.1143 -141.467 -38.2188 -191.753 -65.9902l-51.6191 25.8379c70.6289 37.6289 171.362 71.7051 245.2 45.1523c10.6191 -3.81934 20.3809 -8.61914 29.2471 -14.2949
c22.6953 -14.5332 39.6377 -34.8857 50.666 -59.7432c11.6475 -26.2666 15.0566 -57.5811 15.0566 -92.4951v-167.638c0 -24.124 19.6758 -43.7998 43.7998 -43.7998h0.837891v-4.32422h-24.0859c-35.2188 0 -63.9707 28.7236 -63.9707 63.9717v17.9707
c0 12.5713 -10.5908 18.3145 -21.3525 11.3428c-8.66699 -5.59961 -17.0195 -17.085 -21.3438 -22.1514c-19.124 -22.457 -42.2197 -40.333 -66.5342 -52.5518c-21.3525 -10.7334 -44 -18.2568 -67.9521 -18.5811c-55.2764 -0.751953 -110.619 34.6289 -114.286 93.7627
c-2.30469 37.1621 19.3809 76.0957 65.8477 101.677c41.9424 23.0859 97.0947 35.8096 131.237 51.124c42.0283 18.8477 112.295 49.2764 74.4668 107.343zM318.71 215.626c0.171875 41.8096 0.866211 75.248 -4.30566 101.172
c-4.51465 -37.4766 -55.6289 -60.2197 -90.2666 -75.7725c-38.9141 -17.4385 -85.6377 -34.2285 -118.609 -60.4473c-49.21 -39.1045 -44.4004 -107.762 -2.67676 -149.276c25.7715 -25.667 63.0859 -28.9619 104.314 -8.22852h0.0195312
c30.3906 15.2764 58.8477 39.5811 79.667 70.7432c15.79 23.6289 31.7998 23.0859 31.7998 47.2666v74.543h0.0576172zM245.881 447.493l-31.5723 65.3906l-31.5615 -65.3906h-38.3428l61.4287 75.8477h16.9619l61.4287 -75.8477h-38.3428z" />
    <glyph glyph-name="atilde" unicode="&#xe3;" horiz-adv-x="419" 
d="M298.743 353.934c-7.7998 9.93359 -18.5703 17.6641 -33.4658 23.3877c-73.21 28.1143 -141.467 -38.2188 -191.753 -65.9902l-51.6191 25.8379c70.6289 37.6289 171.362 71.7051 245.2 45.1523c10.6191 -3.81934 20.3809 -8.61914 29.2471 -14.2949
c22.6953 -14.5332 39.6377 -34.8857 50.666 -59.7432c11.6475 -26.2666 15.0566 -57.5811 15.0566 -92.4951v-167.638c0 -24.124 19.6758 -43.7998 43.7998 -43.7998h0.837891v-4.32422h-24.0859c-35.2188 0 -63.9707 28.7236 -63.9707 63.9717v17.9707
c0 12.5713 -10.5996 18.3145 -21.3516 11.3428c-8.66699 -5.59961 -17.0195 -17.085 -21.3438 -22.1514c-19.124 -22.457 -42.2197 -40.333 -66.5527 -52.5518c-21.3525 -10.7334 -44 -18.2568 -67.9521 -18.5811c-55.2666 -0.751953 -110.609 34.6289 -114.285 93.7627
c-2.29492 37.1621 19.3721 76.0957 65.8486 101.677c41.9521 23.0859 97.0947 35.8096 131.237 51.124c42.0479 18.8477 112.314 49.2764 74.4863 107.343zM318.706 215.626c0.171875 41.8096 0.868164 75.248 -4.30371 101.172
c-4.51465 -37.4766 -55.6289 -60.2197 -90.2666 -75.7725c-38.9141 -17.4385 -85.6572 -34.2285 -118.609 -60.4473c-49.21 -39.1045 -44.4004 -107.762 -2.67676 -149.276c25.7715 -25.667 63.0664 -28.9619 104.314 -8.22852h0.0185547
c30.3906 15.2764 58.8477 39.5811 79.6758 70.7432c15.7998 23.6289 31.7998 23.0859 31.7998 47.2666v74.543h0.0478516zM164.926 483.712c-21.3906 0 -42.5703 -12.7715 -53.1992 -36.2285c3.84766 54.0859 45.4473 71.9336 80.9326 62.1523
c25.5332 -6.82812 44.9619 -27.1807 71.0195 -27.1807c21.4092 0 42.5713 12.7812 53.209 36.2383c-3.85742 -54.0859 -45.457 -71.9336 -80.9424 -62.1621c-25.5332 6.83789 -44.9619 27.1807 -71.0195 27.1807z" />
    <glyph glyph-name="adieresis" unicode="&#xe4;" horiz-adv-x="419" 
d="M298.743 353.934c-7.7998 9.93359 -18.5664 17.6641 -33.4619 23.3877c-73.21 28.1143 -141.467 -38.2188 -191.753 -65.9902l-51.6191 25.8379c70.6289 37.6289 171.362 71.7051 245.2 45.1523c10.6191 -3.81934 20.3809 -8.61914 29.2471 -14.2949
c22.6953 -14.5332 39.6377 -34.8857 50.666 -59.7432c11.6475 -26.2666 15.0566 -57.5811 15.0566 -92.4951v-167.638c0 -24.124 19.6758 -43.7998 43.7998 -43.7998h0.837891v-4.32422h-24.0859c-35.2188 0 -63.9707 28.7236 -63.9707 63.9717v17.9707
c0 12.5713 -10.5908 18.3145 -21.3525 11.3428c-8.66699 -5.59961 -17.0195 -17.085 -21.3438 -22.1514c-19.124 -22.457 -42.2197 -40.333 -66.5342 -52.5518c-21.3525 -10.7334 -44 -18.2568 -67.9521 -18.5811c-55.2764 -0.751953 -110.619 34.6289 -114.286 93.7627
c-2.30469 37.1621 19.3623 76.0957 65.8477 101.677c41.9424 23.0859 97.0947 35.8096 131.237 51.124c42.0283 18.8477 112.314 49.2764 74.4668 107.343zM318.71 215.626c0.171875 41.8096 0.866211 75.248 -4.30566 101.172
c-4.51465 -37.4766 -55.6289 -60.2197 -90.2666 -75.7725c-38.9141 -17.4385 -85.6377 -34.2285 -118.609 -60.4473c-49.1904 -39.1045 -44.4004 -107.762 -2.67676 -149.276c25.7715 -25.667 63.0859 -28.9619 104.314 -8.22852h0.0195312
c30.3906 15.2764 58.8477 39.5811 79.667 70.7432c15.79 23.6289 31.7998 23.0859 31.7998 47.2666v74.543h0.0576172zM275.1 447.493c-17.21 -0.00976562 -31.2861 14.0674 -31.2861 31.2959c0 17.21 14.0762 31.2959 31.2861 31.2959h1.16211
c17.21 0 31.2959 -14.0859 31.2959 -31.2959s-14.0859 -31.2959 -31.2959 -31.2959h-1.16211zM152.366 447.494c-17.21 -0.00976562 -31.2959 14.0674 -31.2959 31.2959c0 17.21 14.0859 31.2959 31.2959 31.2959h1.15234c17.2188 0 31.2949 -14.0859 31.2949 -31.2959
s-14.0762 -31.2959 -31.2949 -31.2959h-1.15234z" />
    <glyph glyph-name="aring" unicode="&#xe5;" horiz-adv-x="419" 
d="M298.743 353.934c-7.7998 9.93359 -18.5693 17.6641 -33.4648 23.3877c-73.21 28.1143 -141.467 -38.2188 -191.753 -65.9902l-51.6191 25.8379c70.6289 37.6289 171.362 71.7051 245.2 45.1523c10.6191 -3.81934 20.3809 -8.61914 29.2471 -14.2949
c22.6953 -14.5332 39.6377 -34.8857 50.666 -59.7432c11.6475 -26.2666 15.0566 -57.5811 15.0566 -92.4951v-167.638c0 -24.124 19.6758 -43.7998 43.7998 -43.7998h0.837891v-4.32422h-24.0859c-35.2188 0 -63.9707 28.7236 -63.9707 63.9717v17.9707
c0 12.5713 -10.5908 18.3145 -21.3525 11.3428c-8.66699 -5.59961 -17.0195 -17.085 -21.3438 -22.1514c-19.124 -22.457 -42.2197 -40.333 -66.5527 -52.5518c-21.3525 -10.7334 -44 -18.2568 -67.9521 -18.5811c-55.2666 -0.751953 -110.609 34.6289 -114.285 93.7627
c-2.29492 37.1621 19.3721 76.0957 65.8486 101.677c41.9521 23.0859 97.0947 35.8096 131.237 51.124c42.0283 18.8477 112.314 49.2764 74.4863 107.343zM235.402 501.273l-0.0292969 0.0664062c-5.35254 5.34277 -12.8096 8.67578 -21.0664 8.67578
c-8.2666 0 -15.7236 -3.33301 -21.0566 -8.67578l-0.0664062 -0.0664062c-5.35254 -5.35254 -8.67676 -12.8096 -8.67676 -21.0859c0 -8.2666 3.32422 -15.7051 8.67676 -21.0576l0.0478516 -0.0478516c5.35254 -5.35254 12.8096 -8.68555 21.0664 -8.68555
c8.2666 0 15.7236 3.33301 21.0566 8.68555l0.0478516 0.0478516c5.35254 5.35254 8.68555 12.8096 8.68555 21.0576c0 8.27637 -3.31445 15.7334 -8.68555 21.0859zM174.287 520.264c10.2764 10.248 24.4287 16.5908 40.0098 16.5908s29.7236 -6.34277 40 -16.5908
l0.0664062 -0.0478516c10.248 -10.2861 16.5908 -24.4287 16.5908 -40.0098s-6.34277 -29.7236 -16.5908 -40l-0.0664062 -0.0576172c-10.2764 -10.2383 -24.4189 -16.5908 -40 -16.5908s-29.7334 6.35254 -40.0098 16.5908l-0.0478516 0.0576172
c-10.248 10.2764 -16.5908 24.4189 -16.5908 40s6.34277 29.7236 16.5908 40.0098zM318.706 215.626c0.171875 41.8096 0.869141 75.248 -4.30273 101.172c-4.51465 -37.4766 -55.6289 -60.2197 -90.2666 -75.7725c-38.8955 -17.4385 -85.6387 -34.2285 -118.61 -60.4473
c-49.21 -39.1045 -44.4004 -107.762 -2.67676 -149.276c25.7715 -25.667 63.0664 -28.9619 104.314 -8.22852h0.0185547c30.3906 15.2764 58.8477 39.5811 79.6758 70.7432c15.7998 23.6289 31.7998 23.0859 31.7998 47.2666v74.543h0.0478516z" />
    <glyph glyph-name="ae" unicode="&#xe6;" horiz-adv-x="719" 
d="M425.267 363.752c-24.5615 -15.0762 -44.4668 -38.4658 -55.8379 -64.9512c-6.40918 -14.9619 -9.04688 -29.7432 -9.03711 -45.5811c0.685547 -6.81934 1.14258 -13.8379 1.39062 -21.0283c0.866211 -7.01953 2.08496 -14.2959 3.61816 -21.915
c11.5527 -57.7715 48.2002 -113.8 87.6289 -148.353c-11.0762 22.3809 -16.1143 44.2188 -16.2666 64.1992c-0.19043 26.9238 8.48535 50.543 23.2373 67.8672c18.5615 21.8193 48.8945 35.1621 78.8281 48.3145c144.914 63.7051 -19.7998 178.962 -113.562 121.447z
M538.522 11.915c88.248 -26.3242 142.453 49.6445 135.748 108.235l33.8477 -18.7139c-28.8574 -68.2764 -71.0859 -101.448 -169.838 -101.429c-28.667 0 -57.8857 7.37109 -85.1426 22.3809c-40.4854 22.3047 -72.0469 58.6855 -91.0566 100.638v-74.876
c0 -24.124 19.6758 -43.7998 43.7998 -43.7998h0.837891v-4.32422h-24.0859c-35.2383 0 -63.9717 28.7236 -63.9717 63.9717v17.9707c0 12.5713 -10.5908 18.3145 -21.3525 11.3428c-8.66699 -5.59961 -17.0195 -17.085 -21.3438 -22.1514
c-19.124 -22.457 -42.2197 -40.333 -66.5342 -52.5518c-21.3525 -10.7334 -44 -18.2568 -67.9521 -18.5811c-55.2764 -0.751953 -110.619 34.6289 -114.286 93.7627c-2.29492 37.1621 19.3809 76.0957 65.8477 101.677c41.9424 23.0859 97.0947 35.8096 131.237 51.124
c42.0283 18.8662 112.314 49.2949 74.4668 107.361c-7.7998 9.93359 -18.5713 17.667 -33.4668 23.3906c-73.21 28.1143 -141.467 -38.2285 -191.753 -65.9902l-51.6191 25.8379c70.6289 37.6289 171.362 71.7051 245.2 45.1436
c10.6191 -3.81934 20.3809 -8.60938 29.2471 -14.2852c22.6953 -14.543 39.6377 -34.8857 50.666 -59.752c3.25684 -7.34277 5.86621 -15.0859 7.94238 -23.1816c2.15234 5.4668 4.57129 10.8672 7.27637 16.1719c21.2861 41.6191 55.9434 71.3711 100.172 84.4287
c42.457 12.5332 98.4473 7.66699 140.818 -15.666c66.3525 -38.3242 29.0098 -86.2383 -25.0947 -114.867c-11.7139 -6.2002 -24.457 -11.7998 -37.2666 -17.4473h-0.00976562c-29.4189 -12.9336 -59.2383 -26.0381 -77.0381 -46.9717
c-13.9902 -16.4287 -22.2285 -38.9053 -22.0283 -64.6104c0.162109 -22.3809 6.7334 -47.2285 21.4854 -72.667c1.30469 -1.00977 2.60938 -1.99023 3.91406 -2.95215c22.4668 -16.4766 46.4854 -31.21 71.333 -38.6191zM318.699 215.626
c0.162109 41.8096 0.866211 75.248 -4.31445 101.172c-4.51465 -37.4766 -55.6289 -60.2197 -90.2666 -75.7725c-38.9141 -17.4385 -85.6377 -34.2285 -118.609 -60.4473c-49.1904 -39.1045 -44.3906 -107.762 -2.67676 -149.276
c25.7812 -25.667 63.0859 -28.9619 104.314 -8.22852h0.0195312c30.4004 15.2764 58.8477 39.5811 79.667 70.7432c15.79 23.6289 31.7998 23.0859 31.7998 47.2666v74.543h0.0664062z" />
    <glyph glyph-name="ccedilla" unicode="&#xe7;" horiz-adv-x="380" 
d="M352.734 75.8857c1.20996 2.00977 2.3623 4.00098 3.44824 5.99121h7.80957c-1.5332 -2.60938 -3.15234 -5.2002 -4.82812 -7.76172c-16.0098 -24.3145 -35.1143 -42.1426 -61.2002 -55.7041c-27.2285 -14.1426 -57.6758 -20.2471 -88.3232 -17.9609l-9.33301 -12.5811
c4.35254 0 8.70508 -0.533203 12.9717 -1.65723c12.333 -3.2666 21.9521 -10.7432 27.7998 -20.9717c13.5234 -23.7051 1.21875 -54.7812 -24.3428 -67.4102c-13.8662 -6.85742 -30.3809 -7.48633 -44.4951 -0.915039c-7.16211 3.34277 -12.5811 7.82812 -17.0195 13.8662
c-3.18066 4.34277 -5.47559 9.13281 -6.82812 14.1807l-1.84766 6.89551h17.0957l0.333008 -5.28613c0.19043 -3.48535 1.31445 -6.42773 3.34277 -9.42773c2.52344 -3.7334 5.38086 -6.3623 9.60938 -8.53418c10.6377 -5.4668 20.7041 -1.2666 29.7617 4.68555
c10.4854 6.89551 19.4277 19.5244 21.9707 30.9531c2.81934 12.6855 -1.71387 25.0098 -16.6094 29.248c-8.07617 2.30469 -15.6475 -1.14258 -22.2002 -5.19043h-30.8193c2.77148 3.33301 5.95215 6.36133 9.52344 9.00879l19.4189 26.1719
c-17.3428 3.54297 -34.5234 9.81934 -51 18.8955c-94.7432 52.1904 -140.743 181.505 -90.8955 278.867c21.2949 41.6191 55.9424 71.3809 100.171 84.4473c64.1523 18.9238 157.429 1.07617 204.333 -75.9619l-38.3047 -14.9424
c-35.0479 68.6191 -122.876 98.3623 -176.171 81.4102c-36.7617 -11.6953 -67.5137 -41.7529 -82.8184 -77.3818c-11.8281 -27.543 -10.8184 -54.5625 -4.02832 -88.5244c12.9043 -64.6572 57.2666 -127.096 101.771 -159.743
c46.7617 -34.2949 98.3809 -54.2666 152.333 -23.3623c21.1426 12.0859 36.2852 27.1621 49.3711 48.6953z" />
    <glyph glyph-name="egrave" unicode="&#xe8;" horiz-adv-x="402" 
d="M109.105 363.752c-24.5527 -15.0762 -44.458 -38.4658 -55.8291 -64.9512c-11.8281 -27.5332 -10.8184 -54.5527 -4.02832 -88.5244c11.5527 -57.7715 48.1904 -113.8 87.6289 -148.353c-11.0762 22.3809 -16.124 44.2188 -16.2666 64.1992
c-0.200195 26.9238 8.48535 50.543 23.2285 67.8672c18.5713 21.8193 48.8955 35.1621 78.8379 48.3145c144.914 63.7051 -19.8096 178.962 -113.571 121.447zM260.609 427.306h-35.3711l-68.1621 78.7617h66.4951zM222.353 11.9053
c88.2666 -26.3145 142.456 49.6582 135.751 108.249l33.8574 -18.7139c-28.8662 -68.2764 -71.085 -101.448 -169.837 -101.43c-28.667 0 -57.8857 7.37109 -85.1523 22.3809c-94.7432 52.1904 -140.733 181.505 -90.9053 278.876
c21.2861 41.6191 55.9434 71.3809 100.172 84.4287c42.457 12.5332 98.4473 7.66699 140.818 -15.6572c66.3525 -38.3242 29.0098 -86.248 -25.0947 -114.877c-11.7139 -6.2002 -24.457 -11.7998 -37.2666 -17.4375h-0.00976562
c-29.4189 -12.9424 -59.2471 -26.0469 -77.0371 -46.9707c-13.9902 -16.4385 -22.209 -38.915 -22.0283 -64.6104c0.162109 -22.3906 6.7334 -47.2383 21.4854 -72.667c1.30469 -1.01855 2.60938 -1.99023 3.91406 -2.95215
c22.4473 -16.4854 46.4854 -31.2188 71.333 -38.6191z" />
    <glyph glyph-name="eacute" unicode="&#xe9;" horiz-adv-x="402" 
d="M109.105 363.752c-24.5527 -15.0762 -44.458 -38.4658 -55.8291 -64.9512c-11.8281 -27.5332 -10.8184 -54.5527 -4.02832 -88.5244c11.5527 -57.7715 48.1904 -113.8 87.6289 -148.353c-11.0762 22.3809 -16.124 44.2188 -16.2666 64.1992
c-0.200195 26.9238 8.48535 50.543 23.2188 67.8672c18.5615 21.8193 48.8945 35.1621 78.8281 48.3145c144.934 63.7051 -19.79 178.962 -113.552 121.447zM192.447 447.486h-35.3711l37.0283 78.7617h66.5049zM222.333 11.9053
c88.2764 -26.3145 142.493 49.6582 135.77 108.249l33.8574 -18.7139c-28.8662 -68.2764 -71.085 -101.448 -169.837 -101.43c-28.667 0 -57.8857 7.37109 -85.1523 22.3809c-94.7432 52.1904 -140.733 181.505 -90.9053 278.876
c21.2861 41.6191 55.9434 71.3809 100.153 84.4287c42.457 12.5332 98.4473 7.66699 140.818 -15.6572c66.3525 -38.3242 29.0098 -86.248 -25.0947 -114.877c-11.7139 -6.2002 -24.457 -11.7998 -37.2568 -17.4375h-0.0185547
c-29.4189 -12.9424 -59.2383 -26.0469 -77.0381 -46.9707c-13.9814 -16.4385 -22.21 -38.915 -22.0293 -64.6104c0.162109 -22.3906 6.74316 -47.2383 21.4863 -72.667c1.30469 -1.01855 2.60938 -1.99023 3.91406 -2.95215
c22.4668 -16.4854 46.4854 -31.2188 71.333 -38.6191z" />
    <glyph glyph-name="ecircumflex" unicode="&#xea;" horiz-adv-x="402" 
d="M109.124 363.752c-24.5527 -15.0762 -44.457 -38.4658 -55.8281 -64.9512c-11.8281 -27.5332 -10.8184 -54.5527 -4.02832 -88.5244c11.543 -57.7715 48.1904 -113.8 87.6289 -148.353c-11.0859 22.3809 -16.124 44.2188 -16.2666 64.1992
c-0.200195 26.9238 8.47559 50.543 23.209 67.8672c18.5713 21.8193 48.8955 35.1621 78.8379 48.3145c144.914 63.7051 -19.791 178.962 -113.553 121.447zM240.41 447.496l-31.5723 65.3906l-31.5713 -65.3906h-38.333l61.4189 75.8477h16.9717l61.4287 -75.8477h-38.3428
zM222.353 11.9062c88.2666 -26.3145 142.474 49.6592 135.75 108.25l33.8574 -18.7139c-28.8662 -68.2764 -71.085 -101.448 -169.837 -101.43c-28.667 0 -57.8857 7.37109 -85.1523 22.3809c-94.7432 52.1904 -140.733 181.505 -90.9053 278.876
c21.2861 41.6191 55.9434 71.3809 100.153 84.4287c42.457 12.5332 98.4473 7.66699 140.818 -15.6572c66.3525 -38.3242 29.0098 -86.248 -25.0947 -114.877c-11.7139 -6.2002 -24.457 -11.7998 -37.2568 -17.4375c-29.4189 -12.9424 -59.2471 -26.0469 -77.0371 -46.9707
c-13.9902 -16.4385 -22.2285 -38.915 -22.0283 -64.6104c0.162109 -22.3906 6.7334 -47.2383 21.4854 -72.667c1.30469 -1.01953 2.60938 -1.99121 3.91406 -2.95312c22.4473 -16.4854 46.4854 -31.2188 71.333 -38.6191z" />
    </font>
</defs>
</svg>
