<svg xmlns="http://www.w3.org/2000/svg" viewBox="0 0 1366.3 578.88"><defs><style>.cls-1{fill:none;stroke:#ede0d5;stroke-miterlimit:10;stroke-width:0.5px;}.cls-2{fill:#d3b298;}.cls-3{fill:#f7f0eb;}</style></defs><g id="Layer_2" data-name="Layer 2"><g id="Layer_1-2" data-name="Layer 1"><path class="cls-1" d="M.11,578.65C145,508.44,258,457,418.3,457.92,640,459.14,796.3,442.17,927,368.73c164.24-92.25,318.8-204,439.07-346.4"/><path class="cls-2" d="M1318.89,48.36s-9.67-9.45-3.93-27.91l2.33,3.56s-.67-14.2,5.12-18.6L1324,8.64A24.21,24.21,0,0,1,1337.63.28s6.7,9.29,1,26.81c0,0,5.36-1.19,5.4-2s-2,11.26-6,13.28h3.55s-7,12.47-17.59,11.75"/><path class="cls-3" d="M1318.89,48.36c-6.82-7.64-6.93-18.95-4-28.27l.19.28,2.34,3.56-.3.09c0-6.22.2-14.33,5.16-18.78l.19-.15.12.23,1.58,3.23-.36,0A24.18,24.18,0,0,1,1337.74,0a20.62,20.62,0,0,1,2.65,6.62c1.56,6.79.52,14-1.57,20.53l-.22-.24c1.75-.48,3.86-.77,5.27-1.77,0,.13.25.19.31.07s0,0,0,0-.1.4-.13.54a44.12,44.12,0,0,1-2.76,8.71,8.67,8.67,0,0,1-3.25,4.08l-.06-.27,3.55,0h.23l-.11.2c-3.77,6.14-10,12.11-17.71,11.68a15.26,15.26,0,0,0,5.45-.82,22.14,22.14,0,0,0,8.8-6.52,32.12,32.12,0,0,0,3.23-4.47l.11.2h-4.12c1.78-.76,2.8-2.53,3.6-4.22a46.28,46.28,0,0,0,2.83-9.21c0-.08.14-.26.26-.17.85,1-5,2.19-5.74,2.4,2.08-6.6,3.16-13.8,1.56-20.62a20.71,20.71,0,0,0-2.5-6.3l.25.1a22.57,22.57,0,0,0-3.86,1.16A23.83,23.83,0,0,0,1323.94,9l-.14-.31-1.57-3.23.31.07c-4.93,4.39-5.11,12.83-5.07,19-.1-.16-2.45-3.74-2.63-4l.26,0c-2.87,9.16-2.8,20.27,3.79,27.86Z"/><path class="cls-2" d="M1324.89,68.48s-8.09-28,6.24-46"/><path class="cls-3" d="M1324.89,68.48c-3.61-13.38-3.94-28.62,2.84-41.07a36.47,36.47,0,0,1,3.4-4.95c-9.68,13.08-9.63,30.73-6.24,46Z"/><path class="cls-2" d="M801.9,398.25s-5.35-14.11,9.14-30.1l.69,4.7s6-14.69,13.93-16.42l.07,4a27,27,0,0,1,17.74-2S845.89,371,831.89,386c0,0,6,1.32,6.39.56S831,397,825.9,397.16l3.6,1.69s-12.91,9.34-23.33,3.61"/><path class="cls-3" d="M801.9,398.25c-3.26-10.79,1.78-22.21,9-30.2l.21-.25.05.33.7,4.7-.31,0c2.87-6.2,7-14.48,14-16.56l.24-.06v.25l.08,4-.32-.18a27,27,0,0,1,8.77-2.58,26.47,26.47,0,0,1,9.3.51c.67,5.26-.79,10.5-2.92,15.25a50.72,50.72,0,0,1-8.75,12.7l-.1-.31c.94.2,1.89.38,2.85.53s2.31.48,3.34.13a.15.15,0,0,0,0,.17c.09,0,.13.07.21,0h0c-.1.12-.29.36-.38.49a48.6,48.6,0,0,1-6.89,7.51c-1.51,1.22-3.18,2.48-5.19,2.6L826,397l3.59,1.69.21.09-.19.13c-6.69,4.45-15.83,7.56-23.4,3.51a16.75,16.75,0,0,0,5.9,1.74,24.69,24.69,0,0,0,12-2.45,35.41,35.41,0,0,0,5.38-3l0,.23-3.6-1.68-.51-.24.57,0c1.91-.13,3.56-1.37,5-2.55a53.44,53.44,0,0,0,7.26-8.06c.21-.16.37.12.24.26a1,1,0,0,1-.76.3,28.64,28.64,0,0,1-6.11-.84l.21-.25c6.71-7.38,12.5-17.13,11.48-27.44l.19.2a25.72,25.72,0,0,0-9-.5,26,26,0,0,0-8.93,2.65v-.34l-.06-4,.25.2c-7,2-11.26,10.63-14.06,16.81,0-.27-.69-4.88-.75-5.27l.25.08c-7.22,7.93-12.37,19.22-9.25,30Z"/><path class="cls-3" d="M798.5,421.44c2.68-15.23,9.51-30.8,22.2-40.23a41.9,41.9,0,0,1,5.77-3.42c-16,8.66-24.25,26.57-28,43.65Z"/><path class="cls-2" d="M1017.53,290.13s-9.22-11.95,0-31.46l2,4.3s1.48-15.8,8.57-19.76l1.23,3.82a27,27,0,0,1,16.38-7.11s6,11.32-3.06,29.79c0,0,6.11-.48,6.27-1.32s-3.92,12.13-8.77,13.73l3.93.57s-9.63,12.68-21.27,10.23"/><path class="cls-3" d="M1017.53,290.13c-6.25-9.38-4.75-21.77-.12-31.52l.12-.3.15.3,2,4.3-.3,0c.94-6.77,2.51-15.9,8.62-19.93l.21-.12.08.24,1.24,3.82-.35-.09a27.26,27.26,0,0,1,16.69-7.22c2.17,4.84,2.29,10.27,1.63,15.44a50.49,50.49,0,0,1-4.68,14.69l-.19-.27c1-.08,1.93-.18,2.88-.31a8.22,8.22,0,0,0,3.23-.85s0,0,0,0a.15.15,0,0,0,.08.14c.1,0,.15,0,.21,0s0,0,0,0-.17.43-.23.58a48.8,48.8,0,0,1-4.4,9.19c-1.1,1.6-2.33,3.29-4.22,4l0-.27,3.93.58.23,0-.14.18c-3.93,4.75-9.1,8.84-15.22,10.17a16.57,16.57,0,0,1-6.16,0c6.23,1.23,12.34-1.81,16.89-5.87a36.62,36.62,0,0,0,4.28-4.44l.08.21-3.93-.56-.56-.08.54-.19c3.52-1.64,5.11-5.71,6.75-9,.7-1.5,1.29-3.19,1.91-4.71.16-.22.39,0,.31.18s-.4.4-.64.5a28,28,0,0,1-6.09,1l.13-.29c4.27-9,7-20,3-29.59l.24.13a25.77,25.77,0,0,0-8.72,2.13,26.27,26.27,0,0,0-7.78,5.12l-.1-.32-1.23-3.83.3.12c-6.06,4-7.68,13.44-8.57,20.16-.13-.24-2.08-4.47-2.25-4.81h.27c-4.61,9.68-6.26,22-.15,31.39Z"/><path class="cls-3" d="M1021,313.3c-1.86-15.35.15-32.23,9.57-44.93a40,40,0,0,1,4.52-4.95c-12.77,12.92-15.48,32.46-14.09,49.88Z"/><path class="cls-2" d="M124.84,499.13s-5.43-14.32,9.27-30.53l.7,4.77s6.08-14.9,14.13-16.66l.07,4.07a27.4,27.4,0,0,1,18-2.08s2.46,12.74-11.74,28c0,0,6.07,1.34,6.47.57S154.35,497.9,149.18,498l3.65,1.71s-13.09,9.48-23.66,3.67"/><path class="cls-3" d="M124.84,499.13c-3.31-10.95,1.8-22.53,9.16-30.63l.21-.25,0,.33.7,4.76-.3,0c2.91-6.29,7.12-14.69,14.23-16.8l.25-.06v.25l.08,4.08-.31-.19a27.41,27.41,0,0,1,8.9-2.61,26.91,26.91,0,0,1,9.42.52c.68,5.33-.8,10.64-3,15.46a51.28,51.28,0,0,1-8.88,12.88l-.09-.31c.95.21,1.92.39,2.88.54,1.12.11,2.35.49,3.39.13,0,0,0,0,0,0a.18.18,0,0,0,0,.16c.1.05.14.07.21,0s0,0,0,0l-.39.5a49.51,49.51,0,0,1-7,7.62c-1.53,1.23-3.22,2.51-5.26,2.63l.05-.26,3.64,1.71.21.1-.19.13c-5.2,3.45-11.43,5.9-17.76,5.39a16.92,16.92,0,0,1-6-1.83c5.68,3,12.5,1.87,18.13-.72a35.54,35.54,0,0,0,5.45-3.06l0,.23-3.65-1.7-.51-.24.57,0c3.9-.55,6.65-4,9.21-6.75,1.11-1.26,2.19-2.71,3.24-4,.21-.16.37.13.24.26s-.51.27-.77.3a29.3,29.3,0,0,1-6.19-.85l.21-.25c6.8-7.49,12.67-17.38,11.64-27.83l.19.19a26.23,26.23,0,0,0-9.09-.5,26.66,26.66,0,0,0-9.05,2.68v-.34l-.07-4.07.25.19c-7,2.07-11.41,10.79-14.25,17.05,0-.26-.7-4.95-.77-5.33l.26.08c-7.33,8-12.55,19.49-9.38,30.43Z"/><path class="cls-3" d="M121.39,522.64c2.72-15.44,9.64-31.23,22.52-40.79a42,42,0,0,1,5.84-3.48c-16.2,8.78-24.59,27-28.36,44.27Z"/><path class="cls-2" d="M421.14,470.63S427,483,446.58,483.57l-2.64-3.41s13.38,5.32,19.5,1.22l-2.58-2.58a24.44,24.44,0,0,0,12.49-10.32S466.66,459,448,458.7c0,0,2.9-4.74,3.66-4.53s-11.43-1.82-14.72,1.44l1.16-3.41s-14.23,2.56-17,13"/><path class="cls-3" d="M421.14,470.63c5.1,8.81,15.72,12.53,25.44,12.79l-.12.24c-.2-.27-2.91-3.72-3-3.84,5.9,2.06,14.05,4.66,19.87,1.39l0,.31L460.71,479l-.24-.24a24,24,0,0,0,12.67-10.35v.27c-3.29-4-8.22-6.47-13.12-8a47.4,47.4,0,0,0-12-1.76l-.33,0a21.48,21.48,0,0,1,3.61-4.77.56.56,0,0,1,.45-.09.18.18,0,0,1,0,.35c-.21,0-.47-.05-.67-.06a43.39,43.39,0,0,0-9.18-.26c-1.68.2-3.53.5-4.81,1.67l-.42.39c.09-.28,1.23-3.57,1.35-4l.15.18a31.29,31.29,0,0,0-5.34,1.62c-5.16,2-10.14,5.7-11.71,11.24,2.11-7.51,9.89-11.53,17-13.12.3-.07.22-.09.14.17l-1.15,3.41-.23-.14c1.36-1.25,3.23-1.55,5-1.77a43.92,43.92,0,0,1,9.24.21l.57.06s.07,0,0,0-.16.27,0,.31c-1.42,1-2.39,2.95-3.42,4.47l-.16-.29c7,.16,14.18,1.52,20.18,5.25a20.66,20.66,0,0,1,5.47,4.71,25.08,25.08,0,0,1-2.54,3.51,24.61,24.61,0,0,1-10.19,7l.08-.35,2.58,2.58.18.18-.21.13c-5.89,3.29-13.72.8-19.68-1.23l.18-.24,2.64,3.41.2.26-.32,0c-9.79-.27-20.43-4.17-25.44-13.09Z"/><path class="cls-3" d="M403.83,458.27c13.53,8.27,30.43,14.12,46.14,9.15a38.27,38.27,0,0,1-5.86,1.63c-14.15,2.4-28.65-2.93-40.28-10.78Z"/></g></g></svg>