<svg xmlns="http://www.w3.org/2000/svg" viewBox="0 0 1366.17 667.73"><defs><style>.cls-1{fill:none;stroke:#15110f;stroke-miterlimit:10;stroke-width:0.5px;}.cls-2{fill:#e9e4dc;}.cls-3{fill:#15110f;}</style></defs><g id="Layer_2" data-name="Layer 2"><g id="Layer_1-2" data-name="Layer 1"><path class="cls-1" d="M.15,667.53S215.89,509.08,426.52,463.8,708,193.53,708,193.53s157.26-226,658.11-182.91"/><path class="cls-2" d="M1305,18.6s5.87,12.38,25.44,12.94l-2.65-3.4s13.39,5.31,19.51,1.21l-2.58-2.57a24.5,24.5,0,0,0,12.49-10.32s-6.7-9.48-25.35-9.79c0,0,2.9-4.74,3.65-4.52s-11.42-1.83-14.71,1.43l1.16-3.41s-14.23,2.57-17,13"/><path class="cls-3" d="M1305,18.6c5.1,8.82,15.72,12.54,25.44,12.8l-.12.24c-.2-.28-2.91-3.72-3-3.85,5.9,2.07,14,4.66,19.87,1.39l0,.31-2.59-2.56-.24-.24a24.24,24.24,0,0,0,10.29-7,23.61,23.61,0,0,0,2.38-3.32v.27c-3.29-4-8.23-6.47-13.12-8a47.92,47.92,0,0,0-12-1.76h-.33c1.11-1.64,2-3.47,3.61-4.78a.5.5,0,0,1,.44-.08c.17.07.19.3,0,.34a5.21,5.21,0,0,1-.67-.06,44.64,44.64,0,0,0-9.17-.26c-1.68.21-3.53.5-4.81,1.67l-.42.39c.09-.28,1.23-3.57,1.35-3.94l.15.17a31.71,31.71,0,0,0-5.35,1.63c-5.16,2-10.13,5.69-11.7,11.23,2.11-7.5,9.88-11.53,17-13.12.31-.06.22-.09.15.17l-1.15,3.42-.23-.15c1.35-1.24,3.23-1.54,5-1.77a43.93,43.93,0,0,1,9.24.22l.57.06s.07,0,0,0-.16.28,0,.32c-1.42,1-2.39,2.94-3.43,4.46l-.15-.28c7,.15,14.18,1.52,20.18,5.24a21,21,0,0,1,5.47,4.71,25.17,25.17,0,0,1-2.54,3.52,24.83,24.83,0,0,1-10.2,7l.09-.35,2.58,2.58.17.17-.2.14c-5.89,3.29-13.72.8-19.68-1.23l.18-.25,2.64,3.41.2.27-.33,0c-9.78-.27-20.43-4.17-25.43-13.09Z"/><path class="cls-3" d="M1287.65,6.25c13.52,8.27,30.43,14.12,46.14,9.14a37.16,37.16,0,0,1-5.86,1.63c-14.15,2.4-28.65-2.92-40.28-10.77Z"/><path class="cls-2" d="M940.21,33.06s-.57-13.68,16.48-23.31L955.94,14s9.37-10.94,16.7-10.16l-1.09,3.48a24.45,24.45,0,0,1,15.86,3.31S985.9,22.14,969.54,31.1c0,0,4.78,2.84,5.34,2.3s-9.26,6.94-13.69,5.59l2.62,2.48S950,45.82,942.69,37.91"/><path class="cls-3" d="M940.21,33.06c.28-10.23,7.88-18.63,16.41-23.44l.28-.17-.06.33L956.1,14l-.28-.13c4.33-4.58,10.09-10.43,16.84-10.26l.25,0-.08.24-1.08,3.48-.24-.27a24.55,24.55,0,0,1,16.18,3.39,20.91,20.91,0,0,1-2.64,6.72c-3.58,6.09-9.31,10.65-15.42,14v-.33c1.62.87,3.38,2.12,5.11,2.36-.1.08.06.31.18.26s0,0,0,0l-.47.31a44.66,44.66,0,0,1-8.08,4.5,8.68,8.68,0,0,1-5.23.75l.14-.23,2.61,2.48.17.16-.22.06c-5.4,1.47-11.38,1.79-16.61-.44a15.12,15.12,0,0,1-4.55-3.24c4,4.17,10.09,5.11,15.59,4.48a31.87,31.87,0,0,0,5.49-1l0,.22-2.62-2.47-.42-.39c1.84.67,3.83.08,5.59-.61a46.16,46.16,0,0,0,8.48-4.83c.06,0,.29-.09.31.05-.08,1.33-5.23-1.88-5.89-2.21,6.12-3.42,11.91-8,15.47-14.12a21.06,21.06,0,0,0,2.53-6.38l.11.24A22.59,22.59,0,0,0,983.63,9a24.22,24.22,0,0,0-12.38-1.44l.1-.33,1.09-3.47.18.26C966,3.84,959.91,10,955.68,14.53c0-.18.8-4.46.87-4.8l.22.15c-8.49,4.77-16.15,13-16.56,23.18Z"/><path class="cls-2" d="M930.66,52.06s13.46-26.24,36.56-29.6"/><path class="cls-3" d="M930.66,52.06c6.63-12.37,17-23.84,30.61-28.31a39.46,39.46,0,0,1,6-1.29c-16.22,2.93-28.45,16-36.56,29.6Z"/></g></g></svg>