<svg xmlns="http://www.w3.org/2000/svg" viewBox="0 0 1369.96 524.5"><defs><style>.cls-1{fill:none;stroke:#ede0d5;stroke-miterlimit:10;stroke-width:0.5px;}.cls-2{fill:#d3b298;}.cls-3{fill:#f7f0eb;}</style></defs><g id="Layer_2" data-name="Layer 2"><g id="Layer_1-2" data-name="Layer 1"><path class="cls-1" d="M.19,524.34C135.69,364.46,453.87,42.85,789.47,87.05,1051.22,121.52,1250.4,58.12,1369.85.22"/><path class="cls-2" d="M464.5,131s1.41-15-16.81-26.58l.59,4.71S438.59,96.56,430.48,97l1,3.89a27,27,0,0,0-17.65,2.74s1,12.75,18.51,23.55c0,0-5.42,2.86-6,2.23s9.8,8.16,14.74,6.93l-3,2.57s14.92,5.58,23.44-2.71"/><path class="cls-3" d="M464.5,131c.14-11.22-7.82-20.73-16.89-26.45l.23-.15c.06.37.63,5,.67,5.28-4.35-5.22-10.78-12.36-18-12.48l.19-.25,1,3.89.09.33a26.24,26.24,0,0,0-9.31-.18,25.94,25.94,0,0,0-8.51,2.86l.13-.24c1.76,10.21,9.93,18.07,18.36,23.41l.27.18a29.27,29.27,0,0,1-5.67,2.43,1,1,0,0,1-.81-.08c-.15-.11-.11-.41.16-.32a53.07,53.07,0,0,0,9.14,5.84c1.71.75,3.63,1.51,5.51,1.13l.56-.13-.43.37-3,2.57,0-.22a35.16,35.16,0,0,0,6,1.47c6,1,12.8.3,17.41-4.06a16.58,16.58,0,0,1-5.19,3.31c-5.89,2.14-12.45,1.44-18.3-.47-.3-.11-.23,0,0-.23l3-2.58.13.24c-2,.42-3.92-.35-5.7-1.12a48.83,48.83,0,0,1-8.63-5.41l-.51-.38s-.06,0,0,0,.28-.16.19-.26c1.95-.13,3.95-1.45,5.78-2.29v.33c-8.58-5.4-16.85-13.29-18.65-23.69l0-.16.15-.07a26.21,26.21,0,0,1,8.68-2.88,26.72,26.72,0,0,1,9.14.15l-.26.26-1-3.9-.06-.24h.25c7.31.14,13.52,7,17.93,12.24l-.28.11-.58-4.71,0-.33.27.18c9.12,5.77,17,15.45,16.73,26.71Z"/><path class="cls-2" d="M473.94,152.44s-13.32-29.63-38.56-34.64"/><path class="cls-3" d="M473.94,152.44c-8.12-15.46-20.86-30.54-38.56-34.64a40.5,40.5,0,0,1,6.47,1.77c14.74,5.71,25.46,18.9,32.09,32.87Z"/><path class="cls-2" d="M943.31,76.72s.75-15.07,20.43-23.91l-1.26,4.58s11.39-11.06,19.35-9.47l-1.54,3.71a27,27,0,0,1,17.07,5.23s-2.81,12.48-21.67,20.66c0,0,4.95,3.61,5.63,3.07s-10.87,6.68-15.59,4.75l2.62,3s-15.56,3.39-22.82-6"/><path class="cls-3" d="M943.31,76.72c1.33-11.19,10.52-19.64,20.37-24l.29-.15-.09.33-1.24,4.58-.27-.15c5.15-4.55,12.2-10.44,19.5-9.56l.24.05L982,48l-1.54,3.71-.21-.29a27.23,27.23,0,0,1,13.33,2.84,27.56,27.56,0,0,1,4,2.5c-1.69,5.71-5.76,10.34-10.26,14.06a52.92,52.92,0,0,1-11.63,6.87l0-.32c.78.56,1.58,1.11,2.39,1.63a8.22,8.22,0,0,0,3,1.45s0,0,0,0a.14.14,0,0,0,0,.16c.06.09.09.13.18.12s0,0,0,0l-.55.3a48.76,48.76,0,0,1-9.32,4.12c-1.87.51-3.9,1-5.8.3l.16-.22,2.61,3,.15.17-.22,0c-6.07,1.07-12.66.82-18.18-2.14a16.81,16.81,0,0,1-4.67-4,17.49,17.49,0,0,0,10.52,6,33.74,33.74,0,0,0,12.27-.09l-.07.22-2.62-3-.38-.42.54.2c3.74,1,7.59-1,11-2.46,1.5-.7,3.05-1.59,4.51-2.35a.18.18,0,0,1,.12.34,1,1,0,0,1-.82,0,29.18,29.18,0,0,1-5.26-3.22l.29-.14c9.1-4.08,18.31-10.69,21.51-20.54l.09.25a25.62,25.62,0,0,0-8-4A26.08,26.08,0,0,0,980,51.86l.13-.31,1.55-3.71.15.28c-7.22-.9-14.54,5.22-19.61,9.77.06-.27,1.32-4.75,1.42-5.12l.2.17c-9.79,4.37-19,12.66-20.49,23.78Z"/><path class="cls-2" d="M930.91,96.61S948.32,69.18,974,67.82"/><path class="cls-3" d="M930.91,96.61c8.54-12.89,21-24.42,36.45-28a41.39,41.39,0,0,1,6.65-.82c-18.1,1.53-32.86,14.63-43.1,28.79Z"/><path class="cls-2" d="M216.56,328.68s12.79,8,31.3-3.1L243.38,324s15.58-3,18.83-10.46l-3.93-.86a26.94,26.94,0,0,0,5.47-17s-11.85-4.82-29.34,6c0,0-.13-6.13.7-6.38s-11.69,5.1-12.81,10.08l-1-3.86s-11.68,10.83-8.09,22.18"/><path class="cls-3" d="M216.56,328.68c10,5.15,22,2.31,31.22-3.23l0,.27c-.36-.12-4.79-1.7-5-1.77,6.61-1.54,15.88-4.09,19.23-10.51l.15.28-3.93-.84-.33-.07a26.18,26.18,0,0,0,4.33-8.25,25.72,25.72,0,0,0,1.26-8.88l.16.22c-9.91-3-20.6.77-29.15,5.91l-.28.16a28.23,28.23,0,0,1,.37-6.16c.07-.25.16-.57.43-.69s.41.09.22.29a52.56,52.56,0,0,0-9.33,5.55c-1.44,1.19-3,2.57-3.48,4.42l-.14.55-.13-.55-.95-3.86.22.07a34.11,34.11,0,0,0-7.09,10,17.57,17.57,0,0,0-1.09,12.06c-2.49-8.22,2.34-16.57,8-22.27.23-.22.14-.2.22.06l1,3.85h-.27c.51-1.95,2.07-3.34,3.56-4.58a48.3,48.3,0,0,1,8.71-5.29l.56-.28h0c-.09.09,0,.32.14.29-.75,1.8-.47,4.18-.54,6.19l-.29-.15c8.67-5.25,19.44-9.1,29.54-6.05l.15.05v.17a26.24,26.24,0,0,1-1.32,9,26.79,26.79,0,0,1-4.23,8.1l-.12-.35,3.92.87.25.05-.1.23c-3.41,6.46-12.35,8.93-19,10.53l0-.3,4.48,1.6.31.11-.28.15c-9.25,5.56-21.44,8.28-31.38,3Z"/><path class="cls-2" d="M193.15,327.48s32.46,1.39,48.27-18.91"/><path class="cls-3" d="M193.15,327.48c17.47-.31,36.66-4.93,48.27-18.91a42.43,42.43,0,0,1-4.49,5c-11.72,10.61-28.32,14.27-43.78,13.92Z"/><path class="cls-2" d="M1297.23,49.75s8.52,12.46,29.92,9.71l-3.46-3.26s15.48,3.48,21.44-2l-3.25-2.36a27,27,0,0,0,11.82-13.38s-8.92-9.17-29.28-6.29c0,0,2.34-5.66,3.2-5.56s-12.75,0-15.77,4.1l.67-3.91s-15,5.24-16.3,17.07"/><path class="cls-3" d="M1297.23,49.75c7.07,8.72,19.27,11,29.9,9.56l-.08.25c-.28-.24-3.71-3.47-3.88-3.63,6.7,1.24,16.14,2.63,21.82-1.91l0,.31L1341.75,52l-.27-.2a26,26,0,0,0,7.27-5.81,25.64,25.64,0,0,0,4.72-7.63l0,.26c-4.28-3.8-10.07-5.63-15.67-6.43a52.73,52.73,0,0,0-13.4.16l-.32,0c.93-1.93,1.66-4.45,3.27-5.9a.48.48,0,0,1,.26-.05c.18.05.24.28,0,.35a6,6,0,0,1-.74,0,48.36,48.36,0,0,0-10,1.3c-1.79.52-3.76,1.16-5,2.65l-.35.45c.05-.24.72-4.1.78-4.47l.18.15a35.48,35.48,0,0,0-5.55,2.69c-5.26,3.08-10,8-10.8,14.26,1-8.53,8.78-14.25,16.26-17.2.3-.11.2-.12.17.15L1312,30.7l-.25-.11c1.25-1.58,3.24-2.23,5.1-2.77a48.41,48.41,0,0,1,10.1-1.35c.16,0,.47,0,.62,0s.08,0,0,0-.07.09-.08.19a.15.15,0,0,0,.11.13c-1.42,1.28-2.15,3.71-3,5.45l-.2-.26c10-1.32,21.45-.54,29.48,6.31l.12.11-.07.15a26.14,26.14,0,0,1-4.83,7.76A26.85,26.85,0,0,1,1342,52l0-.36,3.25,2.36.2.15-.18.17c-5.75,4.57-14.86,3.23-21.62,2l.15-.27,3.45,3.26.25.23-.33,0c-10.69,1.39-23-1-29.94-9.85Z"/><path class="cls-2" d="M1276.27,39.28s29.18,14.28,51.8,2"/><path class="cls-3" d="M1276.27,39.28c16.13,6.7,35.56,10.16,51.8,2a41.45,41.45,0,0,1-6.11,2.77c-15,5-31.67,1.73-45.69-4.78Z"/></g></g></svg>