<svg xmlns="http://www.w3.org/2000/svg" viewBox="0 0 1366.27 646.49"><defs><style>.cls-1{fill:none;stroke:#ede0d5;stroke-miterlimit:10;stroke-width:0.5px;}.cls-2{fill:#d3b298;}.cls-3{fill:#f7f0eb;}</style></defs><g id="Layer_2" data-name="Layer 2"><g id="Layer_1-2" data-name="Layer 1"><path class="cls-1" d="M1366,646.39c-65.4-152.64-245.27-358.18-727-494.77C375.41,76.89,165,32,0,5.55"/><path class="cls-2" d="M178,18.7s4.72-14.33,26-17.64l-2.43,4.09s13.91-7.64,21.17-4l-2.47,3.17a26.92,26.92,0,0,1,15.07,9.57s-6,11.28-26.37,14.17c0,0,3.82,4.79,4.61,4.45s-12.25,3.56-16.29.45l1.74,3.57s-15.91-.86-20.4-11.87"/><path class="cls-3" d="M178,18.7C182.26,8.27,193.37,2.56,204,.92l.32-.07-.17.29-2.42,4.09L201.55,5c6.17-3,14.53-6.83,21.33-4l.22.11-.15.2-2.46,3.17-.13-.34a27.08,27.08,0,0,1,15.34,9.76c-3.14,5.06-8.3,8.44-13.62,10.83a52.92,52.92,0,0,1-13,3.55l.12-.3c.61.75,1.23,1.49,1.87,2.2s1.5,1.83,2.53,2.2a.17.17,0,0,0-.08.16c0,.1.05.14.14.16s0,0,0,0l-.61.14a49,49,0,0,1-10.08,1.5c-1.93,0-4-.08-5.67-1.25l.21-.17,1.73,3.57.1.21-.23,0c-8-.76-17.06-4.09-20.39-12a16.36,16.36,0,0,0,3.49,5.06A24.56,24.56,0,0,0,193,35.35a34.89,34.89,0,0,0,6.07,1l-.12.19L197.22,33l-.25-.51.46.34c3.33,2,7.6,1,11.24.54,1.64-.27,3.36-.72,5-1.07.26,0,.2.33,0,.36a1,1,0,0,1-.78-.25,28.1,28.1,0,0,1-4.22-4.5l.32-.05c9.85-1.52,20.49-5.46,26.18-14.11l0,.27a26,26,0,0,0-6.65-6,26.22,26.22,0,0,0-8.61-3.56l.21-.27L222.63,1l.07.3C216-1.45,207.29,2.51,201.2,5.56c.13-.25,2.53-4.23,2.72-4.57l.15.22C193.47,2.83,182.36,8.36,178,18.7Z"/><path class="cls-3" d="M160.78,34.58c11.66-10.15,26.76-17.95,42.56-17.29a42.22,42.22,0,0,1,6.63,1c-17.86-3.32-35.56,5.4-49.19,16.32Z"/><path class="cls-2" d="M1234.45,431.37s10.78-10.57,31.24-3.71l-4,2.51s15.86-.4,20.64,6.17l-3.65,1.68a27,27,0,0,1,9,15.42s-10.54,7.26-29.94.48c0,0,1.19,6,2,6.07s-12.51-2.46-14.67-7.08l-.1,4s-13.74-8.06-12.68-19.91"/><path class="cls-3" d="M1234.45,431.37c8.58-7.32,21.06-7.29,31.29-3.85l.31.09-.28.17-4,2.53-.09-.29c6.87.14,16,.6,20.81,6.2l.15.2-.23.1-3.64,1.69,0-.36a27.09,27.09,0,0,1,5.88,7,26.71,26.71,0,0,1,3.27,8.71c-4.55,2.73-9.93,3.5-15.14,3.46a50.68,50.68,0,0,1-15.15-2.92l.25-.21c.19.94.41,1.88.65,2.82a8.18,8.18,0,0,0,1.23,3.11s-.13,0-.14.1,0,.15,0,.21,0,0,0,0l-.61-.15a48.73,48.73,0,0,1-9.64-3.29c-1.72-.9-3.54-1.92-4.47-3.72l.27-.05-.11,4v.23l-.19-.12c-5.18-3.34-9.86-8-11.9-13.91a16.7,16.7,0,0,1-.71-6.12c-.48,6.33,3.26,12,7.83,16.08a35.49,35.49,0,0,0,4.92,3.72l-.2.11.09-4v-.57l.25.51c2,3.31,6.28,4.41,9.75,5.65,1.57.5,3.31.9,4.9,1.33.24.13,0,.39-.14.33s-.45-.35-.58-.58a29.07,29.07,0,0,1-1.68-5.93l.31.09c9.45,3.18,20.71,4.57,29.73-.5l-.1.25a26.68,26.68,0,0,0-9.15-15.52l.31-.14,3.65-1.68-.08.31c-4.69-5.56-14.22-6-21-6.12.23-.16,4.2-2.59,4.52-2.81l0,.27c-10.16-3.43-22.57-3.62-31.19,3.57Z"/><path class="cls-2" d="M1211.86,437.57s31.4-8.35,51.2,8.08"/><path class="cls-3" d="M1211.86,437.57c15-3.67,32-3.67,45.75,4.18a41.88,41.88,0,0,1,5.45,3.9c-14.35-11.15-34.07-11.53-51.2-8.08Z"/></g></g></svg>