<svg xmlns="http://www.w3.org/2000/svg" viewBox="0 0 122.34 33.78"><defs><style>.cls-1{fill:#fff;}</style></defs><g id="Layer_2" data-name="Layer 2"><g id="Layer_1-2" data-name="Layer 1"><path class="cls-1" d="M24.53,22.9h-1A11,11,0,0,1,22,27.5a9.6,9.6,0,0,1-3.24,3.34,8.69,8.69,0,0,1-4.72,1.26,9.13,9.13,0,0,1-5.79-1.7A9.37,9.37,0,0,1,5.2,25.58a26.65,26.65,0,0,1-.94-7.52,28.3,28.3,0,0,1,.52-5.5A14.86,14.86,0,0,1,6.43,8.05,8.39,8.39,0,0,1,9.44,5a9,9,0,0,1,4.64-1.11,8.56,8.56,0,0,1,6.31,2.38,11.55,11.55,0,0,1,3,6.73h1l-.08-4.89.08-4.89h-1A2.35,2.35,0,0,1,23,4.46a.93.93,0,0,1-.75.35,2,2,0,0,1-.63-.19c-.3-.12-.64-.27-1-.44a24.46,24.46,0,0,0-2.49-1A13.38,13.38,0,0,0,14,2.64,12.88,12.88,0,0,0,8.54,3.79,13.66,13.66,0,0,0,4.09,7a15.26,15.26,0,0,0-3,4.88A16.77,16.77,0,0,0,0,18.06,18.07,18.07,0,0,0,1.65,26a12.77,12.77,0,0,0,4.72,5.41,13.32,13.32,0,0,0,7.33,2,12,12,0,0,0,4.14-.65,28.59,28.59,0,0,0,2.84-1.19q.51-.26.9-.42a1.79,1.79,0,0,1,.69-.16.79.79,0,0,1,.77.48,6.55,6.55,0,0,1,.4,1l.12.46h1L24.44,28Z"/><path class="cls-1" d="M92.23,32.11a2.51,2.51,0,0,1-.9.16,2.3,2.3,0,0,1-1.4-.52,4.52,4.52,0,0,1-1.25-1.84,15.83,15.83,0,0,1-.94-3.65,9.48,9.48,0,0,0-2.49-5.58,7.64,7.64,0,0,0-5-2.11,15.48,15.48,0,0,0,4-1.15,7,7,0,0,0,2.49-1.83,5.79,5.79,0,0,0,.43-.55A6.91,6.91,0,0,0,88.2,11a6.2,6.2,0,0,0-1.48-4.42A8,8,0,0,0,82.81,4.3a20.43,20.43,0,0,0-5.26-.65H71.7l-6.19-.12v1l.84.08a11.43,11.43,0,0,1,2.23.44,1.74,1.74,0,0,1,1.07,1.15,10.75,10.75,0,0,1,.29,3V27.76a10.73,10.73,0,0,1-.29,2.95,1.73,1.73,0,0,1-1.07,1.17,10.83,10.83,0,0,1-2.23.43l-.84.09v1l6.19-.12h0l6.18.12v-1l-.83-.09a11.3,11.3,0,0,1-2.22-.43,1.7,1.7,0,0,1-1.08-1.17,10.26,10.26,0,0,1-.3-2.95v-8.9h1.8a10,10,0,0,1,4.41.84,6.57,6.57,0,0,1,2.63,2.23A10,10,0,0,1,83.71,25a26.39,26.39,0,0,1,.65,3.35,8.69,8.69,0,0,0,1.44,3.86,3.89,3.89,0,0,0,3.4,1.57,8.51,8.51,0,0,0,2.3-.32,11,11,0,0,0,1.8-.64L93,31.77ZM77,17.73H73.49v-13h4.14q3.68,0,5.14,1.69a7.11,7.11,0,0,1,1.46,4.78,6.69,6.69,0,0,1-1.61,4.89Q81,17.74,77,17.73Z"/><path class="cls-1" d="M122,31.77c-.22.11-.48.22-.77.34a2.51,2.51,0,0,1-.9.16,2.3,2.3,0,0,1-1.4-.52,4.43,4.43,0,0,1-1.25-1.84,15.83,15.83,0,0,1-.94-3.65,9.48,9.48,0,0,0-2.49-5.58,7.64,7.64,0,0,0-5-2.11,15.6,15.6,0,0,0,3.95-1.15A7,7,0,0,0,116.13,15,6.91,6.91,0,0,0,117.24,11a6.2,6.2,0,0,0-1.49-4.42,8,8,0,0,0-3.9-2.24,20.45,20.45,0,0,0-5.27-.65h-5.85l-6.18-.12v1l.84.08a11.43,11.43,0,0,1,2.23.44,1.74,1.74,0,0,1,1.07,1.15,10.75,10.75,0,0,1,.29,3V27.76a10.73,10.73,0,0,1-.29,2.95,1.73,1.73,0,0,1-1.07,1.17,10.83,10.83,0,0,1-2.23.43l-.84.09v1l6.18-.12h0l6.18.12v-1l-.84-.09a11.33,11.33,0,0,1-2.21-.43,1.73,1.73,0,0,1-1.09-1.17,10.73,10.73,0,0,1-.29-2.95v-8.9h1.8a10,10,0,0,1,4.41.84,6.64,6.64,0,0,1,2.63,2.23A10.51,10.51,0,0,1,112.75,25a26.34,26.34,0,0,1,.64,3.35,8.82,8.82,0,0,0,1.45,3.86,3.88,3.88,0,0,0,3.4,1.57,8.51,8.51,0,0,0,2.3-.32,11,11,0,0,0,1.8-.64Zm-16-14h-3.51v-13h4.14q3.67,0,5.14,1.69a7.11,7.11,0,0,1,1.46,4.78,6.69,6.69,0,0,1-1.61,4.89C110.59,17.19,108.71,17.73,106,17.73Z"/><path class="cls-1" d="M61.64,31.16a9,9,0,0,1-1.79-3L49.71,0H48.29L45.88,3.63l-6.09.08L27.46,3.63l-.08,2.22-.46,5.55h1a20.43,20.43,0,0,1,.6-3,3.9,3.9,0,0,1,1.21-1.92,5.73,5.73,0,0,1,2.53-1,25.43,25.43,0,0,1,4.51-.38L45,5,26,32.29l-.86,1.09h1.79l8.56.09,12.33.08.08-2.21.46-5.56h-1a21.38,21.38,0,0,1-.61,3,3.74,3.74,0,0,1-1.21,1.92A5.79,5.79,0,0,1,43,31.76a26.49,26.49,0,0,1-4.51.37l-8.19.09L48.47,6.05l5.26,15.29.5,1.34,1.92,5.49a7.34,7.34,0,0,1,.65,2.2,1.45,1.45,0,0,1-.63,1.29,4.49,4.49,0,0,1-2.09.63l-.84.08v1.05l6.69-.13,5.18.13V32.37l-.84-.08A4.17,4.17,0,0,1,61.64,31.16Z"/></g></g></svg>